<svg width="17" height="16" viewBox="0 0 17 16" fill="none" xmlns="http://www.w3.org/2000/svg">
<path d="M1.248 15.68C0.874667 15.68 0.570667 15.5573 0.336 15.312C0.112 15.0773 0 14.7787 0 14.416V1.264C0 0.901334 0.112 0.602667 0.336 0.368C0.570667 0.122667 0.874667 0 1.248 0H3.728V1.104H1.648C1.36 1.104 1.216 1.264 1.216 1.584V14.096C1.216 14.416 1.36 14.576 1.648 14.576H3.728V15.68H1.248Z" fill="#FAFAFA"/>
<path d="M8.51138 12.144C7.54071 12.144 6.71937 11.92 6.04737 11.472C5.38604 11.024 4.98604 10.3147 4.84737 9.344L6.04737 9.072C6.13271 9.584 6.29271 9.98933 6.52738 10.288C6.76204 10.576 7.05004 10.784 7.39138 10.912C7.74338 11.0293 8.11671 11.088 8.51138 11.088C9.09804 11.088 9.56204 10.9707 9.90338 10.736C10.2447 10.5013 10.4154 10.1867 10.4154 9.792C10.4154 9.38667 10.25 9.104 9.91938 8.944C9.59938 8.77333 9.15671 8.63467 8.59138 8.528L7.93538 8.416C7.43404 8.33067 6.97537 8.19733 6.55937 8.016C6.14337 7.83467 5.81271 7.58933 5.56738 7.28C5.32204 6.97067 5.19938 6.58133 5.19938 6.112C5.19938 5.408 5.47138 4.85867 6.01538 4.464C6.55938 4.06933 7.27938 3.872 8.17537 3.872C9.06071 3.872 9.77538 4.07467 10.3194 4.48C10.874 4.87467 11.2314 5.43467 11.3914 6.16L10.2074 6.464C10.1114 5.89867 9.88204 5.504 9.51937 5.28C9.15671 5.04533 8.70871 4.928 8.17537 4.928C7.64204 4.928 7.22071 5.02933 6.91138 5.232C6.60204 5.424 6.44738 5.712 6.44738 6.096C6.44738 6.46933 6.59138 6.74667 6.87937 6.928C7.17804 7.09867 7.57271 7.22667 8.06338 7.312L8.71938 7.424C9.27404 7.52 9.77004 7.65333 10.2074 7.824C10.6554 7.984 11.0074 8.21867 11.2634 8.528C11.53 8.83733 11.6634 9.24267 11.6634 9.744C11.6634 10.512 11.3754 11.104 10.7994 11.52C10.234 11.936 9.47138 12.144 8.51138 12.144Z" fill="#FAFAFA"/>
<path d="M12.7729 15.68V14.576H14.8529C15.1409 14.576 15.2849 14.416 15.2849 14.096V1.584C15.2849 1.264 15.1409 1.104 14.8529 1.104H12.7729V0H15.2689C15.6315 0 15.9249 0.122667 16.1489 0.368C16.3835 0.602667 16.5009 0.901334 16.5009 1.264V14.416C16.5009 14.7787 16.3835 15.0773 16.1489 15.312C15.9249 15.5573 15.6315 15.68 15.2689 15.68H12.7729Z" fill="#FAFAFA"/>
</svg>
