<svg width="8" height="7" viewBox="0 0 8 7" fill="none" xmlns="http://www.w3.org/2000/svg">
<path d="M0.0977584 3.25239L3.09766 0.102565C3.1602 0.0368938 3.24503 4.15692e-07 3.33349 4.0796e-07C3.42194 4.00227e-07 3.50677 0.0368938 3.56931 0.102565C3.63186 0.168235 3.66699 0.257304 3.66699 0.350176C3.66699 0.443048 3.63186 0.532117 3.56931 0.597787L1.13814 3.15002L7.66668 3.15002C7.75508 3.15002 7.83986 3.18689 7.90237 3.25253C7.96488 3.31816 8 3.40718 8 3.5C8 3.59282 7.96488 3.68184 7.90237 3.74747C7.83986 3.81311 7.75508 3.84998 7.66668 3.84998L1.13814 3.84998L3.56931 6.40221C3.63186 6.46788 3.66699 6.55695 3.66699 6.64983C3.66699 6.7427 3.63186 6.83177 3.56931 6.89744C3.50677 6.96311 3.42194 7 3.33349 7C3.24503 7 3.16021 6.96311 3.09766 6.89744L0.0977585 3.74761C0.0667674 3.71511 0.0421817 3.67651 0.0254075 3.63402C0.00863332 3.59154 1.74878e-07 3.54599 1.70857e-07 3.5C1.66837e-07 3.45401 0.0086333 3.40847 0.0254075 3.36598C0.0421816 3.32349 0.0667674 3.28489 0.0977584 3.25239Z" fill="#949393"/>
</svg>
