<svg width="32" height="32" viewBox="0 0 32 32" fill="none" xmlns="http://www.w3.org/2000/svg">
<path d="M26 14.0001C25.136 14.0016 24.2957 14.2824 23.6044 14.8005C22.913 15.3186 22.4077 16.0464 22.1637 16.8751L16.8875 16.1251C16.6469 16.0911 16.427 15.9707 16.2687 15.7864L11.8037 10.5689C12.6391 10.1455 13.2995 9.4424 13.6697 8.58212C14.0399 7.72184 14.0965 6.75894 13.8296 5.86121C13.5627 4.96349 12.9893 4.18786 12.2093 3.66951C11.4293 3.15116 10.4921 2.92294 9.5611 3.02463C8.63008 3.12633 7.76427 3.55148 7.11454 4.22601C6.46482 4.90053 6.07237 5.78165 6.0056 6.71582C5.93884 7.64999 6.20198 8.57797 6.74917 9.33804C7.29636 10.0981 8.09291 10.6421 9 10.8751V21.1251C8.05734 21.3685 7.23581 21.9474 6.68939 22.7532C6.14298 23.5589 5.9092 24.5363 6.03188 25.5021C6.15455 26.468 6.62526 27.3559 7.35576 27.9995C8.08627 28.6431 9.02642 28.9981 10 28.9981C10.9736 28.9981 11.9137 28.6431 12.6442 27.9995C13.3747 27.3559 13.8454 26.468 13.9681 25.5021C14.0908 24.5363 13.857 23.5589 13.3106 22.7532C12.7642 21.9474 11.9427 21.3685 11 21.1251V12.7039L14.75 17.0789C15.2239 17.6318 15.8828 17.9935 16.6037 18.0964L22.1037 18.8814C22.2698 19.6164 22.64 20.2896 23.1719 20.8234C23.7038 21.3573 24.3757 21.73 25.1101 21.8986C25.8445 22.0673 26.6117 22.0251 27.3232 21.7769C28.0347 21.5286 28.6616 21.0844 29.1317 20.4955C29.6018 19.9066 29.8959 19.1968 29.9803 18.448C30.0647 17.6992 29.9358 16.9417 29.6085 16.263C29.2813 15.5842 28.7689 15.0116 28.1305 14.6113C27.4921 14.211 26.7536 13.9991 26 14.0001ZM8 7.00014C8 6.60458 8.11729 6.2179 8.33706 5.889C8.55682 5.56011 8.86918 5.30376 9.23463 5.15238C9.60008 5.00101 10.0022 4.9614 10.3902 5.03857C10.7781 5.11574 11.1345 5.30623 11.4142 5.58593C11.6939 5.86564 11.8844 6.222 11.9616 6.60996C12.0387 6.99793 11.9991 7.40006 11.8478 7.76551C11.6964 8.13096 11.44 8.44332 11.1111 8.66308C10.7822 8.88285 10.3956 9.00014 10 9.00014C9.46956 9.00014 8.96086 8.78943 8.58578 8.41436C8.21071 8.03928 8 7.53058 8 7.00014ZM12 25.0001C12 25.3957 11.8827 25.7824 11.6629 26.1113C11.4432 26.4402 11.1308 26.6965 10.7654 26.8479C10.3999 26.9993 9.99778 27.0389 9.60982 26.9617C9.22185 26.8845 8.86549 26.6941 8.58578 26.4144C8.30608 26.1347 8.1156 25.7783 8.03843 25.3903C7.96125 25.0024 8.00086 24.6002 8.15224 24.2348C8.30361 23.8693 8.55996 23.557 8.88886 23.3372C9.21775 23.1174 9.60443 23.0001 10 23.0001C10.5304 23.0001 11.0391 23.2109 11.4142 23.5859C11.7893 23.961 12 24.4697 12 25.0001ZM26 20.0001C25.6044 20.0001 25.2178 19.8828 24.8889 19.6631C24.56 19.4433 24.3036 19.131 24.1522 18.7655C24.0009 18.4001 23.9613 17.9979 24.0384 17.61C24.1156 17.222 24.3061 16.8656 24.5858 16.5859C24.8655 16.3062 25.2219 16.1157 25.6098 16.0386C25.9978 15.9614 26.3999 16.001 26.7654 16.1524C27.1308 16.3038 27.4432 16.5601 27.6629 16.889C27.8827 17.2179 28 17.6046 28 18.0001C28 18.5306 27.7893 19.0393 27.4142 19.4144C27.0391 19.7894 26.5304 20.0001 26 20.0001Z" fill="#949393"/>
</svg>
