<svg width="8" height="7" viewBox="0 0 8 7" fill="none" xmlns="http://www.w3.org/2000/svg">
<path d="M7.90224 3.74761L4.90234 6.89744C4.83979 6.96311 4.75497 7 4.66651 7C4.57806 7 4.49323 6.96311 4.43069 6.89744C4.36814 6.83177 4.33301 6.7427 4.33301 6.64982C4.33301 6.55695 4.36814 6.46788 4.43069 6.40221L6.86186 3.84998H0.333322C0.24492 3.84998 0.160138 3.81311 0.0976279 3.74747C0.0351179 3.68184 0 3.59282 0 3.5C0 3.40718 0.0351179 3.31816 0.0976279 3.25253C0.160138 3.18689 0.24492 3.15002 0.333322 3.15002H6.86186L4.43069 0.597786C4.36814 0.532116 4.33301 0.443047 4.33301 0.350175C4.33301 0.257303 4.36814 0.168234 4.43069 0.102564C4.49323 0.0368933 4.57806 0 4.66651 0C4.75497 0 4.83979 0.0368933 4.90234 0.102564L7.90224 3.25239C7.93323 3.28489 7.95782 3.32349 7.97459 3.36598C7.99137 3.40846 8 3.45401 8 3.5C8 3.54599 7.99137 3.59153 7.97459 3.63402C7.95782 3.67651 7.93323 3.71511 7.90224 3.74761Z" fill="white"/>
</svg>
