<svg width="59" height="22" viewBox="0 0 59 22" fill="none" xmlns="http://www.w3.org/2000/svg">
<path d="M22.0162 4.5682C21.6154 4.17935 21.0517 3.9917 20.3404 3.9917C19.6291 3.9917 19.0411 4.19074 18.6073 4.59966C18.1735 5.00858 17.9626 5.58291 17.9626 6.31669V7.65246C17.9626 8.14056 18.0557 8.56467 18.2495 8.91664C18.4332 9.24705 18.7058 9.5212 19.0373 9.709C19.3785 9.8906 19.761 9.98356 20.1488 9.97908C20.4461 9.97908 20.6894 9.94328 20.8733 9.8679C21.0314 9.80891 21.172 9.71197 21.2824 9.58589C21.3399 9.51838 21.3909 9.44576 21.4349 9.36895V9.8679H22.6196V6.82377H20.0321V7.91115H21.3715C21.3677 8.18992 21.2868 8.4139 21.1293 8.5907C20.9719 8.7675 20.7285 8.85916 20.3586 8.85916C19.9886 8.85916 19.7216 8.75069 19.5289 8.54135C19.3362 8.33201 19.2316 8.03752 19.2316 7.66873V6.30096C19.2316 5.92621 19.3346 5.64311 19.5278 5.43811C19.721 5.2331 19.9881 5.12735 20.342 5.12735C20.5434 5.11909 20.7434 5.16403 20.9212 5.25751C21.0637 5.33112 21.1792 5.4468 21.2515 5.58833C21.3316 5.73878 21.3721 5.90659 21.3693 6.07644V6.23914H22.6152V6.10898C22.6152 5.46794 22.4176 4.95001 22.0129 4.56766H22.0162V4.5682Z" fill="#757575"/>
<path d="M26.8696 4.39861C26.5784 4.2701 26.2621 4.20704 25.9435 4.21395H23.5066V9.75745H24.7148V7.73869H26.0365C26.1715 7.73869 26.2424 7.77364 26.2781 7.81798H26.2813C26.3351 7.88473 26.3622 7.96889 26.3574 8.05429V9.75589H27.5656V7.91501C27.5656 7.68392 27.5052 7.48883 27.3723 7.3412C27.2588 7.21134 27.1012 7.12743 26.9295 7.10542C27.1416 7.00644 27.3266 6.85831 27.469 6.6735C27.6392 6.45389 27.719 6.17116 27.719 5.83522V5.74289C27.7298 5.46009 27.6545 5.18063 27.503 4.94094C27.3515 4.70125 27.1307 4.51245 26.8696 4.39914V4.39861ZM24.7158 5.32088H25.8358C26.0648 5.32088 26.2277 5.38191 26.3385 5.49146C26.3969 5.5492 26.4424 5.61856 26.4719 5.69497C26.5014 5.77139 26.5143 5.85313 26.5098 5.93485V6.01153C26.5138 6.09496 26.5 6.1783 26.4693 6.25607C26.4387 6.33383 26.3917 6.40427 26.3317 6.46276C26.2203 6.56708 26.0601 6.62812 25.8358 6.62812H24.7143V5.32088H24.7158Z" fill="#757575"/>
<path d="M29.8361 8.6499V7.51627H32.1099V6.40819H29.8361V5.32047H32.3298V4.21344H28.6069V9.75745H32.3768V8.6499H29.8361Z" fill="#757575"/>
<path d="M34.4205 8.6499V7.51627H36.5614V6.40819H34.4205V5.32047H36.7693V4.21344H33.2639V9.75745H36.8121V8.6499H34.4205Z" fill="#757575"/>
<path d="M40.8456 4.21344H40.7526V8.73702L39.7593 4.28752L39.743 4.21344H37.6991V9.75745H38.858V5.23595L39.8508 9.68389L39.8676 9.75745H41.9125V4.21344H40.8456Z" fill="#757575"/>
<path d="M46.9999 5.03076C46.8536 4.77277 46.6374 4.56416 46.3778 4.43034C46.0988 4.28162 45.788 4.20719 45.4738 4.21385H43.243V9.75745H44.4091V7.79969H45.4769C45.7857 7.80569 46.0913 7.73406 46.3672 7.59103C46.6276 7.45146 46.8456 7.24085 46.9974 6.98226C47.1583 6.70412 47.2403 6.38518 47.2342 6.06154V5.95721C47.2422 5.63452 47.1632 5.31584 47.006 5.0365V5.03337L46.9999 5.03076ZM46.0635 5.96973V6.04694C46.0635 6.2556 45.9991 6.40792 45.8784 6.51955C45.7578 6.63119 45.5894 6.69431 45.375 6.69431H44.4041V5.3208H45.375C45.5905 5.3208 45.7557 5.38183 45.8784 5.49555C46.0011 5.60927 46.0635 5.76055 46.0635 5.96817V5.96973Z" fill="#757575"/>
<path d="M48.2102 4.21344H48.1219V9.75745H49.2307V4.21344H48.2102Z" fill="#757575"/>
<path d="M51.5795 8.64948V4.21344H50.3394V9.75745H54.1093V8.64948H51.5795Z" fill="#757575"/>
<path d="M58.2287 8.64948H55.9406V4.21344H54.7748V9.75745H58.3229V8.64948H58.2287Z" fill="#757575"/>
<path d="M22.0163 11.6654C21.6157 11.2755 21.0347 11.0881 20.2907 11.0881H17.9625V12.1602H18.6769V15.5584H17.9625V16.6321H20.2907C21.0352 16.6321 21.6136 16.4478 22.0163 16.0626C22.4189 15.6774 22.6195 15.1011 22.6195 14.3661V13.3551C22.6195 12.6206 22.4248 12.0501 22.0173 11.6664L22.0163 11.6654ZM21.4067 14.3943C21.4067 14.7676 21.3141 15.0447 21.1421 15.2358C20.9702 15.4268 20.704 15.525 20.305 15.525H19.887V12.1905H20.305C20.704 12.1905 20.9749 12.2949 21.1421 12.4802C21.3093 12.6655 21.4067 12.9422 21.4067 13.3211V14.3928V14.3943Z" fill="#757575"/>
<path d="M24.7325 15.528V14.3894H27.0094V13.2853H24.7325V12.1917H27.2294V11.0881H23.5066V16.6321H27.2765V15.528H24.7325Z" fill="#757575"/>
<path d="M32.4751 11.0881H31.3163L31.2979 11.1591L30.1586 15.7149L29.0194 11.1591L29.0015 11.0881H27.7201L27.7505 11.2034L29.1675 16.5621L29.1854 16.6321H31.1341L31.152 16.5621L32.5673 11.2034L32.5988 11.0881H32.4751Z" fill="#757575"/>
<path d="M40.2006 11.4426C39.7989 11.0542 39.235 10.8662 38.5232 10.8662C37.8114 10.8662 37.2216 11.0656 36.7884 11.4736C36.3553 11.8816 36.1467 12.4564 36.1467 13.1909V14.529C36.1467 15.0179 36.2411 15.4422 36.4342 15.7942C36.6176 16.1251 36.8905 16.3994 37.2227 16.5869C37.5618 16.7659 37.9414 16.8577 38.3262 16.8536C38.6231 16.8536 38.8675 16.8183 39.0513 16.7422C39.2095 16.6837 39.3502 16.5867 39.4601 16.4603C39.5204 16.3913 39.5734 16.3165 39.6185 16.237V16.7422H40.8037V13.6999H38.2104V14.7865H39.5528C39.5495 15.0662 39.4678 15.2933 39.31 15.471C39.1522 15.6486 38.9072 15.7426 38.5342 15.7426C38.1612 15.7426 37.8947 15.634 37.7016 15.4243C37.5052 15.207 37.4037 14.9185 37.4037 14.5491V13.1751C37.4037 12.7997 37.5063 12.5145 37.7 12.3091C37.8936 12.1038 38.1629 11.9978 38.5188 11.9978C38.721 11.9899 38.9217 12.0348 39.1004 12.1282C39.2432 12.2027 39.3589 12.3191 39.4314 12.4613C39.5116 12.612 39.5522 12.7801 39.5495 12.9502V13.1132H40.7976V12.985C40.7976 12.3428 40.5995 11.8251 40.194 11.4426H40.2006Z" fill="#757575"/>
<path d="M44.9135 11.0891V14.765C44.9135 15.0793 44.8242 15.3153 44.655 15.4869C44.4858 15.6584 44.249 15.7468 43.908 15.7468C43.567 15.7468 43.3227 15.6557 43.1541 15.4863C42.9854 15.3169 42.9019 15.0788 42.9019 14.7634V11.0902H41.6907V14.7314C41.6907 15.1608 41.7763 15.5385 41.9503 15.8619C42.1289 16.1785 42.3953 16.4356 42.7168 16.6019C43.0536 16.7718 43.4512 16.8538 43.9064 16.8538C44.3616 16.8538 44.7581 16.7718 45.0896 16.6008C45.4138 16.437 45.6814 16.1783 45.8572 15.8587C46.0419 15.5111 46.1342 15.1213 46.1253 14.7272V11.0881H45.0092" fill="#757575"/>
<path d="M57.9407 11.6653C57.5398 11.2754 56.959 11.0881 56.2152 11.0881H53.8878V12.1627H54.6003V15.5585H53.8878V16.6321H56.2152C56.9595 16.6321 57.5376 16.4473 57.9418 16.0627C58.3459 15.678 58.5448 15.1012 58.5448 14.3664V13.3548C58.5448 12.6205 58.3485 12.05 57.9428 11.6664L57.9407 11.6653ZM55.8127 12.1909H56.23C56.6294 12.1909 56.8997 12.2953 57.0674 12.4806C57.2351 12.6659 57.3292 12.942 57.3292 13.3214V14.393C57.3292 14.7662 57.2372 15.0433 57.0647 15.2343C56.8923 15.4254 56.6268 15.5235 56.2274 15.5235H55.8101V12.1894L55.8127 12.1909Z" fill="#757575"/>
<path d="M50.7628 15.5285V11.0881H49.4526V16.6321H53.4443V15.5285H50.7628Z" fill="#757575"/>
<path d="M47.3375 11.0881H47.2347V16.6321H48.5653V11.0881H47.3375Z" fill="#757575"/>
<path d="M15.6796 3.48224C15.214 2.21379 14.2814 1.17024 13.0717 0.564184C11.8621 -0.0418703 10.4664 -0.164819 9.16912 0.220387C7.87286 0.616058 6.83099 1.48394 6.23417 2.66395L3.18796 8.69387H3.1912L0.512805 14.0004C0.217829 14.5856 0.0460522 15.2249 0.00806011 15.8788C-0.029932 16.5328 0.066666 17.1876 0.291901 17.8029C0.74959 19.0749 1.68378 20.1201 2.89792 20.7187C3.63868 21.0918 4.45653 21.2871 5.28628 21.289C5.79975 21.2891 6.31037 21.2128 6.80129 21.0626C7.43107 20.8761 8.01607 20.5632 8.52046 20.1431C9.02485 19.723 9.438 19.2046 9.73462 18.6196L12.7819 12.5924H12.7787L15.4587 7.28908C15.7506 6.70212 15.9206 6.06235 15.9586 5.40817C15.9965 4.75399 15.9016 4.0989 15.6796 3.48224ZM9.01303 18.2552C8.7653 18.7426 8.42048 19.1745 7.99968 19.5243C7.57888 19.8741 7.09096 20.1346 6.5658 20.2896C5.46825 20.614 4.28815 20.5094 3.26502 19.9971C2.24188 19.4848 1.45236 18.6032 1.05669 17.5312C0.868322 17.0191 0.787004 16.4739 0.817751 15.9293C0.848497 15.3846 0.990656 14.852 1.23547 14.3642L3.91495 9.05828L11.6925 12.953L9.01303 18.2552ZM14.7733 6.84382L12.0544 12.2258L4.27898 8.33378L6.96062 3.02835C7.20842 2.54074 7.55339 2.10877 7.97439 1.75894C8.39539 1.40911 8.88355 1.14879 9.40893 0.993939C10.5062 0.670137 11.6858 0.774919 12.7085 1.28704C13.7312 1.79916 14.5205 2.68029 14.9164 3.75177C15.0997 4.25078 15.1814 4.78126 15.1569 5.31218C15.1323 5.8431 15.0019 6.3638 14.7733 6.84382Z" fill="#757575"/>
<path d="M13.3432 7.79812C13.8547 7.28632 14.203 6.63434 14.3441 5.9246C14.4851 5.21487 14.4126 4.47925 14.1356 3.81075C13.8586 3.14225 13.3896 2.57089 12.7879 2.1689C12.1862 1.76692 11.4788 1.55237 10.7552 1.55237C10.0316 1.55237 9.32425 1.76692 8.72256 2.1689C8.12088 2.57089 7.65189 3.14225 7.37489 3.81075C7.09789 4.47925 7.02533 5.21487 7.16637 5.9246C7.30741 6.63434 7.65572 7.28632 8.16727 7.79812C8.50706 8.13809 8.91051 8.40777 9.35456 8.59176C9.79861 8.77576 10.2746 8.87046 10.7552 8.87046C11.2359 8.87046 11.7118 8.77576 12.1559 8.59176C12.5999 8.40777 13.0034 8.13809 13.3432 7.79812Z" fill="#757575"/>
</svg>
