<svg width="89" height="16" viewBox="0 0 89 16" fill="none" xmlns="http://www.w3.org/2000/svg">
<path d="M8.25953 14.1987L7.18059 13.0869C7.09307 13.1601 6.88879 13.3407 6.78892 13.4018C6.35334 13.6881 5.83062 13.8194 5.30806 13.7739C4.7855 13.7283 4.29474 13.5086 3.91777 13.1514C3.5408 12.7942 3.30046 12.3213 3.23689 11.8115C3.17332 11.3017 3.29038 10.786 3.5685 10.3506V10.3488L4.08366 9.57716L5.71292 7.14037C5.93985 6.80047 6.0195 6.38618 5.93442 5.98875C5.84929 5.59132 5.60641 5.24325 5.25913 5.02112L2.2546 9.51854L2.22243 9.57423C2.17155 9.65626 2.12254 9.739 2.07802 9.82434C1.82298 10.3111 1.6794 10.8463 1.6573 11.3929C1.6352 11.9395 1.73512 12.4842 1.95007 12.9891C2.64705 14.6411 4.47199 15.5965 6.26178 15.2424C6.77098 15.1423 7.25442 14.9431 7.68341 14.6565C7.83158 14.5558 8.02423 14.3961 8.25953 14.1987Z" fill="#757575"/>
<path d="M2.12122 10.1647L2.86945 8.81673C2.77293 8.75703 2.53275 8.62338 2.44258 8.54905C2.02913 8.23224 1.73938 7.78602 1.62183 7.28514C1.50427 6.78421 1.56605 6.25898 1.79683 5.7973C2.0276 5.33567 2.41335 4.96561 2.88954 4.74909C3.36572 4.53256 3.90344 4.4827 4.41269 4.60786H4.41493L5.32403 4.84883L8.19277 5.61019C8.59324 5.71641 9.02035 5.66257 9.38028 5.46049C9.7402 5.25847 10.0034 4.92476 10.112 4.53279L4.81261 3.128L4.74864 3.11555C4.65361 3.09321 4.55784 3.07343 4.46094 3.05805C3.90924 2.97104 3.34479 3.00279 2.8069 3.1511C2.26901 3.29942 1.77062 3.56072 1.34642 3.91682C-0.0430467 5.07625 -0.407435 7.07065 0.489697 8.6274C0.743798 9.07059 1.08628 9.45923 1.49682 9.77034C1.64198 9.87656 1.85672 10.0065 2.12122 10.1647Z" fill="#757575"/>
<path d="M4.14429 3.20347L5.68491 3.48216C5.7126 3.37412 5.76832 3.10935 5.81286 3.00205C5.9931 2.51949 6.33718 2.11213 6.7875 1.84811C7.23782 1.58409 7.76707 1.47942 8.28679 1.55159C8.80652 1.62376 9.28514 1.86841 9.64268 2.24461C10.0002 2.62082 10.215 3.10578 10.251 3.61839V3.62095L10.2974 4.54161L10.4444 7.44747C10.4651 7.85303 10.6493 8.23398 10.9569 8.5066C11.2643 8.77916 11.6698 8.92099 12.0842 8.90099L11.8111 3.5349L11.8036 3.47154C11.7957 3.37596 11.7856 3.28074 11.7703 3.1859C11.6845 2.64546 11.4794 2.12982 11.1693 1.67489C10.8592 1.21996 10.4514 0.836677 9.97452 0.551737C8.41856 -0.383566 6.36842 -0.107442 5.13307 1.21092C4.78088 1.58441 4.50899 2.0234 4.33359 2.50181C4.27635 2.66844 4.21649 2.9083 4.14429 3.20347Z" fill="#757575"/>
<path d="M11.5327 2.93536L11.7382 4.45477C11.8504 4.44745 12.1261 4.41815 12.2439 4.42584C12.7684 4.44463 13.2703 4.63907 13.6658 4.97664C14.0613 5.31421 14.3265 5.77446 14.4169 6.28043C14.5074 6.78641 14.4177 7.3074 14.1627 7.75639C13.9078 8.20539 13.5032 8.55515 13.0165 8.74715H13.0146L12.1343 9.07675L9.35612 10.1116C9.16398 10.1832 8.98811 10.2912 8.83856 10.4293C8.68906 10.5674 8.56881 10.733 8.48473 10.9167C8.40065 11.1004 8.3544 11.2984 8.34853 11.4997C8.34271 11.7008 8.37744 11.9011 8.45078 12.0892L13.5807 10.1772L13.6398 10.1505C13.7303 10.1139 13.8197 10.0747 13.9069 10.0311C14.4056 9.7842 14.8433 9.43378 15.1894 9.00436C15.5355 8.57489 15.7818 8.07667 15.911 7.5445C16.339 5.8072 15.4363 3.98419 13.7756 3.24078C13.3038 3.02842 12.7933 2.91098 12.2742 2.89544C12.0935 2.89325 11.8417 2.91156 11.5327 2.93536Z" fill="#757575"/>
<path d="M14.0763 9.73116L12.6625 10.3904C12.7048 10.494 12.8186 10.7401 12.847 10.8525C12.9912 11.3467 12.9576 11.8743 12.7519 12.3471C12.5462 12.82 12.1809 13.2093 11.717 13.45C11.2531 13.6907 10.7188 13.7681 10.2036 13.6693C9.68837 13.5705 9.22343 13.3015 8.8866 12.9073V12.9055L8.29437 12.1891L6.43011 9.92266C6.16978 9.60678 5.79197 9.40497 5.37966 9.3616C4.96736 9.31827 4.55437 9.43696 4.23145 9.69163L7.67334 13.8767L7.71749 13.9239C7.78107 13.9971 7.84654 14.0678 7.91573 14.1356C8.30966 14.5237 8.78529 14.823 9.3095 15.0127C9.83371 15.2025 10.3939 15.2781 10.951 15.2342C12.7714 15.0958 14.2637 13.6917 14.4729 11.9164C14.5334 11.4115 14.4896 10.8999 14.3442 10.4119C14.2907 10.2409 14.1949 10.0117 14.0763 9.73116Z" fill="#757575"/>
<path d="M22.3056 12.6655V14.4811H21.3621V0.740295H22.3393V8.10941C23.0295 6.72139 24.3505 5.89671 25.8439 5.89671C28.2001 5.89671 29.8082 7.6397 29.8082 10.2839C29.8082 12.965 28.161 14.8399 25.7644 14.8399C25.0376 14.8312 24.328 14.6227 23.7165 14.2382C23.1049 13.8537 22.616 13.3088 22.3056 12.6655ZM28.7757 10.2905C28.7757 8.15294 27.5626 6.80315 25.6539 6.80315C23.7452 6.80315 22.2625 8.35881 22.284 10.4211C22.3056 12.4834 23.7007 13.9467 25.6161 13.9467C27.5316 13.9467 28.7797 12.5335 28.7797 10.2839L28.7757 10.2905Z" fill="#757575"/>
<path d="M36.2959 10.3593C36.2959 7.86551 38.2302 5.89691 40.8789 5.89691C43.5275 5.89691 45.4389 7.86551 45.4389 10.3593C45.4389 12.853 43.5033 14.8454 40.8789 14.8454C38.2545 14.8454 36.2959 12.853 36.2959 10.3593ZM44.3983 10.3593C44.3983 8.37089 42.8846 6.79674 40.8735 6.79674C38.8624 6.79674 37.3298 8.37089 37.3298 10.3593C37.3298 12.3477 38.8813 13.9403 40.8735 13.9403C42.8657 13.9403 44.3983 12.3701 44.3983 10.3593Z" fill="#757575"/>
<path d="M47.0984 13.0216L47.8721 12.5149L47.949 12.5334C48.4881 13.49 49.3468 13.9967 50.4197 13.9967C51.5883 13.9967 52.4308 13.3964 52.4308 12.5453C52.4308 11.8144 52.0264 11.3459 50.324 10.7456C47.9867 9.90247 47.4125 9.20841 47.4125 8.08292C47.4125 6.88353 48.5232 5.89001 50.2283 5.89001C51.5883 5.89001 52.6802 6.56423 53.1398 7.63301L52.4659 8.08292L52.3513 8.06443C51.9685 7.23981 51.1638 6.73313 50.1677 6.73313C49.1136 6.73313 48.4059 7.31501 48.4059 8.06443C48.4059 8.75849 48.7496 9.17013 50.723 9.90247C52.7732 10.6704 53.4189 11.3275 53.4189 12.5269C53.4189 13.8212 52.1545 14.8332 50.3725 14.8332C48.9181 14.8398 47.7117 14.1841 47.0984 13.0216Z" fill="#757575"/>
<path d="M54.9905 13.0216L55.7562 12.5149L55.8332 12.5334C56.3721 13.49 57.2307 13.9967 58.3036 13.9967C59.4723 13.9967 60.3148 13.3964 60.3148 12.5453C60.3148 11.8144 59.9104 11.3459 58.2077 10.7456C55.8708 9.90247 55.2965 9.20841 55.2965 8.08292C55.2965 6.88353 56.407 5.89001 58.1125 5.89001C59.4723 5.89001 60.564 6.56423 61.0238 7.63301L60.3497 8.08292L60.2339 8.06443C59.8512 7.23981 59.0463 6.73313 58.0515 6.73313C56.9975 6.73313 56.2885 7.31501 56.2885 8.06443C56.2885 8.75849 56.6336 9.17013 58.6071 9.90247C60.656 10.6704 61.3029 11.3275 61.3029 12.5269C61.3029 13.8212 60.0384 14.8332 58.2576 14.8332C56.8103 14.8398 55.6039 14.1841 54.9905 13.0216Z" fill="#757575"/>
<path d="M63.0354 10.3593C63.0354 7.86551 64.9696 5.89691 67.6184 5.89691C70.2671 5.89691 72.177 7.86551 72.177 10.3593C72.177 12.853 70.2427 14.8454 67.6184 14.8454C64.994 14.8454 63.0354 12.853 63.0354 10.3593ZM71.1378 10.3593C71.1378 8.37089 69.624 6.79674 67.6128 6.79674C65.6016 6.79674 64.069 8.37089 64.069 10.3593C64.069 12.3477 65.6204 13.9403 67.6128 13.9403C69.6052 13.9403 71.1378 12.3701 71.1378 10.3593Z" fill="#757575"/>
<path d="M88.0701 9.34592V14.4813H87.0969V9.85C87.0969 7.73094 86.3109 6.79413 84.7783 6.79413C83.2456 6.79413 81.9058 8.34974 81.9058 10.2629V14.4852H80.9287V9.8539C80.9287 7.7349 80.1444 6.79809 78.6117 6.79809C77.0791 6.79809 75.7569 8.3537 75.7569 10.2669V14.4892H74.7793V6.25313H75.7569V8.07133C76.4471 6.68331 77.5953 5.89691 78.9175 5.89691C80.4501 5.89691 81.4277 6.72153 81.7335 8.29699C82.4425 6.68331 83.7835 5.89691 85.0669 5.89691C86.939 5.89691 88.0701 7.07781 88.0701 9.34592Z" fill="#757575"/>
<path d="M35.3654 13.7555L35.3061 13.7793C34.6497 14.0432 34.1172 14.0537 33.7695 13.8228C33.4217 13.5919 33.2653 13.1631 33.2653 12.5033L33.3031 0.733887H32.3272L32.2881 12.6524C32.2881 13.5523 32.5577 14.1857 33.078 14.5366C33.4069 14.7425 33.7917 14.8464 34.1819 14.8348C34.6058 14.8282 35.0247 14.7454 35.418 14.5907L35.4531 14.5776L35.3654 13.7555Z" fill="#757575"/>
</svg>
