<svg width="85" height="21" viewBox="0 0 85 21" fill="none" xmlns="http://www.w3.org/2000/svg">
<path d="M21.0941 1.65714V9.30486H22.5721V1.65714C22.5719 1.59972 22.5835 1.54283 22.6062 1.48972C22.629 1.43662 22.6624 1.38835 22.7046 1.34768C22.7468 1.30701 22.797 1.27475 22.8522 1.25273C22.9074 1.23071 22.9666 1.21938 23.0264 1.21938H25.8687V0H17.8032V1.21386H20.6456C20.7662 1.21568 20.8811 1.26336 20.9652 1.34645C21.0493 1.42955 21.0957 1.54128 21.0941 1.65714Z" fill="#757575"/>
<path d="M31.1652 5.8732L32.3614 9.30486H33.8997L30.7828 0.397715C30.7422 0.282012 30.6649 0.181426 30.5618 0.11009C30.4586 0.0387537 30.3348 0.000253797 30.2077 0L28.4278 0C28.3009 0.000155928 28.1772 0.0384546 28.0741 0.109528C27.971 0.180602 27.8936 0.280889 27.8528 0.396334L24.7286 9.30486H26.254L27.4488 5.8732H31.1652ZM29.0216 1.36714C29.0425 1.30995 29.0815 1.2604 29.133 1.22535C29.1845 1.19031 29.246 1.17148 29.3092 1.17148C29.3723 1.17148 29.4338 1.19031 29.4853 1.22535C29.5368 1.2604 29.5758 1.30995 29.5967 1.36714L30.7382 4.65934H27.8628L29.0216 1.36714Z" fill="#757575"/>
<path d="M45.2876 9.30487V5.09505e-06H43.0405C42.9099 -0.000519912 42.7826 0.0395416 42.6777 0.114208C42.5728 0.188875 42.4958 0.294141 42.4582 0.414291L40.2111 7.84106C40.1931 7.90208 40.1549 7.95579 40.1022 7.99403C40.0495 8.03228 39.9853 8.05297 39.9193 8.05297C39.8532 8.05297 39.789 8.03228 39.7363 7.99403C39.6837 7.95579 39.6454 7.90208 39.6274 7.84106L37.3803 0.414291C37.3431 0.29527 37.2672 0.190822 37.1637 0.116264C37.0602 0.0417063 36.9346 0.00096161 36.8052 5.09505e-06H34.5049V9.30487H35.9742V1.54253C35.9749 1.50785 35.9884 1.47455 36.0123 1.44855C36.0362 1.42255 36.069 1.40555 36.1047 1.40057C36.1405 1.3956 36.1769 1.40297 36.2075 1.42138C36.2381 1.4398 36.2609 1.46805 36.2718 1.5011L38.7231 9.30487H41.0996L43.5437 1.50524C43.5547 1.47209 43.5776 1.44378 43.6084 1.42539C43.6391 1.407 43.6757 1.39973 43.7115 1.40488C43.7473 1.41003 43.7801 1.42727 43.8038 1.45351C43.8276 1.47975 43.8409 1.51326 43.8413 1.54805V9.30487H45.2876Z" fill="#757575"/>
<path d="M54.5809 0H53.1101V5.4382C53.1101 7.24586 52.5753 8.22358 50.5553 8.22358C48.5354 8.22358 48.0264 7.25691 48.0264 5.4382V0H46.5557V5.84696C46.5557 8.18353 47.8496 9.44987 50.5553 9.44987C53.2611 9.44987 54.5809 8.18353 54.5809 5.84696V0Z" fill="#757575"/>
<path d="M57.3026 7.64082V0H55.8318V8.43072C55.8316 8.54557 55.855 8.65932 55.9007 8.76546C55.9463 8.8716 56.0134 8.96803 56.0979 9.04924C56.1825 9.13045 56.2829 9.19483 56.3934 9.2387C56.5039 9.28256 56.6223 9.30505 56.7419 9.30486H62.1246V8.0772H57.7569C57.6972 8.07738 57.638 8.06622 57.5828 8.04435C57.5276 8.02249 57.4774 7.99035 57.4352 7.94979C57.393 7.90923 57.3595 7.86105 57.3368 7.80803C57.314 7.755 57.3024 7.69817 57.3026 7.64082Z" fill="#757575"/>
<path d="M23.4015 14.9571L20.6397 14.297C19.6649 14.0471 19.2925 13.6065 19.2925 13.0169C19.2925 12.1331 20.0114 11.7105 21.3269 11.7105C23.0521 11.7105 23.9234 12.401 23.9234 13.7819H25.4358C25.4358 11.7754 24.0341 10.5477 21.3269 10.5477C19.0453 10.5477 17.7959 11.4191 17.7959 13.0555C17.7959 14.1769 18.4141 15.0483 19.9524 15.4308L22.7703 16.1309C23.7868 16.3809 24.2397 16.896 24.2397 17.5423C24.2397 18.4937 23.5395 18.9688 21.9393 18.9688C19.8647 18.9688 18.8483 18.1761 18.8483 16.4831H17.356C17.356 18.8196 18.8814 20.1385 21.9178 20.1385C24.5833 20.1385 25.7378 19.1497 25.7378 17.4732C25.7378 16.2193 24.9686 15.3341 23.4015 14.9516" fill="#757575"/>
<path d="M26.6725 19.999H33.5849V18.781H28.1433V16.3712C28.1433 16.3138 28.1551 16.2569 28.178 16.2039C28.2009 16.1508 28.2345 16.1027 28.2768 16.0621C28.3192 16.0216 28.3694 15.9895 28.4247 15.9676C28.48 15.9458 28.5392 15.9346 28.599 15.9348H32.8977V14.7458H28.599C28.5391 14.746 28.4798 14.7348 28.4244 14.7129C28.369 14.6909 28.3187 14.6587 28.2763 14.618C28.234 14.5773 28.2004 14.529 28.1776 14.4758C28.1547 14.4226 28.1431 14.3656 28.1433 14.308V11.908H33.5849V10.6941H26.6725V19.999Z" fill="#757575"/>
<path d="M38.7923 11.7892C40.5176 11.7892 41.5958 12.7007 41.8115 14.2846H43.2952C43.0077 11.9743 41.3442 10.556 38.788 10.556C35.8608 10.556 34.1025 12.6275 34.1025 15.3466C34.1025 18.0657 35.8608 20.1509 38.788 20.1509C41.3442 20.1509 43.0062 18.7258 43.2952 16.403H41.8158C41.5958 17.9869 40.5219 18.9108 38.7966 18.9108C36.735 18.9108 35.6092 17.4981 35.6092 15.3466C35.6092 13.195 36.735 11.7961 38.7966 11.7961" fill="#757575"/>
<path d="M50.7322 16.1323C50.7322 17.94 50.1974 18.9177 48.1774 18.9177C46.1574 18.9177 45.6485 17.951 45.6485 16.1323V10.6941H44.1777V16.541C44.1777 18.8776 45.4717 20.144 48.1774 20.144C50.8832 20.144 52.203 18.8776 52.203 16.541V10.6941H50.7322V16.1323Z" fill="#757575"/>
<path d="M59.9392 15.5771C59.8544 15.5771 59.2793 15.6876 59.2793 15.6061C59.2793 15.4197 61.052 15.468 61.052 13.2281C61.052 11.1691 59.4173 10.6941 57.1702 10.6941H53.4537V19.999H54.9202V16.4085H59.6057V19.999H61.0764V16.6736C61.0764 16.0798 60.7961 15.5771 59.9363 15.5771M57.163 15.1905H54.9202V12.3457C54.9202 12.2296 54.9682 12.1183 55.0537 12.0362C55.1391 11.9541 55.2551 11.908 55.3759 11.908H57.163C58.6338 11.908 59.5812 12.0267 59.5812 13.5458C59.5812 15.0648 58.6582 15.1905 57.163 15.1905Z" fill="#757575"/>
<path d="M62.0284 11.908H63.7436C63.8645 11.908 63.9804 11.9541 64.0659 12.0362C64.1514 12.1183 64.1994 12.2296 64.1994 12.3457V18.3349C64.1994 18.3923 64.1876 18.4492 64.1646 18.5022C64.1417 18.5553 64.1081 18.6034 64.0658 18.644C64.0235 18.6845 63.9732 18.7166 63.9179 18.7385C63.8626 18.7603 63.8034 18.7715 63.7436 18.7713H62.0284V19.999H67.8411V18.7713H66.1259C66.0661 18.7715 66.0069 18.7603 65.9516 18.7385C65.8963 18.7166 65.846 18.6845 65.8037 18.644C65.7614 18.6034 65.7278 18.5553 65.7049 18.5022C65.6819 18.4492 65.6701 18.3923 65.6701 18.3349V12.3457C65.6701 12.2296 65.7182 12.1183 65.8036 12.0362C65.8891 11.9541 66.005 11.908 66.1259 11.908H67.8411V10.6941H62.0284V11.908Z" fill="#757575"/>
<path d="M81.3627 16.0039L84.3286 10.6941H83.0347C82.9511 10.6941 82.8691 10.7161 82.7976 10.7577C82.7261 10.7994 82.6679 10.859 82.6293 10.9302L80.05 15.7235L77.4751 10.9302C77.4368 10.859 77.3789 10.7993 77.3076 10.7577C77.2364 10.716 77.1545 10.694 77.0711 10.6941H68.6246V11.908H71.467C71.5267 11.908 71.5859 11.9193 71.6412 11.9413C71.6964 11.9633 71.7465 11.9956 71.7887 12.0363C71.8309 12.0769 71.8644 12.1252 71.8871 12.1783C71.9099 12.2314 71.9215 12.2883 71.9213 12.3457V19.999H73.392V12.3457C73.392 12.2296 73.4401 12.1183 73.5255 12.0362C73.611 11.9541 73.7269 11.908 73.8478 11.908H76.1984C76.2809 11.9082 76.3618 11.9298 76.4324 11.9707C76.503 12.0115 76.5608 12.07 76.5996 12.14L78.7475 16.0066C78.7678 16.0413 78.7954 16.0715 78.8286 16.0953C78.8618 16.1191 78.8998 16.1359 78.9401 16.1447C79.1472 16.1944 79.3283 16.2704 79.3283 16.472V19.9976H80.7847V16.4734C80.7847 16.2704 80.9658 16.1972 81.1729 16.1461C81.213 16.1371 81.2507 16.1202 81.2837 16.0964C81.3166 16.0726 81.344 16.0425 81.3641 16.008" fill="#757575"/>
<path d="M2.91566 16.9553H12.3513L15.2669 8.33541L7.63419 3.00769L0 8.33541L2.91566 16.9553ZM1.10703 9.68322C1.20192 9.73294 1.30687 9.78265 1.42189 9.8296C1.54627 9.88203 1.67344 9.92813 1.80288 9.9677C2.6655 10.2273 3.67189 10.2646 4.82205 10.0809C4.98019 10.0561 5.13978 10.0257 5.30368 9.99256C5.42732 9.9677 5.55384 9.9387 5.68035 9.90832C5.80687 9.87794 5.97796 9.83513 6.13035 9.7937L6.25543 9.75779L6.46965 9.69013L6.58323 9.83927L6.67812 9.96494L6.34745 10.0644C6.20368 10.1072 6.05991 10.1458 5.91614 10.1831C5.77237 10.2204 5.67316 10.2439 5.55527 10.2715C5.39713 10.3088 5.24473 10.3419 5.09665 10.3709C3.01342 10.7852 1.80575 10.5311 1.34425 10.3847L1.10703 9.68322ZM1.58147 11.0863C2.20256 11.1705 3.42748 11.2037 5.40863 10.7286L5.84713 10.6195L6.19505 10.5242C6.33882 10.4856 6.47396 10.4441 6.61773 10.4013L6.86933 10.324L6.9369 10.3033L7.13243 10.5615L6.8147 10.6609L6.63067 10.7176L6.5861 10.7314L6.40208 10.7894L6.24824 10.8377L6.06566 10.8943L5.83994 10.9647L5.78962 10.9813L5.64585 11.0241C2.89697 11.8637 1.77125 11.6594 1.77125 11.6594L1.58147 11.0863ZM1.95527 12.191C2.22539 12.1998 2.49581 12.1911 2.7647 12.1648C2.87684 12.1537 2.99329 12.1413 3.11118 12.1261C3.00623 12.1814 2.90559 12.2366 2.80783 12.2918C2.57401 12.4226 2.34969 12.5683 2.13642 12.7282L1.95527 12.191ZM2.31901 13.2613C2.31901 13.2613 3.10399 12.4603 5.84138 11.5876C5.84138 11.7091 5.84138 11.8347 5.82844 11.9632C3.93499 12.7047 2.9631 13.4187 2.5131 13.8371L2.31901 13.2613ZM2.75032 14.5359C3.03786 14.1575 3.85304 13.2682 5.79393 12.4286C5.78243 12.5584 5.76661 12.6909 5.74792 12.8235C4.70703 13.322 3.91198 13.9283 3.37716 14.6188C3.22625 14.8125 3.09574 15.0202 2.98754 15.2388L2.75032 14.5359ZM3.9278 16.3574H3.36566L3.19313 15.845C3.23427 15.6959 3.28962 15.5508 3.35847 15.4114C3.46207 15.2041 3.58731 15.0075 3.73227 14.8245C4.22684 14.1948 4.93131 13.699 5.66741 13.3137C5.51502 14.1064 5.2361 14.9032 4.77173 15.5495C4.54779 15.869 4.26113 16.1434 3.9278 16.3574ZM4.59201 16.3574C4.67722 16.2803 4.75832 16.1992 4.83499 16.1143C4.92382 16.0168 5.00732 15.915 5.08514 15.8091C5.60847 15.1062 5.95783 14.1948 6.13035 13.09C6.15479 12.9367 6.17492 12.7821 6.19217 12.6219C6.20511 12.5004 6.21662 12.3761 6.22524 12.2504C6.23387 12.1247 6.24393 11.9563 6.24968 11.8057C6.24968 11.7629 6.24968 11.7215 6.24968 11.6787C6.24968 11.6055 6.24968 11.5323 6.24968 11.4577L6.43227 11.4011L6.5861 11.3528C6.5861 11.466 6.5861 11.5765 6.5861 11.6842C6.5861 11.8334 6.57748 11.9784 6.57029 12.1192C6.5631 12.2601 6.55591 12.3609 6.54585 12.4769C6.53435 12.6316 6.51997 12.7821 6.50272 12.9257C6.27269 14.9585 5.6401 15.9818 5.35256 16.3574H4.59201ZM6.75575 16.3574H6.12892C6.40352 15.816 6.8147 14.7002 6.95703 12.7503C6.96709 12.6122 6.97572 12.4658 6.98291 12.3181C6.98291 12.2048 6.99297 12.0875 6.99729 11.9687C7.0016 11.8499 6.99729 11.6925 7.00591 11.5461C7.00591 11.4619 7.00591 11.3777 7.00591 11.292V11.2271L7.32221 11.1277V12.6247C7.30495 15.3948 6.75719 16.3601 6.75719 16.3601M7.3409 16.3601C7.43387 16.1165 7.50882 15.8668 7.56518 15.613C7.58962 15.5067 7.61262 15.3962 7.63563 15.2844C7.65719 15.3962 7.68019 15.5067 7.70463 15.613C7.76168 15.8667 7.83661 16.1163 7.92892 16.3601H7.3409ZM8.51262 16.3601C8.51262 16.3601 7.96342 15.3935 7.93754 12.6316C8.05831 12.6716 8.18051 12.7144 8.30559 12.76C8.44936 14.7168 8.85911 15.8257 9.13371 16.367L8.51262 16.3601ZM9.90863 16.3601C9.62109 15.9845 8.99425 14.9598 8.75847 12.9285C8.88355 12.9796 9.00863 13.0348 9.13515 13.0928C9.30767 14.1976 9.65703 15.109 10.1804 15.8119C10.3247 16.0113 10.4894 16.1963 10.672 16.3643L9.90863 16.3601ZM10.9639 16.0743C10.7893 15.9163 10.6323 15.7414 10.4952 15.5523C10.0251 14.906 9.75192 14.1092 9.59952 13.3179C10.3356 13.7018 11.0372 14.1976 11.5347 14.8273C11.7835 15.1299 11.9676 15.4767 12.0767 15.8478L11.9027 16.3601H11.342C11.2074 16.2758 11.0809 16.1801 10.9639 16.0743ZM12.2823 15.2457C12.2324 15.1441 12.1772 15.045 12.1169 14.9488C12.0527 14.8457 11.978 14.738 11.8927 14.6257C11.3564 13.9352 10.5628 13.3303 9.52189 12.8304C9.37812 12.76 9.23435 12.6923 9.07764 12.6288C8.96071 12.5791 8.84138 12.533 8.71965 12.4907C8.57588 12.4355 8.43211 12.3816 8.28834 12.3305L8.1647 12.2877L7.94617 12.2159V11.8651C8.05831 11.8997 8.16757 11.9356 8.27396 11.9715L8.69809 12.1206L9.04601 12.2587C9.19553 12.3176 9.3393 12.377 9.47732 12.4368C11.4168 13.2765 12.2377 14.1644 12.5209 14.5442L12.2823 15.2457ZM12.7567 13.8427C12.3053 13.4284 11.3348 12.7061 9.44138 11.9715C9.30623 11.919 9.16534 11.8665 9.02013 11.814C8.90943 11.774 8.79585 11.7326 8.6794 11.6925C8.56294 11.6525 8.40623 11.6 8.2639 11.5544C8.18195 11.5268 8.09713 11.5006 8.0123 11.4743L7.94473 11.4536V11.1277L8.26246 11.2271L8.44649 11.2837L8.49106 11.2976L8.67508 11.3556L8.82892 11.4039L9.01294 11.4605L9.23866 11.5309L9.28754 11.5461L9.43131 11.5903C12.1629 12.4631 12.9537 13.264 12.9537 13.264L12.7567 13.8427ZM13.132 12.7379C12.9194 12.5738 12.695 12.4243 12.4605 12.2905C12.3628 12.2352 12.2607 12.18 12.1558 12.1247C12.2751 12.1399 12.3901 12.1524 12.5037 12.1634C12.7721 12.189 13.042 12.1977 13.3117 12.1897L13.132 12.7379ZM13.4928 11.6663C13.4928 11.6663 12.3642 11.8637 9.61821 11.0241C9.69441 10.9275 9.77492 10.828 9.85831 10.7286C11.8395 11.2037 13.0644 11.1705 13.6855 11.0863L13.4928 11.6663ZM13.9241 10.3917C13.4626 10.538 12.255 10.7949 10.1717 10.3778C10.2609 10.2798 10.3543 10.1817 10.4492 10.0851C11.5994 10.2687 12.6058 10.2315 13.4684 9.97046C13.7088 9.90078 13.9414 9.80826 14.1628 9.69427L13.9241 10.3917ZM14.0895 8.24703L14.5395 8.56189L14.3655 9.07422C14.2409 9.17167 14.1071 9.25767 13.9658 9.33108C13.756 9.44081 13.5348 9.52921 13.3059 9.59484C12.5195 9.82546 11.6454 9.8296 10.8144 9.72327C11.4225 9.17089 12.1313 8.67927 12.9077 8.42241C13.2856 8.28914 13.6873 8.22952 14.0895 8.24703ZM13.5474 7.87141C13.4396 7.88522 13.3246 7.90455 13.2024 7.93079C13.0802 7.95703 12.9494 7.99293 12.8128 8.03712C11.9602 8.31331 11.1192 8.85051 10.3026 9.64732C10.1904 9.75779 10.0783 9.87241 9.96758 9.99117C9.88227 10.0832 9.79745 10.1753 9.7131 10.2674C9.61534 10.3792 9.51757 10.4952 9.42556 10.614L9.34505 10.7134C9.29761 10.7714 9.2516 10.8308 9.20128 10.8902L9.01869 10.8336L8.86342 10.7852C8.93243 10.6932 9.00144 10.6048 9.07045 10.5201C9.1639 10.4013 9.25735 10.2881 9.34936 10.1776C9.44138 10.0671 9.50895 9.98979 9.58802 9.90141C9.69297 9.78265 9.79649 9.66941 9.89713 9.5617C11.3348 8.04265 12.462 7.5745 12.9235 7.43365L13.5474 7.87141ZM12.3038 7.00417C11.7503 7.28036 10.7396 7.95289 9.42844 9.45536C9.33499 9.56308 9.23866 9.67494 9.1409 9.79094L8.91662 10.0671C8.82892 10.1762 8.73978 10.2895 8.65064 10.4055C8.59745 10.4717 8.54569 10.5436 8.49393 10.6098C8.48099 10.6264 8.46662 10.6444 8.45224 10.6651L8.13595 10.5657L8.33866 10.3033L8.45224 10.1514L8.47956 10.1155L8.59457 9.96494L8.68802 9.83927L8.8016 9.69013L8.94537 9.50508L8.977 9.46503L9.06326 9.35041C10.7612 7.12017 11.7963 6.64927 11.7963 6.64927L12.3038 7.00417ZM10.5786 6.71969C10.688 6.4821 10.7802 6.23755 10.8546 5.98779L11.3305 6.31922C11.1065 6.46461 10.8932 6.62472 10.6922 6.79841C10.6074 6.87022 10.5211 6.94479 10.4334 7.02488C10.4851 6.92131 10.534 6.81912 10.5772 6.71969M10.3759 5.66188C10.3759 5.66188 10.2321 6.75284 8.54856 9.00379C8.47668 8.90436 8.40479 8.80079 8.33003 8.69308C9.41262 7.03593 9.75911 5.90079 9.86837 5.30836L10.3759 5.66188ZM9.24729 4.87474C9.24729 5.34012 9.13083 6.52222 8.07412 8.29674C8.00368 8.18489 7.93035 8.07027 7.86997 7.95289C8.40623 6.95998 8.68083 6.01955 8.68946 5.16198C8.69271 4.91846 8.67152 4.67521 8.6262 4.4356L9.24729 4.87474ZM7.17987 4.06136L7.63419 3.74374L8.08706 4.05998C8.21901 4.3999 8.28338 4.76058 8.27684 5.12331V5.19098C8.26102 5.9795 7.9893 6.77908 7.63419 7.50546C7.27189 6.77908 7.00591 5.9795 6.99154 5.19098C6.97689 4.80624 7.04088 4.42247 7.17987 4.06136ZM6.64217 4.43698C6.59769 4.66462 6.57603 4.89584 6.57748 5.12745V5.16336C6.5861 6.02784 6.86502 6.9586 7.39697 7.95427C7.47173 8.09236 7.54936 8.23046 7.63275 8.36855C7.69745 8.47351 7.76358 8.57984 7.83403 8.68755C7.90448 8.79527 7.99793 8.93613 8.08706 9.06179L8.16182 9.16674L8.29265 9.34765L8.18051 9.49679L8.08419 9.62246C8.01518 9.52994 7.94904 9.44017 7.88578 9.34627C7.79665 9.22474 7.71326 9.1046 7.63275 8.98722C7.55224 8.86984 7.49761 8.78284 7.43291 8.68341C7.34809 8.54531 7.26757 8.42241 7.19281 8.29536C6.1361 6.52084 6.01821 5.33874 6.01965 4.87336L6.64217 4.43698ZM5.39856 5.30422C5.50783 5.89665 5.85431 7.02627 6.93547 8.68893C7.0131 8.8077 7.09505 8.9306 7.17987 9.05489C7.24457 9.15017 7.31214 9.24684 7.38115 9.34489C7.45016 9.44293 7.54649 9.57413 7.63275 9.69151L7.78802 9.89865L7.82971 9.95251L7.63419 10.219L7.43722 9.95941L7.32364 9.80475L7.29633 9.76884L7.1885 9.61417L7.09361 9.48989L6.98003 9.33936L6.83626 9.1557L6.80463 9.11427C6.77588 9.0756 6.74713 9.03832 6.71981 8.99965C5.03195 6.74869 4.88818 5.66188 4.88818 5.66188L5.39856 5.30422ZM4.41805 5.98641C4.49247 6.23617 4.58471 6.48072 4.69409 6.71831C4.73866 6.81774 4.78754 6.91993 4.83786 7.0235C4.75016 6.94341 4.66534 6.86884 4.57907 6.79703C4.37768 6.62378 4.16442 6.46369 3.94074 6.31784L4.41805 5.98641ZM3.47061 6.64927C3.47061 6.64927 4.50575 7.12017 6.21518 9.35041C6.09441 9.38632 5.96933 9.42084 5.83994 9.45398C4.52732 7.95151 3.51661 7.28588 2.96454 7.00279L3.47061 6.64927ZM2.34201 7.43779C2.80352 7.57589 3.93786 8.0537 5.36837 9.56722C5.2361 9.59622 5.10096 9.62246 4.96438 9.64732C4.14776 8.85051 3.30671 8.31055 2.45415 8.03574C2.21715 7.95892 1.97308 7.90389 1.72524 7.87141L2.34201 7.43779ZM1.18179 8.24703C1.22348 8.24703 1.26949 8.24703 1.32556 8.24703C1.67793 8.25071 2.02723 8.31044 2.35927 8.42379C3.13562 8.68065 3.84441 9.17089 4.45256 9.72603C3.62157 9.83098 2.74888 9.82684 1.96246 9.5976C1.5767 9.49181 1.21624 9.31447 0.901438 9.0756L0.728914 8.56189L1.18179 8.24703Z" fill="#757575"/>
</svg>
