<svg width="79" height="16" viewBox="0 0 79 16" fill="none" xmlns="http://www.w3.org/2000/svg">
<path d="M1.248 15.68C0.874667 15.68 0.570667 15.5573 0.336 15.312C0.112 15.0773 0 14.7787 0 14.416V1.264C0 0.901334 0.112 0.602667 0.336 0.368C0.570667 0.122667 0.874667 0 1.248 0H3.728V1.104H1.648C1.36 1.104 1.216 1.264 1.216 1.584V14.096C1.216 14.416 1.36 14.576 1.648 14.576H3.728V15.68H1.248Z" fill="#222222"/>
<path d="M8.51138 12.144C7.54071 12.144 6.71937 11.92 6.04737 11.472C5.38604 11.024 4.98604 10.3147 4.84737 9.344L6.04737 9.072C6.13271 9.584 6.29271 9.98933 6.52738 10.288C6.76204 10.576 7.05004 10.784 7.39138 10.912C7.74338 11.0293 8.11671 11.088 8.51138 11.088C9.09804 11.088 9.56204 10.9707 9.90338 10.736C10.2447 10.5013 10.4154 10.1867 10.4154 9.792C10.4154 9.38667 10.25 9.104 9.91938 8.944C9.59938 8.77333 9.15671 8.63467 8.59138 8.528L7.93538 8.416C7.43404 8.33067 6.97537 8.19733 6.55937 8.016C6.14337 7.83467 5.81271 7.58933 5.56738 7.28C5.32204 6.97067 5.19938 6.58133 5.19938 6.112C5.19938 5.408 5.47138 4.85867 6.01538 4.464C6.55938 4.06933 7.27938 3.872 8.17537 3.872C9.06071 3.872 9.77538 4.07467 10.3194 4.48C10.874 4.87467 11.2314 5.43467 11.3914 6.16L10.2074 6.464C10.1114 5.89867 9.88204 5.504 9.51937 5.28C9.15671 5.04533 8.70871 4.928 8.17537 4.928C7.64204 4.928 7.22071 5.02933 6.91138 5.232C6.60204 5.424 6.44738 5.712 6.44738 6.096C6.44738 6.46933 6.59138 6.74667 6.87937 6.928C7.17804 7.09867 7.57271 7.22667 8.06338 7.312L8.71938 7.424C9.27404 7.52 9.77004 7.65333 10.2074 7.824C10.6554 7.984 11.0074 8.21867 11.2634 8.528C11.53 8.83733 11.6634 9.24267 11.6634 9.744C11.6634 10.512 11.3754 11.104 10.7994 11.52C10.234 11.936 9.47138 12.144 8.51138 12.144Z" fill="#FAFAFA"/>
<path d="M17.4129 12.144C16.6235 12.144 15.9249 11.9787 15.3169 11.648C14.7195 11.3173 14.2502 10.8533 13.9089 10.256C13.5782 9.648 13.4129 8.93333 13.4129 8.112V7.904C13.4129 7.09333 13.5782 6.384 13.9089 5.776C14.2502 5.168 14.7195 4.69867 15.3169 4.368C15.9249 4.03733 16.6235 3.872 17.4129 3.872C18.2022 3.872 18.8955 4.03733 19.4929 4.368C20.1009 4.69867 20.5702 5.168 20.9009 5.776C21.2422 6.384 21.4129 7.09333 21.4129 7.904V8.112C21.4129 8.93333 21.2422 9.648 20.9009 10.256C20.5702 10.8533 20.1009 11.3173 19.4929 11.648C18.8955 11.9787 18.2022 12.144 17.4129 12.144ZM17.4129 11.008C18.2449 11.008 18.9062 10.7467 19.3969 10.224C19.8982 9.69067 20.1489 8.976 20.1489 8.08V7.936C20.1489 7.04 19.8982 6.33067 19.3969 5.808C18.9062 5.27467 18.2449 5.008 17.4129 5.008C16.5915 5.008 15.9302 5.27467 15.4289 5.808C14.9275 6.33067 14.6769 7.04 14.6769 7.936V8.08C14.6769 8.976 14.9275 9.69067 15.4289 10.224C15.9302 10.7467 16.5915 11.008 17.4129 11.008Z" fill="#FAFAFA"/>
<path d="M24.8954 11.92V5.2H22.4954V4.096H24.8954V2.096C24.8954 1.66933 25.0127 1.33333 25.2474 1.088C25.4927 0.842667 25.8394 0.72 26.2874 0.72H28.2074V1.808H26.6394C26.3194 1.808 26.1594 1.968 26.1594 2.288V4.096H30.0474V5.2H26.1594V11.92H24.8954ZM30.0474 11.92V4.096H31.3114V11.92H30.0474ZM30.6714 2.896C30.4047 2.896 30.1754 2.80533 29.9834 2.624C29.802 2.44267 29.7114 2.21333 29.7114 1.936C29.7114 1.648 29.802 1.41867 29.9834 1.248C30.1754 1.06667 30.4047 0.976001 30.6714 0.976001C30.9594 0.976001 31.194 1.06667 31.3754 1.248C31.5567 1.41867 31.6474 1.648 31.6474 1.936C31.6474 2.21333 31.5567 2.44267 31.3754 2.624C31.194 2.80533 30.9594 2.896 30.6714 2.896Z" fill="#FAFAFA"/>
<path d="M35.9528 11.92L33.1527 4.096H34.4967L36.8488 10.976H37.0728L39.4248 4.096H40.7687L37.9688 11.92H35.9528Z" fill="#FAFAFA"/>
<path d="M45.8496 12.144C45.0603 12.144 44.367 11.9787 43.7696 11.648C43.1723 11.3067 42.7083 10.832 42.3776 10.224C42.047 9.616 41.8816 8.912 41.8816 8.112V7.92C41.8816 7.10933 42.047 6.4 42.3776 5.792C42.7083 5.184 43.167 4.71467 43.7536 4.384C44.3403 4.04267 45.0123 3.872 45.7696 3.872C46.5056 3.872 47.1563 4.032 47.7216 4.352C48.287 4.66133 48.7296 5.10933 49.0496 5.696C49.3696 6.28267 49.5296 6.97067 49.5296 7.76V8.336H43.1456C43.1776 9.17867 43.4496 9.84 43.9616 10.32C44.4736 10.7893 45.1136 11.024 45.8816 11.024C46.5536 11.024 47.071 10.8693 47.4336 10.56C47.7963 10.2507 48.0736 9.88267 48.2656 9.456L49.3536 9.984C49.1936 10.3147 48.9696 10.6453 48.6816 10.976C48.4043 11.3067 48.0363 11.584 47.5776 11.808C47.1296 12.032 46.5536 12.144 45.8496 12.144ZM43.1616 7.296H48.2496C48.207 6.57067 47.9563 6.00533 47.4976 5.6C47.0496 5.19467 46.4736 4.992 45.7696 4.992C45.055 4.992 44.4683 5.19467 44.0096 5.6C43.551 6.00533 43.2683 6.57067 43.1616 7.296Z" fill="#FAFAFA"/>
<path d="M51.7344 11.92V4.096H52.9664V5.056H53.1904C53.329 4.71467 53.5424 4.464 53.8304 4.304C54.1184 4.144 54.497 4.064 54.9664 4.064H55.8944V5.216H54.8864C54.321 5.216 53.8624 5.376 53.5104 5.696C53.169 6.00533 52.9984 6.49067 52.9984 7.152V11.92H51.7344Z" fill="#FAFAFA"/>
<path d="M60.7614 12.144C59.7907 12.144 58.9694 11.92 58.2974 11.472C57.636 11.024 57.236 10.3147 57.0974 9.344L58.2974 9.072C58.3827 9.584 58.5427 9.98933 58.7774 10.288C59.012 10.576 59.3 10.784 59.6414 10.912C59.9934 11.0293 60.3667 11.088 60.7614 11.088C61.348 11.088 61.812 10.9707 62.1534 10.736C62.4947 10.5013 62.6654 10.1867 62.6654 9.792C62.6654 9.38667 62.5 9.104 62.1694 8.944C61.8494 8.77333 61.4067 8.63467 60.8414 8.528L60.1854 8.416C59.684 8.33067 59.2254 8.19733 58.8094 8.016C58.3934 7.83467 58.0627 7.58933 57.8174 7.28C57.572 6.97067 57.4494 6.58133 57.4494 6.112C57.4494 5.408 57.7214 4.85867 58.2654 4.464C58.8094 4.06933 59.5294 3.872 60.4254 3.872C61.3107 3.872 62.0254 4.07467 62.5694 4.48C63.124 4.87467 63.4814 5.43467 63.6414 6.16L62.4574 6.464C62.3614 5.89867 62.132 5.504 61.7694 5.28C61.4067 5.04533 60.9587 4.928 60.4254 4.928C59.892 4.928 59.4707 5.02933 59.1614 5.232C58.852 5.424 58.6974 5.712 58.6974 6.096C58.6974 6.46933 58.8414 6.74667 59.1294 6.928C59.428 7.09867 59.8227 7.22667 60.3134 7.312L60.9694 7.424C61.524 7.52 62.02 7.65333 62.4574 7.824C62.9054 7.984 63.2574 8.21867 63.5134 8.528C63.78 8.83733 63.9134 9.24267 63.9134 9.744C63.9134 10.512 63.6254 11.104 63.0494 11.52C62.484 11.936 61.7214 12.144 60.7614 12.144Z" fill="#FAFAFA"/>
<path d="M69.6309 12.144C68.8415 12.144 68.1482 11.9787 67.5509 11.648C66.9535 11.3067 66.4895 10.832 66.1589 10.224C65.8282 9.616 65.6629 8.912 65.6629 8.112V7.92C65.6629 7.10933 65.8282 6.4 66.1589 5.792C66.4895 5.184 66.9482 4.71467 67.5349 4.384C68.1215 4.04267 68.7935 3.872 69.5509 3.872C70.2869 3.872 70.9375 4.032 71.5029 4.352C72.0682 4.66133 72.5109 5.10933 72.8309 5.696C73.1509 6.28267 73.3109 6.97067 73.3109 7.76V8.336H66.9269C66.9589 9.17867 67.2309 9.84 67.7429 10.32C68.2549 10.7893 68.8949 11.024 69.6629 11.024C70.3349 11.024 70.8522 10.8693 71.2149 10.56C71.5775 10.2507 71.8549 9.88267 72.0469 9.456L73.1349 9.984C72.9749 10.3147 72.7509 10.6453 72.4629 10.976C72.1855 11.3067 71.8175 11.584 71.3589 11.808C70.9109 12.032 70.3349 12.144 69.6309 12.144ZM66.9429 7.296H72.0309C71.9882 6.57067 71.7375 6.00533 71.2789 5.6C70.8309 5.19467 70.2549 4.992 69.5509 4.992C68.8362 4.992 68.2495 5.19467 67.7909 5.6C67.3322 6.00533 67.0495 6.57067 66.9429 7.296Z" fill="#FAFAFA"/>
<path d="M74.3979 15.68V14.576H76.4779C76.7659 14.576 76.9099 14.416 76.9099 14.096V1.584C76.9099 1.264 76.7659 1.104 76.4779 1.104H74.3979V0H76.8939C77.2565 0 77.5499 0.122667 77.7739 0.368C78.0085 0.602667 78.1259 0.901334 78.1259 1.264V14.416C78.1259 14.7787 78.0085 15.0773 77.7739 15.312C77.5499 15.5573 77.2565 15.68 76.8939 15.68H74.3979Z" fill="#222222"/>
</svg>
