<svg width="80" height="20" viewBox="0 0 80 20" fill="none" xmlns="http://www.w3.org/2000/svg">
<path d="M77.7386 3.37596C78.2929 3.3463 78.9982 3.36637 79.5633 3.36728L79.5688 13.3879C79.0196 13.4061 78.4241 13.39 77.8605 13.4032C77.8589 13.0796 77.864 12.9353 77.9149 12.6174C77.068 13.7192 75.9338 13.667 74.7039 13.3914C74.5022 13.3008 74.2761 13.196 74.094 13.072C73.3649 12.581 72.8652 11.8171 72.7064 10.9529C72.3635 9.13481 73.1719 7.09026 75.1647 6.77073C76.295 6.58947 76.8481 6.7907 77.7484 7.41178C77.7382 7.20751 77.7316 6.9973 77.7355 6.79291C77.7573 5.66248 77.6962 4.50367 77.7386 3.37596ZM76.4881 11.8915C77.0571 11.7401 77.2268 11.3068 77.5896 11.0845C78.0971 9.74402 77.5168 8.20957 75.8552 8.35885C75.5738 8.45061 75.32 8.52225 75.0993 8.7269C73.8487 9.88797 74.5914 12.2172 76.4881 11.8915Z" fill="#757575"/>
<path d="M39.9082 6.73256C40.9299 6.69641 41.6881 6.8286 42.4634 7.54806C43.8475 8.8324 43.888 11.2445 42.611 12.6082C42.0442 13.2035 41.2646 13.55 40.443 13.5717C39.6564 13.5958 38.9768 13.3579 38.4042 12.819C38.4224 13.1592 38.4185 13.5884 38.4242 13.9352L38.4274 15.7859C37.8125 15.7797 37.1974 15.7784 36.5824 15.7819C36.6343 14.6956 36.5922 13.3237 36.5915 12.2067C36.5986 10.4285 36.5967 8.65028 36.5858 6.87207C37.141 6.86133 37.7109 6.86615 38.2673 6.86464C38.2782 7.1084 38.2645 7.39567 38.2579 7.64332C38.2829 7.60577 38.3082 7.56841 38.3337 7.53129C38.738 6.94632 39.2442 6.85323 39.9082 6.73256ZM40.4009 11.8793C41.8138 11.4776 42.1556 9.26428 40.7925 8.53669C40.485 8.37259 40.1012 8.29612 39.756 8.35729C39.2442 8.48703 38.9561 8.61347 38.6456 9.09695C38.3841 9.50423 38.3381 10.3055 38.4618 10.7713C38.564 11.1623 38.8188 11.496 39.1691 11.6979C39.57 11.928 39.9553 11.957 40.4009 11.8793Z" fill="#757575"/>
<path d="M47.0425 6.72811C48.3623 6.70826 49.3794 6.88221 50.1613 8.1018C50.693 8.9305 50.7541 9.80083 50.542 10.7501C50.0761 10.7759 49.4241 10.7569 48.9462 10.7567L45.9414 10.7636C46.3314 12.0026 47.587 12.2494 48.687 11.8175C48.9676 11.7073 49.2848 11.486 49.5405 11.3226C49.632 11.4532 49.7223 11.5845 49.8118 11.7163C50.0084 11.9962 50.0983 12.2612 50.3384 12.566C49.7141 13.0696 49.3268 13.2962 48.5344 13.4781C45.377 14.2026 42.921 10.9805 44.6476 8.18392C45.2256 7.24782 45.9998 6.94743 47.0425 6.72811ZM45.9461 9.48935C46.4878 9.48387 47.0296 9.48208 47.5718 9.48394L48.8913 9.47931C48.7029 8.6935 48.3238 8.12535 47.4212 8.16438C46.6186 8.3249 46.1504 8.65303 45.9461 9.48935Z" fill="#757575"/>
<path d="M63.0314 6.87114C63.6441 6.86686 64.2567 6.86729 64.8693 6.87243C64.9083 8.18218 64.8565 9.48992 64.8775 10.8107C64.8872 11.4355 65.4606 11.9417 66.0965 11.9254C66.515 11.9145 67.1545 11.4289 67.2202 10.9914C67.3031 10.4399 67.2451 9.76742 67.2611 9.20086C67.2479 8.45218 67.3008 7.61488 67.2296 6.8718C67.8333 6.85581 68.4973 6.87048 69.1056 6.87149C69.1068 7.38357 69.1049 7.89569 69.0998 8.40777L69.1056 9.96888C69.1087 11.0907 69.0994 11.8324 68.2731 12.69C67.1412 13.8644 65.0328 13.8492 63.8893 12.724C63.5394 12.3809 63.2891 11.9494 63.1653 11.4755C62.9579 10.7092 63.0384 7.84195 63.0314 6.87114Z" fill="#757575"/>
<path d="M29.7898 6.87072L31.6103 6.86823C31.6329 7.82125 31.6008 8.79638 31.6111 9.75205C31.6444 10.1235 31.5505 10.7013 31.64 11.0477C31.8783 11.9712 32.9932 12.1857 33.6286 11.5293C34.1425 10.9985 33.9975 10.0866 33.9958 9.41489L33.9885 6.86838L35.8505 6.87352C35.8744 7.36061 35.8489 8.04886 35.8445 8.54479C35.8501 9.9669 36.0887 11.6178 35.0093 12.6905C33.8275 13.865 31.7886 13.8574 30.5979 12.7075C29.6144 11.7576 29.7816 10.4323 29.7868 9.18985L29.7898 6.87072Z" fill="#757575"/>
<path d="M58.1373 3.38133C58.3159 3.35189 59.3847 3.3618 59.6019 3.36196C59.6529 3.77351 59.6327 4.53897 59.6307 4.96676L59.5233 4.96622C57.8672 4.96166 57.9952 5.40245 58.0069 6.86686L59.6054 6.86884C59.6451 7.27126 59.6381 7.9892 59.6237 8.39298C59.087 8.38426 58.5503 8.38773 58.0139 8.40341C57.9902 9.64094 58.0085 10.9314 58.0085 12.1729C58.0151 12.5797 58.0264 12.9936 58.0159 13.3998C57.4001 13.391 56.7844 13.3884 56.1682 13.3922C56.2636 11.4799 56.1347 9.51505 56.1896 7.60001C56.2429 5.74047 55.6976 3.73672 58.1373 3.38133Z" fill="#757575"/>
<path d="M25.0465 6.86823C25.0489 6.91742 25.0653 7.15021 25.0821 7.18959C25.4193 7.98197 27.0448 8.23099 27.7749 8.75385C28.4161 9.163 28.9507 9.57226 29.1278 10.3676C29.468 11.8948 28.5486 13.1189 27.079 13.4576C26.0145 13.7077 24.8942 13.5248 23.9647 12.949C23.5063 12.6237 22.9526 12.1354 22.7437 11.6047C23.0211 11.3896 23.6524 10.8258 23.9249 10.7373C24.0528 10.7622 24.1515 10.8977 24.2538 11.0239C24.8828 11.7997 26.519 12.4643 27.2154 11.4515C27.393 11.1932 27.3302 10.8575 27.2354 10.5544C26.5301 9.89452 24.9273 9.5244 24.1267 8.82767C23.3862 8.1832 23.2644 7.81985 23.1628 6.87337C23.7118 6.8455 24.4803 6.86893 25.0465 6.86823Z" fill="#757575"/>
<path d="M60.3953 3.37605C60.932 3.33749 61.6412 3.37935 62.2176 3.35309C62.2573 3.81658 62.2378 4.52405 62.2371 5.00442L62.2347 7.84111L62.2355 11.2924C62.2375 11.9626 62.2604 12.7457 62.2289 13.4019C61.6194 13.3854 61.0095 13.3858 60.3995 13.4031C60.435 10.1151 60.4338 6.66378 60.3953 3.37605Z" fill="#757575"/>
<path d="M73.6832 4.91118C73.765 5.0115 73.7303 6.62798 73.7292 6.88218C73.0718 6.87245 72.4148 6.87513 71.7578 6.89019C71.8033 7.50727 71.7714 8.55976 71.7706 9.20854L71.7749 13.3934L69.9895 13.3935L69.9358 13.3861C69.8848 13.3006 69.9047 7.54186 69.9004 6.86902L71.7044 6.86505C71.7029 6.25604 71.7173 5.52358 71.6667 4.92713C72.2233 4.88623 73.1029 4.91203 73.6832 4.91118Z" fill="#757575"/>
<path d="M54.4387 6.80969C54.7551 6.80016 55.072 6.81059 55.3868 6.8409C55.4339 7.21857 55.4234 8.0596 55.4262 8.46236C55.26 8.46112 55.0938 8.46213 54.9276 8.46536C52.9234 8.51786 53.1484 10.1155 53.1535 11.5987C53.1508 12.196 53.1597 12.7934 53.1803 13.3903L51.328 13.3934C51.2743 13.0993 51.3315 12.0209 51.3323 11.644C51.3432 10.0524 51.3393 8.46081 51.3206 6.86927C51.5293 6.86779 52.7892 6.82646 53.0297 6.90986C53.1243 6.94255 53.0496 7.44357 53.0266 7.60881C53.4571 7.10824 53.7525 6.89382 54.4387 6.80969Z" fill="#757575"/>
<path d="M26.5323 4.26312C27.3744 4.23752 28.3298 4.26542 29.1909 4.25507C29.1921 4.55942 29.2308 6.77819 29.1545 6.87859L27.8316 6.88077C27.8775 6.39877 27.835 6.08387 27.8465 5.61993L26.5303 5.62432C26.5427 5.17213 26.5267 4.71679 26.5323 4.26312Z" fill="#757575"/>
<path d="M2.12604 19.0121C1.00279 18.7825 0.0879233 18.3426 0.025973 17.024C-0.0199374 16.0467 0.00899745 15.0448 0.00899161 14.0647L0.00946957 8.25346L0.00839143 3.88204C0.00854128 3.18235 -0.0304447 2.33632 0.0614328 1.64897C0.122877 1.18929 0.450762 0.61671 0.815075 0.34761C0.950427 0.258298 1.61814 0.0163684 1.78916 0.0127205C2.77046 -0.00821103 3.7857 0.00270654 4.76746 0.00394364L10.6434 0.00522472L15.3114 0.00365723C15.7773 0.00355605 16.3241 0.0309517 16.7674 0.00421604C17.5235 -0.0413914 18.3399 0.37515 18.7053 1.05413C19.1592 1.89737 18.9921 3.47956 18.9916 4.44829L18.9911 9.29922L18.9944 14.5116C18.9992 16.6655 19.4913 18.5659 16.805 19.0121H2.12604ZM7.79499 7.768L11.2379 7.76917C11.2965 8.75173 11.2667 10.211 11.2422 11.2142C12.3368 11.1753 13.4845 11.2334 14.5996 11.1984C14.6837 11.0975 14.6425 4.93531 14.6162 4.32372C12.933 4.24356 11.0729 4.34804 9.37306 4.30999C8.86847 4.2987 8.29666 4.33263 7.79958 4.31026C7.80632 5.46284 7.8048 6.61546 7.79499 7.768ZM4.34519 14.6394C5.2824 14.5628 6.74374 14.6478 7.74622 14.6188C7.74217 13.5608 7.69924 12.2678 7.73805 11.234C6.66399 11.218 5.40392 11.2009 4.33745 11.2379C4.41117 12.1615 4.32507 13.6543 4.34519 14.6394Z" fill="#757575"/>
</svg>
