<svg width="51" height="18" viewBox="0 0 51 18" fill="none" xmlns="http://www.w3.org/2000/svg">
<path d="M50.8829 10.0769C50.8829 10.0014 50.8732 9.92687 50.8668 9.85239C50.8668 9.82391 50.8668 9.79434 50.8604 9.76586C50.8518 9.66947 50.8411 9.57418 50.8283 9.47998C50.8288 9.47489 50.8288 9.46974 50.8283 9.46465C50.8154 9.36388 50.7994 9.26311 50.7812 9.16453C50.4986 7.58664 49.6843 6.16005 48.4798 5.13303C47.2754 4.106 45.7572 3.54355 44.1894 3.54355C42.6215 3.54355 41.1033 4.106 39.8988 5.13303C38.6944 6.16005 37.8801 7.58664 37.5975 9.16453H31.7171V11.6345V11.6443H35.8108C35.5424 12.5797 34.9767 13.3968 34.2032 13.9662C33.4298 14.5357 32.4929 14.8249 31.5407 14.7881C30.5885 14.7514 29.6755 14.3907 28.9463 13.7633C28.217 13.1359 27.713 12.2775 27.5143 11.324C27.3155 10.3706 27.4332 9.37653 27.8487 8.49922C28.2643 7.62191 28.9539 6.91147 29.8085 6.48035C30.6631 6.04924 31.6339 5.92207 32.5671 6.11899C33.5003 6.31591 34.3427 6.82566 34.9608 7.56756L36.9563 6.13378C36.275 5.25928 35.3949 4.56862 34.3927 4.12206C33.3906 3.6755 32.2969 3.48659 31.2071 3.57182C30.1172 3.65704 29.0643 4.01382 28.1401 4.61102C27.216 5.20822 26.4487 6.0277 25.9052 6.99799V0H23.443V5.09433C22.6238 4.40862 21.6577 3.93115 20.6235 3.70102C19.5893 3.47089 18.5166 3.49464 17.4931 3.77032C16.4696 4.046 15.5245 4.56578 14.7352 5.2871C13.9458 6.00842 13.3347 6.91076 12.9517 7.92025C12.4167 6.51215 11.4422 5.3242 10.1796 4.54085C8.91699 3.75751 7.43693 3.42259 5.96923 3.58811C4.50153 3.75363 3.1283 4.41033 2.06277 5.45623C0.997237 6.50214 0.299024 7.87873 0.0765413 9.37226C-0.145942 10.8658 0.119754 12.3927 0.832374 13.7159C1.54499 15.0391 2.66466 16.0845 4.01753 16.6899C5.3704 17.2953 6.88077 17.4267 8.31412 17.0637C9.74747 16.7008 11.0236 15.8638 11.9444 14.6827L9.96174 13.2424C9.34466 13.9814 8.50441 14.4888 7.57388 14.6844C6.64334 14.8801 5.67562 14.7527 4.82375 14.3225C3.97187 13.8924 3.28447 13.1839 2.87023 12.3092C2.456 11.4345 2.33857 10.4435 2.53653 9.49286C2.73449 8.54222 3.23653 7.68624 3.96326 7.06026C4.68999 6.43428 5.59994 6.07403 6.5492 6.03649C7.49847 5.99895 8.43288 6.28625 9.20467 6.85296C9.97647 7.41968 10.5416 8.23346 10.8107 9.16563H6.71268V9.17548V11.6454H12.6156C12.8806 13.1148 13.6075 14.4553 14.6855 15.4632C15.7635 16.4711 17.1338 17.0912 18.5879 17.2292C20.042 17.3672 21.5003 17.0155 22.7411 16.2277C23.982 15.4398 24.9373 14.2589 25.462 12.8645C25.9458 14.1542 26.7991 15.2644 27.9101 16.0494C29.021 16.8345 30.3379 17.2579 31.6881 17.2642C33.0382 17.2705 34.3588 16.8593 35.4767 16.0846C36.5946 15.3099 37.4577 14.2077 37.953 12.9226C38.3841 14.0415 39.0953 15.0246 40.0152 15.7734C40.9351 16.5222 42.0313 17.0102 43.1938 17.1886C44.3563 17.3669 45.5441 17.2293 46.6382 16.7894C47.7323 16.3496 48.694 15.6231 49.4269 14.6827L47.4357 13.2424C46.8183 13.981 45.9777 14.4879 45.0471 14.683C44.1165 14.8781 43.1489 14.7502 42.2972 14.3196C41.4456 13.889 40.7586 13.1801 40.3448 12.3052C39.9311 11.4303 39.8141 10.4393 40.0126 9.48876C40.211 8.53825 40.7135 7.68254 41.4405 7.05695C42.1675 6.43135 43.0776 6.07157 44.0269 6.0345C44.9761 5.99743 45.9104 6.28518 46.6819 6.85226C47.4534 7.41933 48.0181 8.23336 48.2868 9.16563H44.191V9.17548V11.6454H50.7844C50.8432 11.3199 50.879 10.9904 50.8914 10.6596C50.8914 10.5917 50.8968 10.5074 50.8968 10.4011C50.8968 10.2949 50.8882 10.1865 50.8829 10.0769ZM19.2026 14.7452C18.3648 14.7454 17.5457 14.4917 16.8487 14.0162C16.1516 13.5407 15.6078 12.8646 15.2859 12.0733C14.9639 11.2819 14.8782 10.4107 15.0396 9.56959C15.201 8.72847 15.6022 7.95508 16.1926 7.34698C16.7831 6.73889 17.5363 6.32332 18.3574 6.15271C19.1784 5.98209 20.0304 6.06407 20.8059 6.3883C21.5815 6.71253 22.2458 7.26449 22.7151 7.97455C23.1844 8.68462 23.4377 9.52098 23.443 10.3781V10.4055C23.4418 11.5559 22.9947 12.6589 22.1998 13.4725C21.4048 14.286 20.327 14.7437 19.2026 14.7452Z" fill="#757575"/>
</svg>
