<svg width="76" height="19" viewBox="0 0 76 19" fill="none" xmlns="http://www.w3.org/2000/svg">
<path d="M7.84593 0.024028C8.23125 -0.0354126 9.04185 0.0246734 9.4332 0.103644C10.4188 0.30252 11.1762 0.591366 11.7545 1.41027C12.0068 1.23378 12.2326 1.08207 12.5057 0.921461C14.6894 -0.362844 18.0558 -0.333254 19.1046 2.31854C19.3239 2.87311 19.3438 3.1955 19.3807 3.7803C19.5801 3.13574 20.2298 1.71911 20.7969 1.31884C21.4459 0.860733 22.0149 0.64108 22.822 0.727133C24.1275 0.866327 24.4431 1.54758 25.1535 2.40249C25.7027 1.49328 27.0114 0.681206 28.1359 0.754731C28.8292 0.800061 29.2581 1.19705 29.6838 1.68086C29.8233 1.59372 30.0915 1.43839 30.2515 1.40734C34.2708 0.627467 39.4691 0.521813 43.1791 2.40646C43.3084 2.35519 43.3888 2.30166 43.5062 2.23137C45.4763 1.06533 48.0608 0.390591 50.3534 0.892427C51.6183 1.18948 52.6282 2.14331 52.2493 3.46484C51.9079 4.65603 50.8694 5.51229 49.8096 6.11845C51.6685 6.66864 51.5345 7.97675 50.5087 9.28516C51.0247 9.17387 51.6905 9.22628 52.2188 9.25488C52.22 9.20722 52.2231 9.15955 52.2281 9.11207C52.2478 8.92151 52.2903 8.70778 52.3247 8.51125C52.6607 6.57691 53.0214 4.59998 53.6459 2.73204C53.7166 2.52011 54.2287 2.0874 54.4299 1.93071C55.672 0.962499 57.2342 0.27589 58.8641 0.397194C61.1659 0.55978 62.5845 2.38691 62.3211 4.5588C62.07 6.63106 60.9323 8.07728 59.2715 9.34855C60.5395 10.3816 61.3579 11.1145 62.2562 12.4924C62.1925 12.0937 62.1168 11.6422 62.0766 11.2454C61.8294 8.46351 62.6644 5.4066 64.482 3.2172C66.0732 1.30009 68.6743 0.32444 70.8464 2.07083C70.836 1.58541 70.7418 1.44816 70.5954 0.997079C70.6889 0.755892 71.3705 0.621253 71.6161 0.647987C72.321 0.724703 72.1742 1.59182 72.1179 2.05391C72.7072 1.6576 73.4066 1.53099 74.0957 1.70058C74.4382 1.78482 75.0643 1.82222 75.3273 2.05648C75.705 2.75285 73.8848 3.81027 73.3043 3.86298C72.8806 3.90148 72.6667 3.90831 72.2492 3.8563C74.2231 7.20496 73.0058 13.3635 70.0137 15.9212C67.9235 17.7083 65.6298 17.751 63.7319 15.7011L63.3959 15.2182C63.4098 15.6708 63.4346 16.2574 63.2156 16.6626C61.9075 19.0819 57.8537 16.2955 56.8171 15.0398C56.602 15.3765 56.3471 15.6901 56.1007 16.0041C54.2588 18.3514 52.3857 17.6693 52.0879 14.8023C51.711 15.0967 51.266 15.375 50.847 15.6131C49.4215 16.4346 47.838 16.9706 46.1912 17.1888C45.2785 17.3138 45.0603 17.291 44.1612 17.1537C43.5776 17.1066 42.9863 17.123 42.4174 16.9578C38.1861 15.7288 39.5695 11.4083 42.6183 9.72287C41.1777 9.1429 40.3319 8.3461 40.369 6.77536C39.7583 6.88279 39.3949 6.94644 38.7774 6.95657C38.7441 8.35801 38.5982 9.75488 38.3405 11.1347C37.9763 13.1099 36.9606 16.4585 35.2048 17.7287C34.8856 17.9447 34.2938 18.0803 33.9144 17.9938C32.3963 17.6478 32.0374 15.4776 31.858 14.2609C31.4678 11.6136 31.9512 9.08351 32.4909 6.5131C31.7872 6.43157 31.2703 6.37047 30.5771 6.22625L30.573 6.49463C30.5152 9.76412 29.2757 13.5486 26.8079 15.8973C24.9074 17.706 22.3613 18.1817 20.3515 16.1709C18.7904 18.9499 15.311 16.0855 13.8296 14.7327C13.1726 15.7693 11.1936 18.2967 9.84019 16.5413C8.85971 15.2696 8.81672 12.2687 9.05301 10.706C8.54193 11.1036 8.03931 11.4351 7.45867 11.7402C7.23014 11.8603 6.80044 11.9193 6.60359 12.0786C6.71489 12.5883 6.62239 12.5946 6.47695 13.092C6.08911 14.4185 5.08367 16.8373 3.44194 17.0034C1.1246 17.2379 0.295345 13.4735 0.10881 11.8633C-0.115886 9.83275 0.0146352 7.81639 0.433691 5.81568C0.654927 4.75945 0.799596 3.99177 1.5205 3.13681C3.10698 1.25528 5.38631 0.310614 7.84593 0.024028ZM16.2475 9.04033C16.7059 9.36769 16.9882 9.61073 17.4092 9.97909C17.7183 10.2744 17.9875 10.5513 18.2809 10.8615C18.2101 10.0068 18.2103 9.14802 18.2813 8.29335C18.3028 8.04452 18.5183 6.78349 18.5024 6.67843C17.9885 7.52271 17.1353 8.53543 16.2475 9.04033Z" fill="#08080B"/>
<path d="M22.3068 1.46637C23.0958 1.41052 23.7005 1.71698 24.1477 2.35871C25.5695 4.4102 24.9587 7.35144 24.6545 9.64849C24.612 9.96951 24.2292 10.9414 24.4416 11.1099C25.0749 11.602 25.2371 10.4426 25.3125 10.1057C25.8096 7.88145 25.8901 5.62553 25.5825 3.37525C25.5442 3.09497 26.0438 2.4099 26.3028 2.24041C27.327 1.57048 28.0716 1.02462 29.0352 2.11259C28.5206 2.53899 28.0461 2.83467 27.826 3.49229C27.3794 4.82696 28.7185 5.62104 29.8313 5.97196C29.8311 6.73162 29.8044 7.12572 29.6821 7.86535C29.4581 10.2011 28.5437 12.4685 27.1069 14.4207C25.5305 16.6196 22.3219 17.8478 20.5158 15.1268C20.2714 14.7585 20.1747 13.8615 19.9374 13.4099C19.5891 12.7469 19.2621 12.3044 19.1526 11.5559C18.7854 8.9313 19.1448 6.26011 20.1945 3.81134C20.5906 2.89673 21.1553 1.62015 22.3068 1.46637Z" fill="#757575"/>
<path d="M48.0868 1.50729C48.7398 1.45632 49.3597 1.46639 50.0012 1.5933C50.832 1.75758 51.7929 2.31072 51.4851 3.27508C51.061 4.60244 49.3404 5.65871 48.0477 6.14803C47.4113 6.38899 46.6701 6.52379 46.0475 6.81588C45.8649 6.89348 45.8027 7.1307 45.9309 7.2714C46.0062 7.35427 46.1619 7.4699 46.28 7.46255C46.9864 7.4187 47.6438 7.03006 48.3301 6.87497C48.9376 6.75471 49.9278 6.70163 50.3438 7.24978C50.703 7.72259 50.2152 8.35791 49.9553 8.72522C49.2674 9.69907 48.4027 9.70812 47.3815 10.1445C47.0405 10.2903 46.1939 10.5639 46.6207 11.0723C46.6941 11.1588 46.8586 11.2882 46.9833 11.2788C47.9396 11.2064 48.7221 10.4834 49.6131 10.21C50.4956 9.96329 51.2703 9.93332 52.1548 10.0101C52.0563 11.172 51.9203 12.697 52.0296 13.8502C51.7373 14.1061 51.4878 14.279 51.1657 14.4944C50.9683 14.6418 50.6771 14.8154 50.474 14.9274C48.6294 15.945 46.4523 16.7393 44.2976 16.337C44.0859 16.2975 43.5116 16.3624 43.2139 16.3307C42.3812 16.2422 41.6223 15.9541 41.0661 15.3254C39.6112 13.5645 41.4087 11.2733 43.0733 10.3497C43.2973 10.2255 43.743 9.96084 43.765 9.71335C43.8156 9.15036 42.874 9.01014 42.4627 8.81877C42.1684 8.6843 41.9042 8.49627 41.6848 8.26506C41.182 7.728 41.1129 7.20782 41.153 6.52287C42.1842 6.2408 43.2382 5.90301 44.0052 5.13983C44.7089 4.43996 44.5733 3.54628 43.8422 2.92038C45.2233 2.1593 46.4801 1.68186 48.0868 1.50729Z" fill="#757575"/>
<path d="M68.1747 1.91581C69.1495 1.80275 70.0845 2.3425 70.7245 3.00082C70.6747 3.58807 70.5487 4.04288 70.1776 4.52077C69.5527 4.37002 69.6848 4.30295 69.168 3.93316C69.1039 3.88716 68.9904 3.9175 68.9135 3.93472C68.3971 4.3632 69.6496 5.1768 70.0555 5.28029C70.4792 5.38835 71.454 5.2804 71.5784 4.82647C71.5807 4.61967 71.4641 4.51061 71.2528 4.49292L71.2246 4.4908L71.1995 4.4457C71.2911 4.29884 71.3853 4.15346 71.4822 4.00965C71.6162 4.39298 71.8491 4.79535 71.9642 5.18362C72.946 8.49789 72.201 12.3874 69.8613 14.9858C69.153 15.713 68.3029 16.3096 67.2489 16.4264C64.4017 16.7422 63.1152 13.6422 62.8924 11.4054C62.6302 8.77491 63.3165 5.86375 65.0425 3.76C65.8385 2.79027 66.87 2.05552 68.1747 1.91581Z" fill="#757575"/>
<path d="M67.9414 7.20827C68.2125 7.18976 68.4998 7.30049 68.4504 7.59505C68.3994 7.89905 68.048 7.85453 67.8664 8.1336C67.6069 8.49798 67.4713 8.8864 67.3786 9.31421C67.313 9.61616 67.2995 9.80749 67.0392 10.0087C65.9643 10.2721 66.926 8.20267 67.1396 7.8989C67.3941 7.53693 67.5219 7.38332 67.9414 7.20827Z" fill="#08080B"/>
<path d="M15.0839 0.877095C15.8142 0.782982 16.8372 0.924131 17.4161 1.38323C20.0983 3.51038 17.6488 7.68465 15.1032 8.83844C14.828 8.96319 14.2612 9.21005 14.0959 9.42598C13.9446 10.3403 15.2527 9.5918 15.5739 9.41919C15.7653 9.70456 16.3109 10.0508 16.5985 10.2983C17.2603 10.872 17.9273 11.5614 18.4138 12.2814C18.6808 12.6765 18.8293 13.5135 19.0129 13.9664C19.1929 14.4103 19.552 14.9159 19.6486 15.3487C19.7551 15.8255 19.3669 16.4976 18.8151 16.5063C17.7046 16.6155 16.6803 15.9971 15.8274 15.4086C15.5069 15.1894 15.3009 15.0255 15.0121 14.7693C14.7749 14.5587 14.4615 14.23 14.1925 14.0832C14.3601 13.7816 14.5374 13.5073 14.6859 13.1943C14.8923 12.7596 14.4211 12.3644 14.1035 12.7431C13.852 13.0431 13.6915 13.4359 13.4886 13.7723C12.9633 14.6435 12.3749 15.648 11.4684 16.201C10.9863 16.4896 10.4946 16.3097 10.279 15.8119C9.66115 14.3857 9.78868 12.716 9.82672 11.2032C9.87249 10.8905 9.82641 10.2113 9.93405 9.93618C10.3803 8.79604 11.0484 8.41222 10.3514 7.10649C10.4242 6.66432 10.5274 5.72185 10.7845 5.40013C11.6222 4.35176 12.2882 3.57722 12.0532 2.13846C12.9345 1.47619 13.9634 0.995026 15.0839 0.877095Z" fill="#757575"/>
<path d="M15.6946 3.83744C15.9301 3.79864 16.0983 3.81451 16.2494 4.01675C16.3647 4.52706 15.477 4.61546 15.1271 4.8933C14.612 5.30238 14.4068 5.68075 14.0649 6.20334C13.4104 6.32794 13.4164 5.83792 13.6725 5.43088C14.172 4.63683 14.7767 4.1175 15.6946 3.83744Z" fill="#08080B"/>
<path d="M58.2248 1.17467C59.5835 1.08585 60.8476 1.595 61.3362 2.89413C62.1067 4.94295 60.7051 7.30373 59.0363 8.55152C58.6941 8.80725 58.3191 9.0365 57.939 9.23529C57.6524 9.38578 57.2102 9.43011 57.0619 9.74323C56.9862 9.87514 57.0828 10.1344 57.2442 10.168C57.6316 10.2486 58.1908 9.91449 58.5222 9.75628C58.9235 10.1156 59.3804 10.4133 59.8129 10.8134C61.0531 11.961 62.3419 13.6394 62.623 15.3071C62.6717 15.6289 62.6756 16.2297 62.4137 16.4827C61.267 17.5894 58.937 15.8507 58.0889 15.1733C57.7876 14.9106 57.4956 14.6384 57.2129 14.3573C57.3338 14.0686 57.5343 13.7416 57.6737 13.4425C57.9425 13.0225 57.2573 12.6941 57.0685 13.0277C55.9044 15.0844 53.4029 19.4277 52.7981 14.1755C53.2782 13.6861 53.7196 13.236 54.0521 12.6385C54.4685 11.8906 54.6566 10.9592 54.0942 10.2315C53.8011 9.85195 53.4168 9.67679 52.9974 9.45864C53.338 7.06206 53.7138 5.40596 54.3418 3.05323C55.4406 1.99077 56.651 1.31617 58.2248 1.17467Z" fill="#757575"/>
<path d="M58.7181 4.13028C59.2291 4.05042 59.4149 4.56533 58.9804 4.78523C58.7119 4.87874 58.4879 4.98502 58.2338 5.10339C57.6614 5.36984 57.3776 6.19802 57.0033 6.49867C56.4557 6.57412 56.395 6.17383 56.614 5.80259C57.1609 4.87615 57.7167 4.47256 58.7181 4.13028Z" fill="#08080B"/>
<path d="M8.20182 0.840054C9.30435 0.719681 10.5165 0.970753 11.1565 1.90712C11.0284 2.05293 10.8655 2.19294 10.7619 2.35456C10.307 3.06452 10.3634 4.17977 10.0044 4.95146C9.57454 5.8753 7.2878 6.74818 6.29105 7.0239C5.91148 7.12892 5.45211 7.15811 5.09293 7.304C5.00534 7.33958 4.92597 7.41647 4.89044 7.50138C4.85618 7.58321 4.86588 7.6797 4.90183 7.7596C5.16817 8.35174 7.83333 7.25982 8.35128 7.20796C8.74827 7.16824 9.15828 7.25897 9.52882 7.38824C9.41149 7.9887 9.38016 9.33642 8.98101 9.73497C8.26844 10.4464 7.24925 11.0365 6.27599 11.3548C5.89074 11.4809 4.8405 11.4663 4.78616 11.9552C4.85831 12.3058 5.26399 12.2995 5.54573 12.2624C5.69276 12.2465 5.7461 12.2131 5.84659 12.2812C5.86011 12.4323 5.76557 12.6515 5.72185 12.8277C5.45702 13.8945 4.18212 17.1675 2.57025 16.0168C1.62043 15.3388 1.10254 13.2423 0.962683 12.111C0.698306 9.92 0.771429 7.64535 1.32825 5.50031C1.52304 4.74996 1.64366 4.19268 2.16372 3.57246C2.63428 3.01144 3.33395 2.40828 3.99928 2.06237C5.12657 1.47631 6.93812 0.985521 8.20182 0.840054Z" fill="#757575"/>
<path d="M34.0276 1.69411C36.9355 1.46659 39.8591 1.88133 42.5742 2.90655C42.1501 3.25105 42.1911 3.30695 41.8786 3.68947C41.2522 4.45714 40.8803 5.00941 40.5346 5.92788C40.1955 5.99817 38.1045 6.26232 38.0377 6.57607C37.9118 7.16454 37.945 8.04005 37.8809 8.66758C37.6639 10.7889 37.1154 13.7065 36.016 15.5697C35.8308 15.8893 35.6373 16.193 35.4047 16.4827C35.1572 16.7911 34.7411 17.2357 34.3097 17.2806C34.0902 17.3035 33.8717 17.2151 33.707 17.0806C32.1984 15.8479 32.4859 10.6487 32.8011 8.88277C32.8874 8.39916 33.4291 6.23231 33.4099 5.98548C33.1473 5.71759 32.2713 5.73383 31.8867 5.67726C31.4364 5.61105 31.0005 5.52744 30.5534 5.44175C30.5142 4.8693 30.5079 4.23751 30.4489 3.67897C30.4137 3.34657 30.1667 2.67296 30.0529 2.35039C31.4167 1.87559 32.5931 1.80361 34.0276 1.69411Z" fill="#757575"/>
<path d="M43.2412 3.40265C43.413 3.45933 43.5656 3.65994 43.6359 3.81804C43.7182 4.00436 43.7174 4.2148 43.6343 4.40076C43.3729 4.98622 42.3923 5.35565 41.8211 5.57258L41.446 5.71962C41.7805 4.81362 42.5491 4.06568 43.2412 3.40265Z" fill="#757575"/>
<path d="M29.368 2.79382C29.5614 3.02273 29.7646 4.84932 29.7934 5.2147L29.2389 4.93879C28.0343 4.27928 28.4394 3.43501 29.368 2.79382Z" fill="#757575"/>
<path d="M52.8793 10.2239C54.1832 10.7835 53.6965 11.8356 53.1269 12.7411L52.7375 13.1893C52.741 12.1993 52.7881 11.21 52.8793 10.2239Z" fill="#757575"/>
<path d="M74.1582 2.26917C74.3594 2.28078 74.5274 2.32789 74.7221 2.37514C74.0976 3.14616 73.2981 3.44707 72.3032 3.32607C72.9409 2.93249 73.3989 2.82299 74.1428 2.73022C74.2069 2.7222 74.2606 2.5798 74.2756 2.52657C74.2509 2.39443 74.2428 2.38063 74.1424 2.28701L74.1582 2.26917Z" fill="#757575"/>
<path d="M72.046 2.86738C72.6825 2.16573 73.2352 2.07868 74.1582 2.26922L74.1424 2.28707C73.5793 2.10545 72.5338 2.6148 72.046 2.86738Z" fill="#757575"/>
<path d="M71.3539 1.20917C71.4439 1.22803 71.5346 1.23569 71.5721 1.31006C71.7107 1.58591 71.5269 2.38423 71.4574 2.66508L71.4068 2.66801C71.3964 2.65202 71.3709 1.37851 71.3539 1.20917Z" fill="#757575"/>
<path d="M11.3517 2.85559C11.4137 3.05364 11.1908 3.54485 11.1086 3.7252C11.0351 3.57475 11.2765 3.01139 11.3517 2.85559Z" fill="#787577"/>
</svg>
