<svg width="74" height="23" viewBox="0 0 74 23" fill="none" xmlns="http://www.w3.org/2000/svg">
<g clip-path="url(#clip0_7_14)">
<path d="M16.4408 4.57513C16.5525 4.54116 16.7451 4.42042 16.8551 4.363C17.0742 4.24889 17.2985 4.14425 17.5273 4.04942C18.129 3.80215 18.7849 3.64031 19.4084 3.44999C19.8248 3.32291 20.2448 3.19382 20.6712 3.10107C21.0426 3.02026 21.1339 3.57786 21.2096 3.82885C21.3612 4.33073 21.5084 4.83381 21.6688 5.33337C22.0744 6.61039 22.1689 7.8891 22.0763 9.21556L22.1045 9.2438C23.0015 9.19841 24.1604 9.22996 25.0747 9.2298V12.9446C25.0286 13.14 25.0063 13.346 24.9778 13.5444C24.9207 13.9402 24.8209 14.339 24.7071 14.7228C23.9996 17.1203 22.3971 19.1834 20.2062 20.5178C19.1242 21.176 17.9229 21.6328 16.6651 21.8641C16.3855 21.9118 16.1046 21.952 15.8226 21.9847C15.7353 21.9946 15.4962 22.0087 15.4343 22.0251H9.67728C9.59824 21.9948 9.54403 21.9988 9.46246 21.9982C9.15595 21.9954 8.84602 21.9318 8.54399 21.8821C7.50351 21.7084 6.49803 21.3782 5.56459 20.9037C3.09663 19.6487 1.2503 17.5017 0.433368 14.9367C0.302499 14.5265 0.209372 14.147 0.124367 13.7263C0.0907598 13.56 0.0451904 13.0812 0.00486473 12.9617L0 12.9477V9.23435C0.652438 9.2294 1.3049 9.22804 1.95735 9.23029C2.20297 9.23049 2.78934 9.21823 3.00866 9.25026C2.97249 8.96528 2.96927 8.66166 2.96608 8.37438C2.9501 6.93602 3.25301 5.88087 3.64314 4.51284C3.74486 4.15618 3.82507 3.68826 4.00996 3.3709C4.03943 3.32033 4.10172 3.22213 4.16593 3.20987C4.34785 3.17513 6.57721 3.8337 6.91865 3.94222C7.16236 4.01971 7.40513 4.1091 7.64332 4.20118C7.9788 4.33085 8.31259 4.49814 8.62689 4.67016L9.1709 4.98911C9.39973 5.14315 9.6845 5.3205 9.89937 5.4824C10.9321 6.26069 11.8917 7.30316 12.5248 8.41218C12.5932 8.34564 13.0166 7.65514 13.1461 7.4808C13.8643 6.51352 14.8327 5.56127 15.8806 4.92543C16.066 4.80679 16.2528 4.69001 16.4408 4.57513Z" fill="#08080B"/>
<path d="M3.00864 9.25027C2.97247 8.96529 2.96925 8.66168 2.96606 8.3744C2.95008 6.93603 3.253 5.88089 3.64312 4.51285C3.74484 4.15619 3.82505 3.68828 4.00994 3.37091C4.03941 3.32035 4.1017 3.22214 4.16591 3.20988C4.34783 3.17514 6.57719 3.83372 6.91863 3.94224C7.16235 4.01972 7.40511 4.10911 7.6433 4.20119C7.97878 4.33087 8.31257 4.49815 8.62687 4.67018L9.17088 4.98913C9.39971 5.14316 9.68448 5.32051 9.89935 5.48241C10.9321 6.2607 11.8917 7.30317 12.5248 8.41219C12.6532 8.61487 12.7788 8.85844 12.8889 9.07332C13.4654 10.3159 13.8139 11.513 13.9002 12.8777C13.9117 13.0604 13.869 13.4027 13.9075 13.5655C13.705 13.8775 13.4216 14.37 13.2279 14.6434C12.971 15.189 12.7235 15.7162 12.5332 16.2883C12.1619 15.0888 11.4308 13.8242 10.6051 12.8625C8.88388 10.8317 6.38775 9.54738 3.67399 9.2963C3.46388 9.25643 3.23456 9.27917 3.00864 9.25027Z" fill="#757575"/>
<path d="M3.00864 9.25027C2.97247 8.96529 2.96925 8.66168 2.96606 8.3744C2.95008 6.93603 3.253 5.88088 3.64312 4.51285C3.74484 4.15619 3.82505 3.68828 4.00994 3.37091C4.03941 3.32035 4.1017 3.22214 4.16591 3.20988C4.34783 3.17514 6.57719 3.83372 6.91863 3.94224C7.16235 4.01972 7.40511 4.10911 7.6433 4.20119C7.97878 4.33087 8.31257 4.49815 8.62687 4.67018L9.17088 4.98912C9.39971 5.14316 9.68448 5.32051 9.89935 5.48241C10.9321 6.2607 11.8917 7.30317 12.5248 8.41219C12.6532 8.61487 12.7788 8.85844 12.8889 9.07332C13.4654 10.3159 13.8139 11.513 13.9002 12.8777C13.9117 13.0604 13.869 13.4027 13.9075 13.5655C13.705 13.8775 13.4216 14.37 13.2279 14.6434C13.1779 14.46 13.2857 13.6556 13.277 13.3518C13.2267 11.6076 12.7689 9.95452 11.8098 8.46367C10.755 6.80604 9.18198 5.51087 7.31525 4.76307C6.76255 4.54442 6.20097 4.39048 5.62685 4.23528C5.26139 4.13648 4.86312 4.01358 4.49636 3.93033C4.32902 4.44981 4.19645 4.98376 4.03576 5.50487C3.65407 6.7426 3.54294 8.00843 3.67399 9.2963C3.46388 9.25643 3.23456 9.27917 3.00864 9.25027Z" fill="#08080B"/>
<path d="M16.4408 4.57513C16.5525 4.54116 16.7451 4.42042 16.8551 4.363C17.0742 4.24889 17.2985 4.14425 17.5274 4.04942C18.129 3.80215 18.7849 3.64031 19.4084 3.44999C19.8248 3.32291 20.2449 3.19382 20.6712 3.10107C21.0426 3.02026 21.1339 3.57786 21.2096 3.82885C21.3612 4.33073 21.5084 4.83381 21.6688 5.33337C22.0744 6.61039 22.1689 7.8891 22.0763 9.21556C22.0233 9.28453 21.5218 9.28544 21.4049 9.29067C21.2884 9.32206 21.1104 9.31107 20.9768 9.33093C20.5912 9.39051 20.2084 9.46627 19.8297 9.55804C17.9691 10.0264 16.2824 10.9861 14.9608 12.3283C14.631 12.6691 14.3308 13.0185 14.046 13.3943C14.0042 13.4494 13.9551 13.5155 13.9075 13.5655C13.869 13.4027 13.9118 13.0604 13.9002 12.8777C13.8139 11.513 13.4654 10.3159 12.889 9.07331C12.7788 8.85842 12.6533 8.61486 12.5248 8.41218C12.5932 8.34565 13.0166 7.65514 13.1461 7.4808C13.8643 6.51352 14.8327 5.56127 15.8806 4.92543C16.066 4.80679 16.2528 4.69001 16.4408 4.57513Z" fill="#757575"/>
<path d="M16.4408 4.57513C16.5525 4.54116 16.7451 4.42042 16.8551 4.363C17.0742 4.24889 17.2985 4.14425 17.5274 4.04942C18.129 3.80215 18.7849 3.64031 19.4084 3.44999C19.8248 3.32291 20.2449 3.19382 20.6712 3.10107C21.0426 3.02026 21.1339 3.57786 21.2096 3.82885C21.3612 4.33073 21.5084 4.83381 21.6688 5.33337C22.0744 6.61039 22.1689 7.8891 22.0763 9.21556C22.0233 9.28453 21.5218 9.28544 21.4049 9.29067C21.4022 9.12476 21.4292 8.92424 21.4422 8.75438C21.5779 6.98684 21.0141 5.45249 20.5076 3.78173C20.3664 3.85499 19.85 3.99317 19.6708 4.04639C19.0668 4.22574 18.4775 4.37922 17.889 4.60726C16.186 5.27577 14.7202 6.4024 13.6677 7.85174C13.4469 8.15075 13.253 8.4486 13.0794 8.77527C13.0262 8.87536 12.9655 8.98946 12.889 9.07331C12.7788 8.85842 12.6533 8.61486 12.5248 8.41218C12.5932 8.34564 13.0166 7.65514 13.1461 7.4808C13.8643 6.51352 14.8327 5.56127 15.8806 4.92543C16.066 4.80679 16.2528 4.69001 16.4408 4.57513Z" fill="#08080B"/>
<path d="M0.946959 10.1804L2.54233 10.1798C5.05852 10.1652 7.47603 11.1191 9.25508 12.8283C10.8554 14.3828 11.8334 16.4298 12.0169 18.6088C12.0777 19.3094 12.0445 20.3473 12.0431 21.074L10.5158 21.0752C7.88681 21.0746 5.60965 20.2174 3.73686 18.4306C2.08797 16.8574 1.10519 14.6947 0.959981 12.478C0.941373 12.194 0.947608 11.884 0.947285 11.5967L0.946959 10.1804Z" fill="#757575"/>
<path d="M22.1074 10.1891C22.6027 10.1503 23.5904 10.1795 24.1282 10.1805C24.1167 10.8859 24.1618 11.7817 24.116 12.4659C23.9853 14.5069 23.157 16.4495 21.7595 17.9922C20.4518 19.4384 18.6966 20.445 16.7507 20.8647C16.1603 20.989 15.7028 21.031 15.1047 21.0718L13.0315 21.0748C13.0299 19.8599 12.9641 18.6646 13.225 17.4687C13.5554 15.9546 14.2545 14.5733 15.2909 13.3905C16.7036 11.7714 18.6665 10.6838 20.833 10.3199C21.2106 10.2548 21.7193 10.2213 22.1074 10.1891Z" fill="#757575"/>
<path d="M12.4193 0H12.6578C13.028 0.268687 13.3572 0.671055 13.6888 0.98816C14.4533 1.7192 15.1254 2.36915 15.7039 3.26267C15.8742 3.5301 16.0341 3.80353 16.1832 4.08241C16.2665 4.23942 16.3521 4.42796 16.4407 4.57513C16.2527 4.69001 16.066 4.80679 15.8805 4.92543C14.8327 5.56127 13.8642 6.51352 13.146 7.4808C13.0165 7.65514 12.5931 8.34564 12.5247 8.41217C11.8916 7.30315 10.9321 6.26068 9.89931 5.48239C9.68445 5.32049 9.39967 5.14314 9.17085 4.98911L8.62683 4.67016C8.62852 4.65396 8.63122 4.63785 8.63496 4.62195C8.65809 4.52127 8.87432 4.11717 8.92913 4.01129C9.57101 2.77109 10.4642 1.85916 11.4671 0.887149C11.6825 0.67839 12.1766 0.155264 12.4193 0Z" fill="#757575"/>
<path d="M12.4193 0H12.6578C13.028 0.268687 13.3572 0.671055 13.6888 0.98816C14.4533 1.7192 15.1254 2.36915 15.7039 3.26267C15.8742 3.5301 16.0341 3.80353 16.1832 4.08241C16.2665 4.23942 16.3521 4.42796 16.4407 4.57513C16.2527 4.69001 16.066 4.80679 15.8805 4.92543C15.6358 4.43919 15.4302 4.03892 15.1303 3.58364C14.4201 2.5053 13.4677 1.66436 12.538 0.763596C11.0573 2.18552 10.0145 3.08934 9.17085 4.98911L8.62683 4.67016C8.62852 4.65396 8.63122 4.63785 8.63496 4.62195C8.65809 4.52127 8.87432 4.11717 8.92913 4.01129C9.57101 2.77109 10.4642 1.85916 11.4671 0.887149C11.6825 0.67839 12.1766 0.155264 12.4193 0Z" fill="#08080B"/>
</g>
<path d="M37.3502 9.6396C37.2768 9.41409 37.1781 9.21211 37.0541 9.03368C36.9326 8.85278 36.7871 8.69913 36.6175 8.57274C36.448 8.44387 36.2544 8.34599 36.0367 8.27907C35.8216 8.21216 35.585 8.17871 35.3269 8.17871C34.889 8.17871 34.4942 8.28899 34.1425 8.50955C33.7907 8.73011 33.5123 9.05351 33.3073 9.47976C33.1049 9.90353 33.0037 10.4227 33.0037 11.0373C33.0037 11.6544 33.1061 12.176 33.3111 12.6023C33.5161 13.0285 33.797 13.3519 34.1539 13.5725C34.5107 13.7931 34.9169 13.9033 35.3724 13.9033C35.795 13.9033 36.1633 13.8191 36.4771 13.6506C36.7934 13.482 37.0376 13.2441 37.2097 12.9368C37.3843 12.6271 37.4716 12.2628 37.4716 11.844L37.7753 11.8997H35.5508V10.9518H38.6067V11.8179C38.6067 12.4573 38.4675 13.0124 38.1891 13.4833C37.9132 13.9517 37.5311 14.3135 37.0427 14.5687C36.5568 14.824 36 14.9516 35.3724 14.9516C34.6689 14.9516 34.0514 14.793 33.5199 14.4758C32.991 14.1586 32.5785 13.7088 32.2824 13.1264C31.9863 12.5416 31.8383 11.8477 31.8383 11.0447C31.8383 10.4376 31.9243 9.89238 32.0964 9.40913C32.2685 8.92588 32.5102 8.51574 32.8214 8.17871C33.1353 7.8392 33.5035 7.58022 33.9261 7.40179C34.3513 7.22089 34.8156 7.13043 35.3193 7.13043C35.7394 7.13043 36.1304 7.19115 36.4923 7.31258C36.8567 7.43401 37.1806 7.60625 37.464 7.82928C37.75 8.05232 37.9866 8.31749 38.1739 8.62478C38.3612 8.9296 38.4877 9.26787 38.5535 9.6396H37.3502Z" fill="#757575"/>
<path d="M41.7014 14.9739C41.3319 14.9739 40.9979 14.907 40.6993 14.7732C40.4006 14.6369 40.164 14.4399 39.9894 14.1821C39.8173 13.9244 39.7313 13.6084 39.7313 13.2342C39.7313 12.9121 39.7945 12.6469 39.9211 12.4387C40.0476 12.2306 40.2184 12.0658 40.4335 11.9443C40.6486 11.8229 40.8891 11.7312 41.1548 11.6692C41.4205 11.6073 41.6913 11.5602 41.9671 11.528C42.3164 11.4883 42.5998 11.4561 42.8175 11.4313C43.0351 11.4041 43.1933 11.3607 43.292 11.3012C43.3907 11.2418 43.44 11.1451 43.44 11.0113V10.9853C43.44 10.6606 43.3464 10.4091 43.1591 10.2307C42.9744 10.0522 42.6985 9.96301 42.3316 9.96301C41.9494 9.96301 41.6483 10.046 41.4281 10.2121C41.2105 10.3756 41.0599 10.5578 40.9764 10.7585L39.9097 10.5206C40.0362 10.1737 40.221 9.89362 40.4639 9.68049C40.7094 9.46489 40.9916 9.30876 41.3104 9.21211C41.6293 9.11299 41.9646 9.06342 42.3164 9.06342C42.5492 9.06342 42.796 9.09068 43.0566 9.1452C43.3198 9.19725 43.5653 9.29389 43.7931 9.43515C44.0234 9.57641 44.2119 9.77838 44.3587 10.0411C44.5055 10.3013 44.5788 10.6396 44.5788 11.0559V14.8475H43.4704V14.0669H43.4248C43.3514 14.2106 43.2414 14.3519 43.0946 14.4907C42.9478 14.6294 42.7593 14.7447 42.529 14.8364C42.2987 14.9281 42.0228 14.9739 41.7014 14.9739ZM41.9482 14.0818C42.262 14.0818 42.5302 14.021 42.7529 13.8996C42.9782 13.7782 43.149 13.6196 43.2654 13.4238C43.3843 13.2255 43.4438 13.0137 43.4438 12.7881V12.0521C43.4033 12.0918 43.3249 12.1289 43.2085 12.1636C43.0946 12.1959 42.9643 12.2244 42.8175 12.2491C42.6707 12.2714 42.5277 12.2925 42.3885 12.3123C42.2493 12.3297 42.1329 12.3446 42.0393 12.3569C41.8191 12.3842 41.6179 12.43 41.4357 12.4945C41.256 12.5589 41.1118 12.6518 41.0029 12.7733C40.8967 12.8922 40.8435 13.0508 40.8435 13.2491C40.8435 13.5242 40.9473 13.7323 41.1548 13.8736C41.3623 14.0124 41.6268 14.0818 41.9482 14.0818Z" fill="#757575"/>
<path d="M46.0906 14.8475V9.13777H47.1877V10.0448H47.2484C47.3547 9.73749 47.542 9.49587 47.8103 9.31992C48.081 9.14149 48.3873 9.05227 48.7289 9.05227C48.7998 9.05227 48.8833 9.05475 48.9795 9.05971C49.0782 9.06466 49.1553 9.07086 49.211 9.07829V10.1414C49.1655 10.129 49.0845 10.1154 48.9681 10.1005C48.8517 10.0832 48.7352 10.0745 48.6188 10.0745C48.3506 10.0745 48.1114 10.1303 47.9014 10.2418C47.6938 10.3508 47.5294 10.5033 47.4079 10.699C47.2864 10.8923 47.2257 11.1129 47.2257 11.3607V14.8475H46.0906Z" fill="#757575"/>
<path d="M52.1672 14.959C51.6965 14.959 51.2764 14.8413 50.9069 14.6059C50.54 14.368 50.2515 14.0297 50.0414 13.5911C49.8339 13.15 49.7301 12.6209 49.7301 12.0038C49.7301 11.3867 49.8352 10.8589 50.0452 10.4202C50.2578 9.98159 50.5488 9.6458 50.9183 9.41285C51.2878 9.1799 51.7066 9.06342 52.1748 9.06342C52.5367 9.06342 52.8277 9.1229 53.0479 9.24185C53.2706 9.35833 53.4427 9.49463 53.5642 9.65075C53.6882 9.80688 53.7843 9.94442 53.8527 10.0634H53.921V7.23452H55.056V14.8475H53.9476V13.9591H53.8527C53.7843 14.0805 53.6856 14.2193 53.5566 14.3754C53.43 14.5316 53.2554 14.6679 53.0327 14.7843C52.81 14.9008 52.5215 14.959 52.1672 14.959ZM52.4178 14.0111C52.7442 14.0111 53.0201 13.9269 53.2453 13.7584C53.4731 13.5874 53.6452 13.3507 53.7616 13.0484C53.8805 12.746 53.94 12.3941 53.94 11.9926C53.94 11.5961 53.8818 11.2492 53.7654 10.9518C53.649 10.6544 53.4781 10.4227 53.2529 10.2567C53.0277 10.0906 52.7493 10.0076 52.4178 10.0076C52.0761 10.0076 51.7914 10.0944 51.5636 10.2678C51.3359 10.4413 51.1638 10.678 51.0474 10.9778C50.9335 11.2777 50.8765 11.616 50.8765 11.9926C50.8765 12.3743 50.9348 12.7175 51.0512 13.0223C51.1676 13.3272 51.3397 13.5688 51.5674 13.7472C51.7977 13.9232 52.0812 14.0111 52.4178 14.0111Z" fill="#757575"/>
<path d="M59.189 14.9628C58.6145 14.9628 58.1198 14.8426 57.7047 14.6022C57.2922 14.3593 56.9734 14.0186 56.7481 13.5799C56.5254 13.1388 56.4141 12.6221 56.4141 12.0298C56.4141 11.445 56.5254 10.9295 56.7481 10.4834C56.9734 10.0374 57.2872 9.68917 57.6896 9.43887C58.0945 9.18857 58.5677 9.06342 59.1093 9.06342C59.4383 9.06342 59.7572 9.1167 60.0659 9.22327C60.3747 9.32983 60.6518 9.49711 60.8972 9.7251C61.1427 9.95309 61.3363 10.2492 61.478 10.6135C61.6198 10.9753 61.6906 11.4152 61.6906 11.9332V12.3272H57.0556V11.4945H60.5784C60.5784 11.2021 60.5176 10.9431 60.3962 10.7176C60.2747 10.4896 60.1039 10.31 59.8837 10.1786C59.6661 10.0473 59.4104 9.98159 59.1169 9.98159C58.798 9.98159 58.5196 10.0584 58.2817 10.2121C58.0464 10.3632 57.8642 10.5615 57.7351 10.8068C57.6086 11.0497 57.5453 11.3136 57.5453 11.5986V12.2491C57.5453 12.6308 57.6136 12.9554 57.7503 13.2231C57.8895 13.4907 58.0831 13.6952 58.3311 13.8364C58.5791 13.9752 58.8689 14.0446 59.2004 14.0446C59.4155 14.0446 59.6116 14.0149 59.7888 13.9554C59.9659 13.8934 60.1191 13.8017 60.2481 13.6803C60.3772 13.5589 60.4759 13.4089 60.5442 13.2305L61.6185 13.4201C61.5325 13.7299 61.3781 14.0012 61.1554 14.2342C60.9352 14.4646 60.6581 14.6443 60.324 14.7732C59.9925 14.8996 59.6142 14.9628 59.189 14.9628Z" fill="#757575"/>
<path d="M64.085 11.4574V14.8475H62.95V9.13777H64.0395V10.0671H64.1116C64.2457 9.76475 64.4558 9.52189 64.7417 9.3385C65.0302 9.15512 65.3934 9.06342 65.8312 9.06342C66.2285 9.06342 66.5765 9.1452 66.8751 9.30876C67.1737 9.46985 67.4053 9.71023 67.5698 10.0299C67.7343 10.3496 67.8166 10.7449 67.8166 11.2157V14.8475H66.6815V11.3496C66.6815 10.9357 66.5714 10.6123 66.3513 10.3793C66.1311 10.1439 65.8287 10.0262 65.444 10.0262C65.1808 10.0262 64.9467 10.082 64.7417 10.1935C64.5393 10.305 64.3786 10.4686 64.2596 10.6842C64.1432 10.8973 64.085 11.155 64.085 11.4574Z" fill="#757575"/>
<path d="M73.7081 10.5318L72.6793 10.7102C72.6363 10.5813 72.568 10.4586 72.4743 10.3422C72.3832 10.2257 72.2592 10.1303 72.1023 10.0559C71.9454 9.98159 71.7493 9.94442 71.5139 9.94442C71.1925 9.94442 70.9243 10.015 70.7092 10.1563C70.4941 10.2951 70.3865 10.4748 70.3865 10.6953C70.3865 10.8861 70.4586 11.0398 70.6029 11.1563C70.7471 11.2727 70.9799 11.3681 71.3013 11.4425L72.2276 11.6507C72.7641 11.7721 73.164 11.9592 73.4272 12.212C73.6904 12.4647 73.822 12.7931 73.822 13.197C73.822 13.539 73.7207 13.8439 73.5183 14.1115C73.3183 14.3767 73.0387 14.5848 72.6793 14.736C72.3225 14.8872 71.9087 14.9628 71.438 14.9628C70.7851 14.9628 70.2524 14.8265 69.8399 14.5539C69.4274 14.2788 69.1743 13.8885 69.0806 13.3829L70.1777 13.2194C70.246 13.4994 70.3865 13.7113 70.5991 13.855C70.8117 13.9963 71.0888 14.0669 71.4304 14.0669C71.8024 14.0669 72.0998 13.9913 72.3225 13.8401C72.5452 13.6865 72.6566 13.4994 72.6566 13.2788C72.6566 13.1004 72.5882 12.9505 72.4516 12.829C72.3174 12.7076 72.1112 12.6159 71.8328 12.554L70.8458 12.3421C70.3017 12.2206 69.8993 12.0273 69.6387 11.7622C69.3805 11.497 69.2515 11.1612 69.2515 10.7548C69.2515 10.4178 69.3476 10.1229 69.54 9.87007C69.7323 9.6173 69.998 9.42028 70.3372 9.27903C70.6763 9.13529 71.0647 9.06342 71.5025 9.06342C72.1327 9.06342 72.6287 9.19725 72.9906 9.46489C73.3525 9.73006 73.5917 10.0857 73.7081 10.5318Z" fill="#757575"/>
<defs>
<clipPath id="clip0_7_14">
<rect width="25.0747" height="22.0251" fill="white"/>
</clipPath>
</defs>
</svg>
