<svg width="74" height="25" viewBox="0 0 74 25" fill="none" xmlns="http://www.w3.org/2000/svg">
<path d="M8.18344 0.0376079C8.83301 -0.0412689 10.3795 0.0306947 11.1063 0.0165197C12.0477 -0.00183687 13.2225 -0.000525733 14.1617 0.0571789C14.3486 0.0686601 14.645 0.22298 14.8013 0.333552C15.1854 0.603929 15.4452 1.01777 15.522 1.48208C15.6186 2.05733 14.8308 4.82767 14.6572 5.52355L13.1212 11.7191L11.5147 18.1935C11.2291 19.3444 10.9487 20.4948 10.6501 21.6425C10.2403 23.2177 9.06783 24.204 7.47146 24.4705C7.4588 24.4722 7.44615 24.4739 7.43345 24.4755C7.16444 24.509 6.87552 24.5132 6.60379 24.5137C5.13872 24.5169 3.67332 24.5145 2.20829 24.515C1.93798 24.5151 1.66478 24.5145 1.40069 24.466C0.401119 24.2824 -0.193672 23.28 0.0574424 22.3048C0.347857 21.0966 0.649332 19.909 0.946248 18.7112L2.72896 11.522L4.10195 5.98961C4.36551 4.91508 4.62455 3.84205 4.91112 2.77323C5.32182 1.24138 6.62118 0.207931 8.18344 0.0376079Z" fill="#757575"/>
<path d="M23.2084 0.0494171C23.2145 0.0486651 23.2206 0.0477662 23.2268 0.047157C24.1199 -0.0411354 25.0802 0.0277947 25.9794 0.0279459C26.6507 0.0280593 27.414 -0.0466008 28.0751 0.0476779C28.2405 0.0712834 28.3966 0.127631 28.527 0.235228C28.7067 0.383527 28.8195 0.570257 28.8413 0.806009C28.8838 1.26467 26.9112 10.4367 26.6403 11.2279C26.3999 11.9256 26.0361 12.5745 25.5663 13.1435C24.4225 14.53 22.9292 15.2654 21.1559 15.4333C20.1859 15.4944 19.1838 15.4478 18.2105 15.4485C17.5852 15.4489 16.8486 15.5225 16.2382 15.421C16.0996 15.398 15.9695 15.3293 15.8626 15.2388C15.6769 15.0814 15.548 14.8726 15.5307 14.6247C15.5043 14.2466 17.4896 4.97571 17.7543 4.22059C18.0119 3.49561 18.4001 2.82409 18.9 2.23935C19.9847 0.960971 21.537 0.171981 23.2084 0.0494171Z" fill="#757575"/>
<path fill-rule="evenodd" clip-rule="evenodd" d="M61.7572 2.66413C64.0205 2.41606 65.798 3.77063 66.0707 6.05475C66.3487 8.38699 65.3134 10.6969 62.7562 11.001C62.5302 11.0123 62.3083 11.0225 62.0844 11.0196C59.8117 10.9901 58.4212 9.22711 58.3705 7.04206C58.3291 5.25932 59.0376 3.52472 60.8217 2.87018C61.1369 2.75449 61.4191 2.71293 61.7445 2.66608C61.7486 2.66538 61.753 2.66486 61.7572 2.66413ZM69.5043 2.66901C70.0613 2.57716 71.1309 2.68022 71.6508 2.89069C72.6012 3.27584 73.013 3.78381 73.4193 4.66999C72.7249 4.86571 72.008 5.09202 71.3148 5.29987C71.0416 4.77248 70.7016 4.50127 70.0785 4.47272C69.8558 4.46324 69.5026 4.52512 69.3539 4.70514C68.8311 5.33879 69.9463 5.49237 70.265 5.57233C71.1184 5.7862 72.2101 5.90944 72.8724 6.50592C73.3201 6.91465 73.5877 7.48354 73.6176 8.08796C73.7085 10.1239 71.9679 10.9548 70.1781 11.0196C68.1449 11.0362 66.9571 10.521 66.2748 8.53229C67.0411 8.38031 67.864 8.24907 68.6371 8.11139C68.7407 8.39254 68.8498 8.59618 69.1029 8.79401C69.5317 9.15067 70.5859 9.27044 70.9662 8.79401C71.3026 8.37217 70.6142 8.09489 70.3138 8.02253C68.885 7.6783 66.9694 7.48898 66.7328 5.68854C66.6424 5.00272 66.7819 4.35174 67.2074 3.79694C67.7898 3.03719 68.5948 2.79228 69.5043 2.66901ZM42.8353 4.711C44.3473 4.69838 45.624 5.41714 46.0258 6.95612C46.151 7.43568 46.1466 7.87648 46.1508 8.36628L42.1078 8.3653C42.1237 8.54839 42.1462 8.81922 42.2279 8.98346C42.3313 9.19067 42.5118 9.34932 42.7308 9.42487C42.9511 9.50046 43.1922 9.4847 43.4008 9.38092C43.7253 9.21767 43.8197 9.00882 43.9281 8.69049C44.3087 8.74638 46.0058 8.76561 46.142 8.91608C45.8077 10.0297 44.965 10.7876 43.7982 10.9542C42.7677 11.1012 41.6711 11.0357 40.806 10.3917C40.1738 9.92777 39.7553 9.22859 39.6439 8.45221C39.3665 6.48121 40.5255 4.99537 42.4799 4.72663C42.5984 4.71808 42.7168 4.71276 42.8353 4.711ZM34.8129 2.80378C36.052 2.80107 37.5545 2.66314 38.5248 3.56842C39.4963 4.47535 39.5458 6.18241 38.6078 7.13288C37.9433 7.80652 37.1981 7.96802 36.2904 7.98346L34.9222 7.97956L34.9164 10.9395H32.3363L32.3373 2.80768L34.8129 2.80378ZM53.9154 2.79499C53.9188 4.18401 53.9476 5.72962 53.8861 7.10749C54.3012 6.51963 55.2981 5.43002 55.8011 4.8487L57.9301 4.84772C57.5302 5.36998 56.5575 6.44812 56.1058 6.93171C56.5574 7.86689 57.0762 8.86206 57.5551 9.78327C57.7498 10.1637 57.9412 10.5461 58.1293 10.9298C57.323 10.9492 56.4602 10.9349 55.6498 10.9356C55.2846 10.1325 54.9098 9.3334 54.5258 8.53913C54.3223 8.77675 54.1206 9.01631 53.9222 9.25788C53.9067 9.79789 53.9171 10.3914 53.9154 10.9356H51.6615L51.6625 2.79596L53.9154 2.79499ZM50.9398 4.7237L50.9427 6.86042C49.6108 6.74256 49.2978 7.23719 49.3226 8.5235C49.3377 9.30683 49.3343 10.1371 49.3304 10.9239C48.855 10.9266 47.4961 10.9659 47.0892 10.9102C47.0078 10.8153 47.0347 10.8059 47.0297 10.6475L47.0316 4.82526C47.6924 4.81061 48.3814 4.82222 49.0443 4.82428L49.0531 5.88971C49.3367 5.16739 49.5828 4.87813 50.3558 4.71393C50.5261 4.70599 50.7642 4.71886 50.9398 4.7237ZM62.0052 4.56159C60.8523 5.15728 60.9555 7.5261 61.3773 8.58893C61.5613 9.05239 62.019 9.23143 62.4896 9.17194C63.1724 8.89972 63.2919 8.26701 63.3549 7.57624C63.4231 6.826 63.4434 5.9883 63.1957 5.27057C62.9657 4.66189 62.5948 4.50857 62.0052 4.56159ZM42.6888 6.15436C42.1833 6.35901 42.1555 6.65551 42.0785 7.18464L43.0795 7.18659H43.6752C43.626 6.43557 43.4368 6.09983 42.6888 6.15436ZM34.8148 4.65143L34.8119 6.21198C35.3706 6.22082 36.0132 6.30065 36.4838 6.0069C36.6864 5.76733 36.7437 5.64776 36.725 5.31354C36.6774 4.47517 35.3737 4.64195 34.8148 4.65143Z" fill="#757575"/>
</svg>
