<svg width="918" height="25" viewBox="0 0 918 25" fill="none" xmlns="http://www.w3.org/2000/svg">
<path d="M8.25953 19.0408L7.18059 17.929C7.09307 18.0022 6.88879 18.1828 6.78892 18.244C6.35334 18.5302 5.83062 18.6615 5.30806 18.616C4.7855 18.5704 4.29474 18.3507 3.91777 17.9935C3.5408 17.6363 3.30046 17.1634 3.23689 16.6536C3.17332 16.1438 3.29038 15.6281 3.5685 15.1927V15.1909L4.08366 14.4193L5.71292 11.9825C5.93985 11.6426 6.0195 11.2283 5.93442 10.8309C5.84929 10.4334 5.60641 10.0854 5.25913 9.86322L2.2546 14.3606L2.22243 14.4163C2.17155 14.4984 2.12254 14.5811 2.07802 14.6664C1.82298 15.1532 1.6794 15.6884 1.6573 16.235C1.6352 16.7816 1.73512 17.3263 1.95007 17.8312C2.64705 19.4832 4.47199 20.4386 6.26178 20.0845C6.77098 19.9844 7.25442 19.7852 7.68341 19.4986C7.83158 19.3979 8.02423 19.2382 8.25953 19.0408Z" fill="#757575"/>
<path d="M2.12122 15.0068L2.86945 13.6588C2.77293 13.5991 2.53275 13.4655 2.44258 13.3912C2.02913 13.0743 1.73938 12.6281 1.62183 12.1272C1.50427 11.6263 1.56605 11.1011 1.79683 10.6394C2.0276 10.1778 2.41335 9.80771 2.88954 9.59119C3.36572 9.37466 3.90344 9.3248 4.41269 9.44996H4.41493L5.32403 9.69093L8.19277 10.4523C8.59324 10.5585 9.02035 10.5047 9.38028 10.3026C9.7402 10.1006 10.0034 9.76686 10.112 9.37489L4.81261 7.9701L4.74864 7.95765C4.65361 7.93531 4.55784 7.91554 4.46094 7.90015C3.90924 7.81314 3.34479 7.84489 2.8069 7.99321C2.26901 8.14152 1.77062 8.40282 1.34642 8.75892C-0.0430467 9.91835 -0.407435 11.9127 0.489697 13.4695C0.743798 13.9127 1.08628 14.3013 1.49682 14.6124C1.64198 14.7187 1.85672 14.8486 2.12122 15.0068Z" fill="#757575"/>
<path d="M4.14429 8.04558L5.68491 8.32426C5.7126 8.21623 5.76832 7.95146 5.81286 7.84416C5.9931 7.36159 6.33718 6.95423 6.7875 6.69022C7.23782 6.42619 7.76707 6.32152 8.28679 6.39369C8.80652 6.46587 9.28514 6.71051 9.64268 7.08672C10.0002 7.46292 10.215 7.94788 10.251 8.46049V8.46306L10.2974 9.38371L10.4444 12.2896C10.4651 12.6951 10.6493 13.0761 10.9569 13.3487C11.2643 13.6213 11.6698 13.7631 12.0842 13.7431L11.8111 8.377L11.8036 8.31364C11.7957 8.21806 11.7856 8.12284 11.7703 8.028C11.6845 7.48756 11.4794 6.97192 11.1693 6.51699C10.8592 6.06206 10.4514 5.67878 9.97452 5.39384C8.41856 4.45854 6.36842 4.73466 5.13307 6.05302C4.78088 6.42651 4.50899 6.86551 4.33359 7.34391C4.27635 7.51054 4.21649 7.75041 4.14429 8.04558Z" fill="#757575"/>
<path d="M11.5327 7.77746L11.7382 9.29687C11.8504 9.28955 12.1261 9.26025 12.2439 9.26794C12.7684 9.28673 13.2703 9.48117 13.6658 9.81874C14.0613 10.1563 14.3265 10.6166 14.4169 11.1225C14.5074 11.6285 14.4177 12.1495 14.1627 12.5985C13.9078 13.0475 13.5032 13.3973 13.0165 13.5892H13.0146L12.1343 13.9188L9.35612 14.9537C9.16398 15.0253 8.98811 15.1333 8.83856 15.2714C8.68906 15.4095 8.56881 15.5751 8.48473 15.7588C8.40065 15.9425 8.3544 16.1405 8.34853 16.3418C8.34271 16.5429 8.37744 16.7432 8.45078 16.9313L13.5807 15.0193L13.6398 14.9926C13.7303 14.956 13.8197 14.9168 13.9069 14.8732C14.4056 14.6263 14.8433 14.2759 15.1894 13.8465C15.5355 13.417 15.7818 12.9188 15.911 12.3866C16.339 10.6493 15.4363 8.82629 13.7756 8.08288C13.3038 7.87052 12.7933 7.75308 12.2742 7.73754C12.0935 7.73535 11.8417 7.75366 11.5327 7.77746Z" fill="#757575"/>
<path d="M14.0763 14.5733L12.6625 15.2325C12.7048 15.3361 12.8186 15.5822 12.847 15.6946C12.9912 16.1888 12.9576 16.7164 12.7519 17.1892C12.5462 17.6621 12.1809 18.0514 11.717 18.2921C11.2531 18.5328 10.7188 18.6102 10.2036 18.5114C9.68837 18.4126 9.22343 18.1436 8.8866 17.7494V17.7476L8.29437 17.0312L6.43011 14.7648C6.16978 14.4489 5.79197 14.2471 5.37966 14.2037C4.96736 14.1604 4.55437 14.2791 4.23145 14.5337L7.67334 18.7188L7.71749 18.766C7.78107 18.8392 7.84654 18.9099 7.91573 18.9777C8.30966 19.3658 8.78529 19.6651 9.3095 19.8548C9.83371 20.0446 10.3939 20.1202 10.951 20.0763C12.7714 19.9379 14.2637 18.5338 14.4729 16.7585C14.5334 16.2536 14.4896 15.742 14.3442 15.254C14.2907 15.083 14.1949 14.8538 14.0763 14.5733Z" fill="#757575"/>
<path d="M22.3056 17.5076V19.3232H21.3621V5.5824H22.3393V12.9515C23.0295 11.5635 24.3505 10.7388 25.8439 10.7388C28.2001 10.7388 29.8082 12.4818 29.8082 15.126C29.8082 17.8071 28.161 19.682 25.7644 19.682C25.0376 19.6733 24.328 19.4648 23.7165 19.0803C23.1049 18.6958 22.616 18.1509 22.3056 17.5076ZM28.7757 15.1326C28.7757 12.995 27.5626 11.6453 25.6539 11.6453C23.7452 11.6453 22.2625 13.2009 22.284 15.2632C22.3056 17.3255 23.7007 18.7888 25.6161 18.7888C27.5316 18.7888 28.7797 17.3756 28.7797 15.126L28.7757 15.1326Z" fill="#757575"/>
<path d="M36.2959 15.2014C36.2959 12.7076 38.2302 10.739 40.8789 10.739C43.5275 10.739 45.4389 12.7076 45.4389 15.2014C45.4389 17.6951 43.5033 19.6875 40.8789 19.6875C38.2545 19.6875 36.2959 17.6951 36.2959 15.2014ZM44.3983 15.2014C44.3983 13.213 42.8846 11.6388 40.8735 11.6388C38.8624 11.6388 37.3298 13.213 37.3298 15.2014C37.3298 17.1898 38.8813 18.7824 40.8735 18.7824C42.8657 18.7824 44.3983 17.2122 44.3983 15.2014Z" fill="#757575"/>
<path d="M47.0984 17.8637L47.8721 17.357L47.949 17.3755C48.4881 18.3321 49.3468 18.8388 50.4197 18.8388C51.5883 18.8388 52.4308 18.2385 52.4308 17.3874C52.4308 16.6565 52.0264 16.188 50.324 15.5877C47.9867 14.7446 47.4125 14.0505 47.4125 12.925C47.4125 11.7256 48.5232 10.7321 50.2283 10.7321C51.5883 10.7321 52.6802 11.4063 53.1398 12.4751L52.4659 12.925L52.3513 12.9065C51.9685 12.0819 51.1638 11.5752 50.1677 11.5752C49.1136 11.5752 48.4059 12.1571 48.4059 12.9065C48.4059 13.6006 48.7496 14.0122 50.723 14.7446C52.7732 15.5125 53.4189 16.1696 53.4189 17.369C53.4189 18.6633 52.1545 19.6753 50.3725 19.6753C48.9181 19.6819 47.7117 19.0262 47.0984 17.8637Z" fill="#757575"/>
<path d="M54.9905 17.8637L55.7562 17.357L55.8332 17.3755C56.3721 18.3321 57.2307 18.8388 58.3036 18.8388C59.4723 18.8388 60.3148 18.2385 60.3148 17.3874C60.3148 16.6565 59.9104 16.188 58.2077 15.5877C55.8708 14.7446 55.2965 14.0505 55.2965 12.925C55.2965 11.7256 56.407 10.7321 58.1125 10.7321C59.4723 10.7321 60.564 11.4063 61.0238 12.4751L60.3497 12.925L60.2339 12.9065C59.8512 12.0819 59.0463 11.5752 58.0515 11.5752C56.9975 11.5752 56.2885 12.1571 56.2885 12.9065C56.2885 13.6006 56.6336 14.0122 58.6071 14.7446C60.656 15.5125 61.3029 16.1696 61.3029 17.369C61.3029 18.6633 60.0384 19.6753 58.2576 19.6753C56.8103 19.6819 55.6039 19.0262 54.9905 17.8637Z" fill="#757575"/>
<path d="M63.0354 15.2014C63.0354 12.7076 64.9696 10.739 67.6184 10.739C70.2671 10.739 72.177 12.7076 72.177 15.2014C72.177 17.6951 70.2427 19.6875 67.6184 19.6875C64.994 19.6875 63.0354 17.6951 63.0354 15.2014ZM71.1378 15.2014C71.1378 13.213 69.624 11.6388 67.6128 11.6388C65.6016 11.6388 64.069 13.213 64.069 15.2014C64.069 17.1898 65.6204 18.7824 67.6128 18.7824C69.6052 18.7824 71.1378 17.2122 71.1378 15.2014Z" fill="#757575"/>
<path d="M88.0701 14.188V19.3234H87.0969V14.6921C87.0969 12.573 86.3109 11.6362 84.7783 11.6362C83.2456 11.6362 81.9058 13.1918 81.9058 15.105V19.3273H80.9287V14.696C80.9287 12.577 80.1444 11.6402 78.6117 11.6402C77.0791 11.6402 75.7569 13.1958 75.7569 15.109V19.3313H74.7793V11.0952H75.7569V12.9134C76.4471 11.5254 77.5953 10.739 78.9175 10.739C80.4501 10.739 81.4277 11.5636 81.7335 13.1391C82.4425 11.5254 83.7835 10.739 85.0669 10.739C86.939 10.739 88.0701 11.9199 88.0701 14.188Z" fill="#757575"/>
<path d="M35.3654 18.5976L35.3061 18.6214C34.6497 18.8853 34.1172 18.8958 33.7695 18.6649C33.4217 18.434 33.2653 18.0052 33.2653 17.3454L33.3031 5.57599H32.3272L32.2881 17.4945C32.2881 18.3944 32.5577 19.0278 33.078 19.3787C33.4069 19.5847 33.7917 19.6885 34.1819 19.6769C34.6058 19.6703 35.0247 19.5875 35.418 19.4328L35.4531 19.4197L35.3654 18.5976Z" fill="#757575"/>
<path d="M144.078 10.9066H147.059V9.52323H144.078V8.55625H146.739V7.20639H144.078V6.35623H147.007V4.97284H144.078H143.749H142.345V10.9066H143.749H144.078Z" fill="#757575"/>
<path d="M150.905 10.9066V6.3894H152.759V4.97284H150.905H149.172H147.326V6.3894H149.172V10.9066H150.905Z" fill="#757575"/>
<path d="M154.878 8.5732H156.872V10.9066H158.605V4.97284H156.872V7.18943H154.878V4.97284H153.145V10.9066H154.878V8.5732Z" fill="#757575"/>
<path d="M164.243 9.52323H161.263V8.55625H163.923V7.20639H161.263V6.35623H164.192V4.97284H161.263H160.933H159.529V10.9066H160.933H161.263H164.243V9.52323Z" fill="#757575"/>
<path d="M166.749 8.54028H166.773L168.344 10.9072H170.311L168.505 8.43552C168.622 8.40421 168.736 8.36401 168.847 8.3153C169.163 8.1803 169.434 7.96395 169.63 7.69012C169.818 7.42382 169.912 7.11267 169.912 6.75668C169.912 6.40069 169.82 6.08916 169.635 5.8221C169.445 5.55103 169.181 5.33501 168.872 5.1973C168.549 5.04656 168.173 4.97119 167.746 4.97119H165.016V10.9072H166.749V8.54028ZM167.47 6.17332C167.707 6.17332 167.888 6.22897 168.012 6.34027C168.136 6.45156 168.198 6.59878 168.198 6.78193C168.202 6.86406 168.187 6.94599 168.155 7.02219C168.123 7.09838 168.074 7.16706 168.012 7.22359C167.887 7.33488 167.707 7.3904 167.47 7.39015H166.751V6.17332H167.47Z" fill="#757575"/>
<path d="M172.411 10.9066H175.392V9.52323H172.411V8.55625H175.072V7.20639H172.411V6.35623H175.34V4.97284H172.411H172.082H170.678V10.9066H172.082H172.411Z" fill="#757575"/>
<path d="M179.658 8.65649C179.664 8.82376 179.622 8.98934 179.537 9.13546C179.459 9.26476 179.343 9.36944 179.204 9.43693C179.051 9.50863 178.884 9.5443 178.714 9.54094C178.545 9.54303 178.377 9.50743 178.224 9.43693C178.079 9.36987 177.957 9.26422 177.872 9.13244C177.781 8.98664 177.736 8.819 177.742 8.64933V4.97284H176.011V8.49708C176.011 8.98597 176.124 9.41935 176.349 9.79719C176.571 10.1723 176.899 10.4798 177.294 10.6847C177.698 10.8987 178.172 11.0056 178.715 11.0054C179.258 11.0051 179.73 10.8982 180.132 10.6847C180.523 10.4802 180.846 10.1746 181.066 9.80247C181.289 9.42764 181.4 8.99565 181.4 8.5065V4.97284H179.658L179.658 8.65649Z" fill="#757575"/>
<path d="M187.552 4.97284L185.537 7.8214L183.514 4.97284H182.257V10.9066H183.973V8.11006L184.978 9.50665H186.088L187.093 8.11986V10.9066H188.809V4.97284H187.552Z" fill="#757575"/>
<path d="M145.625 16.2459L143.601 13.3973H142.345V19.3311H144.061V16.5346L145.066 17.9311H146.175L147.181 16.5444V19.3311H148.896V13.3973H147.64L145.625 16.2459Z" fill="#757575"/>
<path d="M151.076 12.2564L151.509 13.0647L153.441 12.3981L152.722 11.1311L151.076 12.2564Z" fill="#757575"/>
<path d="M151.56 16.9807H154.22V15.6309H151.56V14.7807H154.489V13.3973H151.56H151.231H149.827V19.3311H151.231H151.56H154.541V17.9477H151.56V16.9807Z" fill="#757575"/>
<path d="M160.929 13.3973H158.945L157.97 14.9658L156.977 13.3973H154.915L156.938 16.2749L154.802 19.3311H156.787L157.906 17.5487L159.005 19.3311H161.042L158.949 16.2531L160.929 13.3973Z" fill="#757575"/>
<path d="M163.119 13.3973H161.386V19.3311H163.119V13.3973Z" fill="#757575"/>
<path d="M167.753 17.8485C167.531 17.9291 167.294 17.9686 167.056 17.9649C166.838 17.9671 166.622 17.9287 166.419 17.8519C166.231 17.7804 166.061 17.6709 165.921 17.5308C165.778 17.3858 165.667 17.2142 165.595 17.0266C165.514 16.8118 165.474 16.5844 165.478 16.3558C165.475 16.1299 165.515 15.9054 165.595 15.6933C165.667 15.5057 165.778 15.3342 165.921 15.1891C166.06 15.0493 166.23 14.9411 166.419 14.8722C166.851 14.7224 167.325 14.7283 167.753 14.8888C167.945 14.9674 168.118 15.0838 168.26 15.2306L169.413 14.114C169.108 13.8529 168.755 13.6495 168.372 13.5144C167.95 13.3661 167.504 13.2927 167.055 13.2977C166.605 13.2936 166.158 13.3714 165.737 13.5268C165.345 13.6728 164.984 13.8892 164.676 14.1645C164.373 14.4363 164.132 14.7649 163.966 15.1299C163.797 15.5173 163.711 15.933 163.711 16.353C163.711 16.7729 163.797 17.1887 163.966 17.576C164.133 17.9461 164.376 18.2795 164.681 18.5558C164.991 18.836 165.354 19.0554 165.751 19.2017C166.173 19.3571 166.622 19.4348 167.073 19.4309C167.587 19.4309 168.035 19.3601 168.416 19.2187C168.794 19.0793 169.143 18.8776 169.448 18.6225L168.286 17.5059C168.137 17.6558 167.955 17.7727 167.753 17.8485Z" fill="#757575"/>
<path d="M175.065 14.1561C174.759 13.8748 174.398 13.655 174.003 13.5095C173.139 13.204 172.19 13.204 171.325 13.5095C170.93 13.6549 170.569 13.8745 170.264 14.1554C169.965 14.4314 169.727 14.7633 169.566 15.1306C169.235 15.9164 169.237 16.7954 169.57 17.5801C169.733 17.9511 169.973 18.2859 170.276 18.5637C170.584 18.8446 170.946 19.0653 171.342 19.2137C172.201 19.5233 173.147 19.5248 174.007 19.2179C174.401 19.0714 174.761 18.8504 175.065 18.5678C175.364 18.2887 175.601 17.9541 175.763 17.5843C176.092 16.7984 176.092 15.9206 175.763 15.1348C175.602 14.7661 175.364 14.4331 175.065 14.1561ZM174.052 17.215C173.932 17.4512 173.742 17.6479 173.505 17.7802C173.269 17.9131 172.989 17.9797 172.665 17.9799C172.441 17.9831 172.219 17.9447 172.011 17.8669C171.822 17.795 171.652 17.684 171.513 17.5417C171.37 17.3945 171.263 17.2197 171.196 17.0292C171.121 16.8116 171.084 16.5835 171.088 16.3542C171.088 16.0276 171.151 15.7429 171.279 15.4999C171.398 15.2655 171.589 15.071 171.824 14.9415C172.061 14.8111 172.341 14.7458 172.665 14.7455C172.889 14.7423 173.111 14.7807 173.319 14.8586C173.508 14.9306 173.678 15.0416 173.818 15.1838C173.959 15.33 174.067 15.5032 174.134 15.6921C174.209 15.9055 174.245 16.1295 174.242 16.3546C174.242 16.6837 174.178 16.9705 174.052 17.215Z" fill="#757575"/>
<path d="M130.495 24.9396L138.629 15.1533C138.655 15.1264 138.669 15.0914 138.67 15.0549C138.671 15.0184 138.658 14.9829 138.633 14.9549C138.609 14.9269 138.575 14.9083 138.537 14.9027C138.5 14.8971 138.462 14.9047 138.429 14.9242L131.306 18.6467C130.975 18.8195 130.699 19.0748 130.507 19.3858C130.315 19.6968 130.213 20.0519 130.213 20.4137V24.8443C130.212 24.8763 130.222 24.9079 130.24 24.9344C130.259 24.9608 130.286 24.9809 130.318 24.9915C130.349 25.0021 130.383 25.0028 130.415 24.9935C130.447 24.9842 130.475 24.9653 130.495 24.9396Z" fill="#757575"/>
<path d="M128.726 18.6467L121.601 14.9242C121.569 14.9047 121.53 14.8971 121.493 14.9027C121.455 14.9083 121.421 14.9269 121.397 14.9549C121.373 14.9829 121.36 15.0184 121.36 15.0549C121.361 15.0914 121.376 15.1264 121.401 15.1533L129.536 24.9396C129.556 24.9653 129.584 24.9842 129.616 24.9935C129.648 25.0028 129.682 25.0021 129.714 24.9915C129.745 24.9809 129.772 24.9608 129.791 24.9344C129.81 24.9079 129.819 24.8763 129.818 24.8443V20.4137C129.818 20.0519 129.717 19.6967 129.525 19.3857C129.332 19.0747 129.056 18.8194 128.726 18.6467Z" fill="#757575"/>
<path d="M123.865 12.6055L121.5 11.3699V12.7981L123.402 13.7918L123.865 12.6055Z" fill="#757575"/>
<path d="M138.531 11.3699L136.166 12.6055L136.629 13.7918L138.531 12.7981V11.3699Z" fill="#757575"/>
<path d="M132.663 14.4353L130.213 15.7154V17.1437L132.911 15.7343L132.663 14.4353Z" fill="#757575"/>
<path d="M129.818 15.7154L127.368 14.4353L127.121 15.7343L129.818 17.1437V15.7154Z" fill="#757575"/>
<path d="M136.922 10.5766C136.922 10.6109 136.913 10.6445 136.895 10.6739C136.876 10.7033 136.85 10.7274 136.819 10.7436L135.675 11.3413L136.028 12.2457L138.317 11.0503L136.923 10.3219L136.922 10.5766Z" fill="#757575"/>
<path d="M121.717 11.0503L124.005 12.2457L124.358 11.3413L123.215 10.7436C123.183 10.7274 123.157 10.7033 123.139 10.6739C123.121 10.6445 123.111 10.6109 123.111 10.5766V10.3219L121.717 11.0503Z" fill="#757575"/>
<path d="M132.399 13.0521L130.213 14.1943V15.283L132.588 14.0425L132.399 13.0521Z" fill="#757575"/>
<path d="M129.818 15.283V14.1943L127.632 13.0521L127.443 14.0425L129.818 15.283Z" fill="#757575"/>
<path d="M136.527 9.04388L135.075 9.80247L135.535 10.982L136.527 10.4638V9.04388Z" fill="#757575"/>
<path d="M129.818 13.7624V12.3428L127.953 11.3683L127.707 12.6594L129.818 13.7624Z" fill="#757575"/>
<path d="M130.213 12.3428V13.7624L132.324 12.6594L132.078 11.3683L130.213 12.3428Z" fill="#757575"/>
<path d="M123.505 10.4638L124.498 10.982L124.958 9.80247L123.505 9.04388V10.4638Z" fill="#757575"/>
<path d="M123.722 8.72376L125.098 9.4424L125.39 8.6955L125.032 8.50708C125.001 8.49092 124.975 8.46684 124.956 8.43742C124.938 8.40801 124.929 8.37438 124.929 8.34014V8.0918L123.722 8.72376Z" fill="#757575"/>
<path d="M135.103 8.34288C135.104 8.37712 135.094 8.41076 135.076 8.44017C135.058 8.46958 135.031 8.49366 135 8.50982L134.643 8.69825L134.934 9.44515L136.31 8.7235L135.103 8.09454V8.34288Z" fill="#757575"/>
<path d="M128.028 10.9755L129.818 11.9109V11.0113L128.184 10.1578L128.028 10.9755Z" fill="#757575"/>
<path d="M130.213 11.9109L132.003 10.9755L131.847 10.1578L130.213 11.0113V11.9109Z" fill="#757575"/>
<path d="M134.708 6.81567L133.668 7.35908L134.173 7.62287L134.179 7.62627L134.188 7.63116L134.194 7.63531C134.202 7.64109 134.21 7.64752 134.218 7.65453L134.22 7.65754V7.65943C134.222 7.66169 134.225 7.66357 134.226 7.66583L134.229 7.66885L134.233 7.67337L134.238 7.68015C134.239 7.68157 134.24 7.68308 134.241 7.68468L134.244 7.68882L134.249 7.69598C134.249 7.69598 134.249 7.69787 134.249 7.699V7.70163L134.251 7.7054C134.252 7.70759 134.253 7.70986 134.254 7.71219L134.257 7.71972V7.72274L134.496 8.33549L134.702 8.22808L134.708 6.81567Z" fill="#757575"/>
<path d="M130.213 9.16421V10.5785L131.772 9.76377L131.526 8.4776L130.213 9.16421Z" fill="#757575"/>
<path d="M128.505 8.4776L128.259 9.76377L129.818 10.5785V9.16421L128.505 8.4776Z" fill="#757575"/>
<path d="M125.324 8.22995L125.53 8.33735L125.769 7.7246V7.72158C125.77 7.71914 125.771 7.71662 125.772 7.71405L125.777 7.70613V7.70237C125.777 7.7015 125.777 7.7006 125.777 7.69973C125.777 7.69973 125.777 7.69784 125.777 7.69671L125.781 7.68955L125.784 7.68541L125.788 7.68088L125.793 7.6741C125.794 7.67257 125.795 7.67117 125.796 7.66996L125.799 7.66619L125.804 7.66091L125.808 7.6579V7.65564C125.815 7.64824 125.824 7.64143 125.833 7.63529L125.838 7.6319L125.847 7.62662L125.852 7.62361L126.358 7.35981L125.317 6.81641L125.324 8.22995Z" fill="#757575"/>
<path d="M133.065 6.36666C133.065 6.40086 133.055 6.43447 133.037 6.46388C133.019 6.49329 132.993 6.51739 132.961 6.5336L130.213 7.96938V8.73136L131.562 8.02666C131.592 8.00687 131.628 7.99567 131.664 7.99434C131.701 7.99301 131.737 8.00159 131.769 8.01912L132.482 8.40878L133.665 7.79075L133.159 7.52696C133.128 7.51057 133.102 7.48642 133.084 7.45705C133.066 7.42768 133.056 7.39416 133.056 7.36002C133.056 7.32588 133.066 7.29236 133.084 7.26299C133.102 7.23362 133.128 7.20947 133.159 7.19308L134.492 6.49742L133.065 5.74939V6.36666Z" fill="#757575"/>
<path d="M125.768 16.2104L126.723 15.7115L128.088 8.55029L127.721 8.7504L125.768 16.2104Z" fill="#757575"/>
<path d="M133.308 15.7122L134.262 16.2112L132.309 8.75119L131.942 8.55109L133.308 15.7122Z" fill="#757575"/>
<path d="M125.541 6.49554L126.874 7.19119C126.905 7.20759 126.931 7.23173 126.949 7.26111C126.967 7.29048 126.977 7.32399 126.977 7.35814C126.977 7.39228 126.967 7.42579 126.949 7.45517C126.931 7.48454 126.905 7.50869 126.874 7.52508L126.368 7.78887L127.55 8.40689L128.264 8.01724C128.295 7.99971 128.332 7.99112 128.368 7.99246C128.405 7.99379 128.441 8.00499 128.471 8.02477L129.82 8.72947V7.96938L127.07 6.5336C127.038 6.51744 127.012 6.49336 126.994 6.46395C126.976 6.43453 126.966 6.4009 126.966 6.36666V5.74939L125.541 6.49554Z" fill="#757575"/>
<path d="M125.8 14.532L125.932 14.0281L124.104 13.0728L123.919 13.5488L125.8 14.532Z" fill="#757575"/>
<path d="M125.547 9.37341L126.959 10.1105L127.091 9.60668L125.733 8.89746L125.547 9.37341Z" fill="#757575"/>
<path d="M125.222 10.2089L126.727 10.9953L126.859 10.4915L125.408 9.73291L125.222 10.2089Z" fill="#757575"/>
<path d="M126.06 8.06201L125.874 8.53797L127.191 9.22608L127.323 8.72224L126.06 8.06201Z" fill="#757575"/>
<path d="M125.338 16.3005L125.47 15.7966L123.454 14.743L123.268 15.2189L125.338 16.3005Z" fill="#757575"/>
<path d="M123.592 14.3845L125.568 15.4171L125.7 14.9132L123.778 13.9086L123.592 14.3845Z" fill="#757575"/>
<path d="M124.57 11.8791L126.264 12.7639L126.396 12.2601L124.756 11.4031L124.57 11.8791Z" fill="#757575"/>
<path d="M124.244 12.7139L126.032 13.6481L126.164 13.1443L124.43 12.238L124.244 12.7139Z" fill="#757575"/>
<path d="M124.896 11.0434L126.495 11.8789L126.627 11.375L125.082 10.5674L124.896 11.0434Z" fill="#757575"/>
<path d="M134.563 15.7966L134.695 16.3005L136.765 15.2189L136.579 14.743L134.563 15.7966Z" fill="#757575"/>
<path d="M134.625 9.73291L133.173 10.4915L133.305 10.9953L134.811 10.2089L134.625 9.73291Z" fill="#757575"/>
<path d="M134.3 8.89746L132.943 9.60668L133.075 10.1105L134.486 9.37341L134.3 8.89746Z" fill="#757575"/>
<path d="M132.709 8.7231L132.842 9.22694L134.159 8.53882L133.973 8.06287L132.709 8.7231Z" fill="#757575"/>
<path d="M136.114 13.5488L135.928 13.0728L134.1 14.0281L134.232 14.532L136.114 13.5488Z" fill="#757575"/>
<path d="M136.253 13.9086L134.331 14.9132L134.462 15.4171L136.439 14.3845L136.253 13.9086Z" fill="#757575"/>
<path d="M135.602 12.238L133.868 13.1443L134 13.6481L135.787 12.7139L135.602 12.238Z" fill="#757575"/>
<path d="M134.951 10.5674L133.405 11.375L133.537 11.8789L135.136 11.0434L134.951 10.5674Z" fill="#757575"/>
<path d="M135.276 11.4022L133.636 12.2592L133.768 12.763L135.462 11.8782L135.276 11.4022Z" fill="#757575"/>
<path d="M132.668 4.8703L130.213 6.15308V7.53609L131.248 6.99532V5.88627L131.253 5.88363L131.945 5.52262V6.63129L132.668 6.25332V4.8703Z" fill="#757575"/>
<path d="M127.363 6.25332L128.086 6.63129V5.52262L128.783 5.88627V6.99532L129.818 7.53609V6.15308L127.363 4.8703V6.25332Z" fill="#757575"/>
<path d="M129.806 5.72123V4.69923L126.968 3.2171V4.23873L129.806 5.72123Z" fill="#757575"/>
<path d="M130.227 4.69923V5.72123L133.064 4.23873V3.2171L130.227 4.69923Z" fill="#757575"/>
<path d="M130.213 4.25758L132.757 2.92845L130.213 0V4.25758Z" fill="#757575"/>
<path d="M129.818 4.25758V0L127.274 2.92845L129.818 4.25758Z" fill="#757575"/>
<path d="M299.838 6.36992C300.392 6.34026 301.097 6.36033 301.662 6.36124L301.668 16.3818C301.118 16.4001 300.523 16.3839 299.959 16.3971C299.958 16.0736 299.963 15.9293 300.014 15.6114C299.167 16.7132 298.033 16.6609 296.803 16.3854C296.601 16.2947 296.375 16.1899 296.193 16.066C295.464 15.575 294.964 14.8111 294.805 13.9469C294.462 12.1288 295.271 10.0842 297.264 9.76469C298.394 9.58342 298.947 9.78465 299.847 10.4057C299.837 10.2015 299.831 9.99125 299.834 9.78687C299.856 8.65643 299.795 7.49763 299.838 6.36992ZM298.587 14.8854C299.156 14.7341 299.326 14.3008 299.688 14.0784C300.196 12.738 299.616 11.2035 297.954 11.3528C297.673 11.4446 297.419 11.5162 297.198 11.7209C295.948 12.8819 296.69 15.2111 298.587 14.8854Z" fill="#757575"/>
<path d="M262.007 9.72652C263.029 9.69037 263.787 9.82256 264.562 10.542C265.946 11.8264 265.987 14.2385 264.71 15.6022C264.143 16.1975 263.364 16.544 262.542 16.5657C261.755 16.5897 261.076 16.3518 260.503 15.813C260.521 16.1532 260.517 16.5824 260.523 16.9291L260.526 18.7799C259.911 18.7737 259.296 18.7723 258.681 18.7759C258.733 17.6895 258.691 16.3177 258.69 15.2006C258.697 13.4225 258.696 11.6442 258.685 9.86603C259.24 9.85529 259.81 9.86011 260.366 9.85859C260.377 10.1024 260.363 10.3896 260.357 10.6373C260.382 10.5997 260.407 10.5624 260.433 10.5252C260.837 9.94028 261.343 9.84719 262.007 9.72652ZM262.5 14.8732C263.913 14.4716 264.254 12.2582 262.891 11.5306C262.584 11.3665 262.2 11.2901 261.855 11.3513C261.343 11.481 261.055 11.6074 260.745 12.0909C260.483 12.4982 260.437 13.2994 260.561 13.7653C260.663 14.1563 260.918 14.49 261.268 14.6918C261.669 14.922 262.054 14.951 262.5 14.8732Z" fill="#757575"/>
<path d="M269.141 9.72207C270.461 9.70222 271.478 9.87617 272.26 11.0958C272.792 11.9245 272.853 12.7948 272.641 13.7441C272.175 13.7698 271.523 13.7509 271.045 13.7507L268.04 13.7576C268.43 14.9965 269.686 15.2434 270.786 14.8115C271.066 14.7013 271.384 14.48 271.639 14.3165C271.731 14.4472 271.821 14.5784 271.911 14.7103C272.107 14.9902 272.197 15.2552 272.437 15.56C271.813 16.0635 271.426 16.2902 270.633 16.472C267.476 17.1966 265.02 13.9744 266.746 11.1779C267.324 10.2418 268.099 9.94139 269.141 9.72207ZM268.045 12.4833C268.587 12.4778 269.129 12.476 269.671 12.4779L270.99 12.4733C270.802 11.6875 270.423 11.1193 269.52 11.1583C268.718 11.3189 268.249 11.647 268.045 12.4833Z" fill="#757575"/>
<path d="M285.13 9.8651C285.743 9.86082 286.356 9.86125 286.968 9.86639C287.007 11.1761 286.955 12.4839 286.976 13.8047C286.986 14.4294 287.559 14.9357 288.195 14.9193C288.614 14.9085 289.253 14.4229 289.319 13.9854C289.402 13.4339 289.344 12.7614 289.36 12.1948C289.347 11.4461 289.4 10.6088 289.328 9.86576C289.932 9.84977 290.596 9.86444 291.205 9.86545C291.206 10.3775 291.204 10.8897 291.199 11.4017L291.205 12.9628C291.208 14.0846 291.198 14.8264 290.372 15.684C289.24 16.8584 287.132 16.8432 285.988 15.718C285.638 15.3748 285.388 14.9433 285.264 14.4694C285.057 13.7032 285.137 10.8359 285.13 9.8651Z" fill="#757575"/>
<path d="M251.889 9.86467L253.709 9.86218C253.732 10.8152 253.7 11.7903 253.71 12.746C253.743 13.1174 253.649 13.6952 253.739 14.0417C253.977 14.9652 255.092 15.1797 255.728 14.5232C256.241 13.9924 256.096 13.0806 256.095 12.4088L256.087 9.86234L257.949 9.86748C257.973 10.3546 257.948 11.0428 257.943 11.5388C257.949 12.9609 258.188 14.6117 257.108 15.6845C255.926 16.859 253.887 16.8513 252.697 15.7015C251.713 14.7516 251.88 13.4263 251.886 12.1838L251.889 9.86467Z" fill="#757575"/>
<path d="M280.236 6.37529C280.415 6.34585 281.484 6.35576 281.701 6.35592C281.752 6.76747 281.732 7.53293 281.73 7.96072L281.622 7.96017C279.966 7.95562 280.094 8.39641 280.106 9.86081L281.704 9.8628C281.744 10.2652 281.737 10.9832 281.723 11.3869C281.186 11.3782 280.649 11.3817 280.113 11.3974C280.089 12.6349 280.107 13.9253 280.107 15.1669C280.114 15.5737 280.125 15.9876 280.115 16.3938C279.499 16.3849 278.883 16.3824 278.267 16.3862C278.362 14.4739 278.234 12.509 278.288 10.594C278.342 8.73442 277.797 6.73068 280.236 6.37529Z" fill="#757575"/>
<path d="M247.145 9.86219C247.148 9.91137 247.164 10.1442 247.181 10.1835C247.518 10.9759 249.144 11.2249 249.874 11.7478C250.515 12.157 251.05 12.5662 251.227 13.3616C251.567 14.8888 250.647 16.1129 249.178 16.4515C248.113 16.7017 246.993 16.5188 246.064 15.943C245.605 15.6176 245.051 15.1294 244.843 14.5987C245.12 14.3836 245.751 13.8198 246.024 13.7312C246.152 13.7561 246.25 13.8917 246.353 14.0179C246.982 14.7936 248.618 15.4582 249.314 14.4454C249.492 14.1872 249.429 13.8515 249.334 13.5483C248.629 12.8885 247.026 12.5184 246.226 11.8216C245.485 11.1772 245.363 10.8138 245.262 9.86732C245.811 9.83946 246.579 9.86289 247.145 9.86219Z" fill="#757575"/>
<path d="M282.494 6.37001C283.031 6.33145 283.74 6.37331 284.316 6.34705C284.356 6.81054 284.337 7.51801 284.336 7.99837L284.334 10.8351L284.334 14.2863C284.336 14.9566 284.359 15.7396 284.328 16.3959C283.718 16.3793 283.108 16.3797 282.498 16.3971C282.534 13.109 282.533 9.65774 282.494 6.37001Z" fill="#757575"/>
<path d="M295.782 7.90514C295.864 8.00546 295.829 9.62194 295.828 9.87613C295.171 9.86641 294.514 9.86909 293.857 9.88415C293.902 10.5012 293.87 11.5537 293.869 12.2025L293.874 16.3873L292.088 16.3874L292.035 16.3801C291.984 16.2945 292.004 10.5358 291.999 9.86298L293.803 9.85901C293.802 9.24999 293.816 8.51754 293.766 7.92109C294.322 7.88019 295.202 7.90599 295.782 7.90514Z" fill="#757575"/>
<path d="M276.538 9.80365C276.854 9.79411 277.171 9.80454 277.486 9.83486C277.533 10.2125 277.522 11.0536 277.525 11.4563C277.359 11.4551 277.193 11.4561 277.026 11.4593C275.022 11.5118 275.247 13.1095 275.252 14.5926C275.25 15.19 275.259 15.7873 275.279 16.3843L273.427 16.3874C273.373 16.0933 273.43 15.0149 273.431 14.638C273.442 13.0464 273.438 11.4548 273.42 9.86323C273.628 9.86175 274.888 9.82042 275.129 9.90381C275.223 9.9365 275.148 10.4375 275.125 10.6028C275.556 10.1022 275.851 9.88778 276.538 9.80365Z" fill="#757575"/>
<path d="M248.631 7.25708C249.473 7.23147 250.429 7.25938 251.29 7.24902C251.291 7.55338 251.33 9.77215 251.253 9.87255L249.93 9.87473C249.976 9.39273 249.934 9.07783 249.945 8.61388L248.629 8.61828C248.642 8.16609 248.626 7.71075 248.631 7.25708Z" fill="#757575"/>
<path d="M224.225 22.0061C223.102 21.7764 222.187 21.3366 222.125 20.0179C222.079 19.0407 222.108 18.0388 222.108 17.0587L222.108 11.2474L222.107 6.876C222.107 6.17631 222.068 5.33028 222.16 4.64292C222.222 4.18325 222.55 3.61067 222.914 3.34157C223.049 3.25226 223.717 3.01033 223.888 3.00668C224.869 2.98575 225.885 2.99666 226.866 2.9979L232.742 2.99918L237.41 2.99761C237.876 2.99751 238.423 3.02491 238.866 2.99817C239.622 2.95257 240.439 3.36911 240.804 4.04809C241.258 4.89133 241.091 6.47352 241.09 7.44225L241.09 12.2932L241.093 17.5055C241.098 19.6595 241.59 21.5598 238.904 22.0061H224.225ZM229.894 10.762L233.337 10.7631C233.395 11.7457 233.366 13.205 233.341 14.2082C234.436 14.1693 235.583 14.2273 236.698 14.1923C236.783 14.0914 236.741 7.92927 236.715 7.31768C235.032 7.23752 233.172 7.342 231.472 7.30394C230.967 7.29266 230.396 7.32659 229.898 7.30422C229.905 8.4568 229.904 9.60941 229.894 10.762ZM226.444 17.6333C227.381 17.5568 228.843 17.6417 229.845 17.6128C229.841 16.5548 229.798 15.2618 229.837 14.228C228.763 14.212 227.503 14.1948 226.436 14.2318C226.51 15.1554 226.424 16.6483 226.444 17.6333Z" fill="#757575"/>
<path d="M343.141 0.279917C343.791 0.201041 345.337 0.273004 346.064 0.258829C347.006 0.240473 348.18 0.241784 349.119 0.299488C349.306 0.31097 349.603 0.46529 349.759 0.575862C350.143 0.846239 350.403 1.26008 350.48 1.72439C350.576 2.29964 349.789 5.06998 349.615 5.76586L348.079 11.9615L346.472 18.4358C346.187 19.5867 345.906 20.7371 345.608 21.8849C345.198 23.46 344.026 24.4463 342.429 24.7128C342.417 24.7146 342.404 24.7162 342.391 24.7178C342.122 24.7513 341.833 24.7555 341.562 24.756C340.096 24.7592 338.631 24.7568 337.166 24.7573C336.896 24.7574 336.623 24.7568 336.358 24.7083C335.359 24.5247 334.764 23.5223 335.015 22.5471C335.306 21.3389 335.607 20.1514 335.904 18.9535L337.687 11.7643L339.06 6.23192C339.323 5.15739 339.582 4.08436 339.869 3.01554C340.28 1.48369 341.579 0.450241 343.141 0.279917Z" fill="#757575"/>
<path d="M358.166 0.291727C358.172 0.290975 358.178 0.290076 358.185 0.289467C359.078 0.201174 360.038 0.270104 360.937 0.270255C361.608 0.270369 362.372 0.195709 363.033 0.289988C363.198 0.313593 363.354 0.36994 363.485 0.477537C363.664 0.625836 363.777 0.812566 363.799 1.04832C363.842 1.50698 361.869 10.679 361.598 11.4702C361.358 12.168 360.994 12.8168 360.524 13.3858C359.38 14.7723 357.887 15.5078 356.114 15.6756C355.144 15.7367 354.142 15.6901 353.168 15.6908C352.543 15.6912 351.806 15.7648 351.196 15.6633C351.057 15.6403 350.927 15.5716 350.82 15.4811C350.635 15.3237 350.506 15.1149 350.488 14.867C350.462 14.489 352.447 5.21802 352.712 4.4629C352.97 3.73792 353.358 3.0664 353.858 2.48166C354.942 1.20328 356.495 0.41429 358.166 0.291727Z" fill="#757575"/>
<path fill-rule="evenodd" clip-rule="evenodd" d="M396.715 2.90644C398.978 2.65837 400.756 4.01294 401.028 6.29706C401.306 8.6293 400.271 10.9392 397.714 11.2434C397.488 11.2546 397.266 11.2648 397.042 11.2619C394.769 11.2324 393.379 9.46942 393.328 7.28437C393.287 5.50163 393.995 3.76703 395.779 3.11249C396.095 2.9968 396.377 2.95524 396.702 2.90839C396.706 2.90768 396.711 2.90717 396.715 2.90644ZM404.462 2.91132C405.019 2.81947 406.089 2.92253 406.609 3.133C407.559 3.51815 407.971 4.02612 408.377 4.9123C407.683 5.10802 406.966 5.33433 406.273 5.54218C405.999 5.01479 405.659 4.74358 405.036 4.71503C404.814 4.70555 404.46 4.76743 404.312 4.94745C403.789 5.5811 404.904 5.73468 405.223 5.81464C406.076 6.02851 407.168 6.15175 407.83 6.74823C408.278 7.15695 408.545 7.72585 408.575 8.33027C408.666 10.3662 406.926 11.1972 405.136 11.2619C403.103 11.2785 401.915 10.7633 401.233 8.7746C401.999 8.62262 402.822 8.49138 403.595 8.3537C403.698 8.63485 403.808 8.83849 404.061 9.03632C404.489 9.39298 405.544 9.51275 405.924 9.03632C406.26 8.61448 405.572 8.3372 405.272 8.26484C403.843 7.92061 401.927 7.73129 401.691 5.93085C401.6 5.24503 401.74 4.59405 402.165 4.03925C402.748 3.2795 403.553 3.03459 404.462 2.91132ZM377.793 4.95331C379.305 4.94069 380.582 5.65945 380.984 7.19843C381.109 7.67799 381.104 8.11879 381.109 8.60859L377.066 8.60761C377.082 8.7907 377.104 9.06153 377.186 9.22577C377.289 9.43298 377.47 9.59163 377.689 9.66718C377.909 9.74277 378.15 9.72701 378.359 9.62323C378.683 9.45998 378.777 9.25113 378.886 8.9328C379.266 8.98869 380.964 9.00792 381.1 9.15839C380.765 10.272 379.923 11.0299 378.756 11.1965C377.725 11.3435 376.629 11.278 375.764 10.634C375.132 10.1701 374.713 9.4709 374.602 8.69452C374.324 6.72352 375.483 5.23768 377.438 4.96894C377.556 4.96039 377.675 4.95507 377.793 4.95331ZM369.771 3.04609C371.01 3.04338 372.512 2.90545 373.483 3.81073C374.454 4.71766 374.504 6.42472 373.566 7.37519C372.901 8.04883 372.156 8.21033 371.248 8.22577L369.88 8.22187L369.874 11.1818H367.294L367.295 3.04999L369.771 3.04609ZM388.873 3.0373C388.877 4.42632 388.905 5.97193 388.844 7.3498C389.259 6.76194 390.256 5.67233 390.759 5.09101L392.888 5.09003C392.488 5.61229 391.515 6.69043 391.064 7.17402C391.515 8.1092 392.034 9.10437 392.513 10.0256C392.708 10.406 392.899 10.7884 393.087 11.1721C392.281 11.1915 391.418 11.1772 390.608 11.1779C390.242 10.3748 389.868 9.57571 389.484 8.78144C389.28 9.01906 389.078 9.25862 388.88 9.50019C388.865 10.0402 388.875 10.6337 388.873 11.1779H386.619L386.62 3.03827L388.873 3.0373ZM385.898 4.96601L385.901 7.10273C384.569 6.98487 384.256 7.4795 384.28 8.76581C384.295 9.54914 384.292 10.3794 384.288 11.1662C383.813 11.1689 382.454 11.2082 382.047 11.1525C381.966 11.0576 381.992 11.0482 381.987 10.8898L381.989 5.06757C382.65 5.05292 383.339 5.06453 384.002 5.06659L384.011 6.13202C384.294 5.4097 384.541 5.12044 385.314 4.95624C385.484 4.9483 385.722 4.96117 385.898 4.96601ZM396.963 4.8039C395.81 5.39959 395.913 7.76841 396.335 8.83124C396.519 9.2947 396.977 9.47374 397.447 9.41425C398.13 9.14203 398.25 8.50932 398.313 7.81855C398.381 7.06831 398.401 6.23061 398.153 5.51288C397.924 4.9042 397.553 4.75088 396.963 4.8039ZM377.647 6.39667C377.141 6.60132 377.113 6.89782 377.036 7.42694L378.037 7.4289H378.633C378.584 6.67788 378.395 6.34214 377.647 6.39667ZM369.773 4.89374L369.77 6.45429C370.328 6.46313 370.971 6.54296 371.442 6.24921C371.644 6.00964 371.701 5.89007 371.683 5.55585C371.635 4.71747 370.331 4.88426 369.773 4.89374Z" fill="#757575"/>
<path d="M463.885 6.42373C463.484 6.03488 462.921 5.84723 462.209 5.84723C461.498 5.84723 460.91 6.04627 460.476 6.45519C460.042 6.86411 459.832 7.43844 459.832 8.17222V9.50799C459.832 9.99609 459.925 10.4202 460.118 10.7722C460.302 11.1026 460.575 11.3767 460.906 11.5645C461.247 11.7461 461.63 11.8391 462.018 11.8346C462.315 11.8346 462.558 11.7988 462.742 11.7234C462.9 11.6644 463.041 11.5675 463.151 11.4414C463.209 11.3739 463.26 11.3013 463.304 11.2245V11.7234H464.488V8.6793H461.901V9.76668H463.24C463.237 10.0454 463.156 10.2694 462.998 10.4462C462.841 10.623 462.597 10.7147 462.227 10.7147C461.858 10.7147 461.59 10.6062 461.398 10.3969C461.205 10.1875 461.101 9.89305 461.101 9.52426V8.15649C461.101 7.78174 461.203 7.49864 461.397 7.29364C461.59 7.08863 461.857 6.98288 462.211 6.98288C462.412 6.97462 462.612 7.01956 462.79 7.11304C462.933 7.18665 463.048 7.30233 463.12 7.44386C463.2 7.59431 463.241 7.76212 463.238 7.93197V8.09467H464.484V7.96451C464.484 7.32347 464.286 6.80554 463.882 6.42319H463.885V6.42373Z" fill="#757575"/>
<path d="M468.738 6.25414C468.447 6.12563 468.131 6.06257 467.812 6.06948H465.375V11.613H466.584V9.59422H467.905C468.04 9.59422 468.111 9.62917 468.147 9.67351H468.15C468.204 9.74026 468.231 9.82442 468.226 9.90982V11.6114H469.435V9.77054C469.435 9.53945 469.374 9.34436 469.241 9.19673C469.128 9.06687 468.97 8.98296 468.798 8.96095C469.01 8.86197 469.195 8.71384 469.338 8.52903C469.508 8.30942 469.588 8.02669 469.588 7.69075V7.59842C469.599 7.31562 469.523 7.03616 469.372 6.79647C469.22 6.55678 469 6.36798 468.738 6.25467V6.25414ZM466.585 7.17641H467.705C467.934 7.17641 468.097 7.23744 468.207 7.34699C468.266 7.40473 468.311 7.47409 468.341 7.5505C468.37 7.62692 468.383 7.70866 468.379 7.79038V7.86706C468.383 7.95049 468.369 8.03383 468.338 8.1116C468.308 8.18936 468.261 8.2598 468.201 8.31828C468.089 8.42261 467.929 8.48365 467.705 8.48365H466.583V7.17641H466.585Z" fill="#757575"/>
<path d="M471.705 10.5054V9.3718H473.979V8.26372H471.705V7.176H474.199V6.06897H470.476V11.613H474.246V10.5054H471.705Z" fill="#757575"/>
<path d="M476.289 10.5054V9.3718H478.43V8.26372H476.289V7.176H478.638V6.06897H475.133V11.613H478.681V10.5054H476.289Z" fill="#757575"/>
<path d="M482.715 6.06897H482.622V10.5926L481.628 6.14305L481.612 6.06897H479.568V11.613H480.727V7.09148L481.72 11.5394L481.737 11.613H483.781V6.06897H482.715Z" fill="#757575"/>
<path d="M488.869 6.88629C488.722 6.6283 488.506 6.41969 488.247 6.28587C487.968 6.13714 487.657 6.06272 487.343 6.06938H485.112V11.613H486.278V9.65522H487.346C487.655 9.66121 487.96 9.58959 488.236 9.44656C488.496 9.30699 488.715 9.09637 488.866 8.83779C489.027 8.55965 489.109 8.24071 489.103 7.91707V7.81274C489.111 7.49005 489.032 7.17137 488.875 6.89203V6.8889L488.869 6.88629ZM487.932 7.82526V7.90247C487.932 8.11113 487.868 8.26345 487.747 8.37508C487.627 8.48672 487.458 8.54984 487.244 8.54984H486.273V7.17633H487.244C487.459 7.17633 487.625 7.23736 487.747 7.35108C487.87 7.4648 487.932 7.61608 487.932 7.8237V7.82526Z" fill="#757575"/>
<path d="M490.079 6.06897H489.991V11.613H491.1V6.06897H490.079Z" fill="#757575"/>
<path d="M493.448 10.505V6.06897H492.208V11.613H495.978V10.505H493.448Z" fill="#757575"/>
<path d="M500.098 10.505H497.809V6.06897H496.644V11.613H500.192V10.505H500.098Z" fill="#757575"/>
<path d="M463.885 13.5209C463.485 13.131 462.904 12.9436 462.16 12.9436H459.831V14.0158H460.546V17.4139H459.831V18.4876H462.16C462.904 18.4876 463.482 18.3034 463.885 17.9181C464.288 17.5329 464.488 16.9566 464.488 16.2217V15.2106C464.488 14.4762 464.294 13.9056 463.886 13.522L463.885 13.5209ZM463.276 16.2499C463.276 16.6231 463.183 16.9003 463.011 17.0913C462.839 17.2824 462.573 17.3805 462.174 17.3805H461.756V14.046H462.174C462.573 14.046 462.844 14.1504 463.011 14.3357C463.178 14.521 463.276 14.7977 463.276 15.1767V16.2483V16.2499Z" fill="#757575"/>
<path d="M466.601 17.3835V16.245H468.878V15.1408H466.601V14.0472H469.098V12.9436H465.375V18.4876H469.145V17.3835H466.601Z" fill="#757575"/>
<path d="M474.344 12.9436H473.185L473.167 13.0146L472.028 17.5704L470.888 13.0146L470.87 12.9436H469.589L469.619 13.059L471.036 18.4177L471.054 18.4876H473.003L473.021 18.4177L474.436 13.059L474.468 12.9436H474.344Z" fill="#757575"/>
<path d="M482.069 13.2982C481.668 12.9097 481.104 12.7217 480.392 12.7217C479.68 12.7217 479.09 12.9211 478.657 13.3291C478.224 13.7371 478.016 14.3119 478.016 15.0464V16.3845C478.016 16.8734 478.11 17.2977 478.303 17.6498C478.487 17.9806 478.759 18.255 479.092 18.4424C479.431 18.6215 479.81 18.7132 480.195 18.7091C480.492 18.7091 480.736 18.6738 480.92 18.5978C481.078 18.5392 481.219 18.4423 481.329 18.3158C481.389 18.2468 481.442 18.172 481.487 18.0925V18.5978H482.673V15.5554H480.079V16.642H481.422C481.418 16.9218 481.337 17.1489 481.179 17.3265C481.021 17.5042 480.776 17.5982 480.403 17.5982C480.03 17.5982 479.764 17.4895 479.571 17.2798C479.374 17.0625 479.273 16.774 479.273 16.4046V15.0306C479.273 14.6552 479.375 14.37 479.569 14.1647C479.763 13.9593 480.032 13.8534 480.388 13.8534C480.59 13.8454 480.791 13.8904 480.969 13.9838C481.112 14.0582 481.228 14.1746 481.3 14.3168C481.381 14.4675 481.421 14.6356 481.418 14.8057V14.9687H482.667V14.8405C482.667 14.1984 482.468 13.6806 482.063 13.2982H482.069Z" fill="#757575"/>
<path d="M486.782 12.9447V16.6205C486.782 16.9348 486.693 17.1708 486.524 17.3424C486.355 17.5139 486.118 17.6024 485.777 17.6024C485.436 17.6024 485.192 17.5113 485.023 17.3419C484.854 17.1724 484.771 16.9343 484.771 16.6189V12.9457H483.56V16.587C483.56 17.0163 483.645 17.3941 483.819 17.7174C483.998 18.034 484.264 18.2911 484.586 18.4574C484.923 18.6273 485.32 18.7094 485.775 18.7094C486.23 18.7094 486.627 18.6273 486.958 18.4563C487.283 18.2925 487.55 18.0339 487.726 17.7142C487.911 17.3666 488.003 16.9769 487.994 16.5827V12.9436H486.878" fill="#757575"/>
<path d="M499.81 13.5209C499.409 13.131 498.828 12.9436 498.084 12.9436H495.757V14.0183H496.469V17.414H495.757V18.4876H498.084C498.828 18.4876 499.407 18.3028 499.811 17.9182C500.215 17.5335 500.414 16.9568 500.414 16.2219V15.2104C500.414 14.476 500.217 13.9055 499.812 13.5219L499.81 13.5209ZM497.682 14.0465H498.099C498.498 14.0465 498.769 14.1508 498.936 14.3361C499.104 14.5214 499.198 14.7975 499.198 15.177V16.2485C499.198 16.6217 499.106 16.8988 498.934 17.0899C498.761 17.2809 498.496 17.379 498.096 17.379H497.679V14.0449L497.682 14.0465Z" fill="#757575"/>
<path d="M492.632 17.384V12.9436H491.322V18.4876H495.313V17.384H492.632Z" fill="#757575"/>
<path d="M489.206 12.9436H489.104V18.4876H490.434V12.9436H489.206Z" fill="#757575"/>
<path d="M457.548 5.33777C457.083 4.06932 456.15 3.02577 454.941 2.41971C453.731 1.81366 452.335 1.69071 451.038 2.07592C449.742 2.47159 448.7 3.33947 448.103 4.51948L445.057 10.5494H445.06L442.382 15.8559C442.087 16.4411 441.915 17.0804 441.877 17.7344C441.839 18.3883 441.936 19.0431 442.161 19.6584C442.618 20.9304 443.553 21.9757 444.767 22.5742C445.508 22.9474 446.325 23.1427 447.155 23.1445C447.669 23.1446 448.179 23.0683 448.67 22.9181C449.3 22.7316 449.885 22.4187 450.389 21.9986C450.894 21.5786 451.307 21.0601 451.604 20.4751L454.651 14.4479H454.648L457.328 9.14461C457.619 8.55765 457.789 7.91788 457.827 7.2637C457.865 6.60952 457.771 5.95443 457.548 5.33777ZM450.882 20.1107C450.634 20.5982 450.289 21.03 449.869 21.3799C449.448 21.7297 448.96 21.9901 448.435 22.1451C447.337 22.4695 446.157 22.3649 445.134 21.8527C444.111 21.3404 443.321 20.4588 442.926 19.3868C442.737 18.8746 442.656 18.3295 442.687 17.7848C442.717 17.2401 442.86 16.7075 443.104 16.2198L445.784 10.9138L453.561 14.8085L450.882 20.1107ZM456.642 8.69935L453.923 14.0813L446.148 10.1893L448.83 4.88388C449.077 4.39627 449.422 3.9643 449.843 3.61447C450.264 3.26464 450.752 3.00432 451.278 2.84947C452.375 2.52567 453.555 2.63045 454.577 3.14257C455.6 3.65469 456.389 4.53582 456.785 5.6073C456.969 6.10631 457.05 6.63679 457.026 7.16771C457.001 7.69863 456.871 8.21933 456.642 8.69935Z" fill="#757575"/>
<path d="M455.212 9.65365C455.724 9.14185 456.072 8.48987 456.213 7.78013C456.354 7.0704 456.281 6.33478 456.004 5.66628C455.727 4.99778 455.258 4.42642 454.657 4.02443C454.055 3.62245 453.348 3.4079 452.624 3.4079C451.901 3.4079 451.193 3.62245 450.591 4.02443C449.99 4.42642 449.521 4.99778 449.244 5.66628C448.967 6.33478 448.894 7.0704 449.035 7.78013C449.176 8.48987 449.525 9.14185 450.036 9.65365C450.376 9.99362 450.779 10.2633 451.223 10.4473C451.668 10.6313 452.143 10.726 452.624 10.726C453.105 10.726 453.581 10.6313 454.025 10.4473C454.469 10.2633 454.872 9.99362 455.212 9.65365Z" fill="#757575"/>
<path d="M584.587 13.9447C584.587 13.8691 584.577 13.7946 584.571 13.7201C584.571 13.6916 584.571 13.6621 584.564 13.6336C584.556 13.5372 584.545 13.4419 584.532 13.3477C584.533 13.3426 584.533 13.3375 584.532 13.3324C584.519 13.2316 584.503 13.1308 584.485 13.0323C584.202 11.4544 583.388 10.0278 582.184 9.00077C580.979 7.97374 579.461 7.41129 577.893 7.41129C576.325 7.41129 574.807 7.97374 573.603 9.00077C572.398 10.0278 571.584 11.4544 571.301 13.0323H565.421V15.5022V15.5121H569.515C569.246 16.4475 568.681 17.2646 567.907 17.834C567.134 18.4034 566.197 18.6926 565.245 18.6559C564.292 18.6191 563.379 18.2585 562.65 17.631C561.921 17.0036 561.417 16.1452 561.218 15.1918C561.019 14.2383 561.137 13.2443 561.553 12.367C561.968 11.4896 562.658 10.7792 563.512 10.3481C564.367 9.91697 565.338 9.78981 566.271 9.98673C567.204 10.1836 568.047 10.6934 568.665 11.4353L570.66 10.0015C569.979 9.12702 569.099 8.43636 568.097 7.9898C567.094 7.54323 566.001 7.35433 564.911 7.43955C563.821 7.52478 562.768 7.88156 561.844 8.47876C560.92 9.07595 560.153 9.89544 559.609 10.8657V3.86774H557.147V8.96206C556.328 8.27636 555.362 7.79889 554.327 7.56876C553.293 7.33863 552.22 7.36237 551.197 7.63806C550.173 7.91374 549.228 8.43352 548.439 9.15484C547.65 9.87615 547.039 10.7785 546.656 11.788C546.121 10.3799 545.146 9.19194 543.883 8.40859C542.621 7.62524 541.141 7.29033 539.673 7.45585C538.205 7.62137 536.832 8.27807 535.767 9.32397C534.701 10.3699 534.003 11.7465 533.78 13.24C533.558 14.7335 533.824 16.2604 534.536 17.5836C535.249 18.9068 536.369 19.9523 537.721 20.5576C539.074 21.163 540.585 21.2944 542.018 20.9315C543.451 20.5685 544.727 19.7316 545.648 18.5505L543.666 17.1101C543.049 17.8491 542.208 18.3566 541.278 18.5522C540.347 18.7478 539.379 18.6205 538.528 18.1903C537.676 17.7601 536.988 17.0517 536.574 16.177C536.16 15.3023 536.042 14.3112 536.24 13.3606C536.438 12.41 536.94 11.554 537.667 10.928C538.394 10.302 539.304 9.94177 540.253 9.90423C541.202 9.86668 542.137 10.154 542.909 10.7207C543.68 11.2874 544.245 12.1012 544.515 13.0334H540.417V13.0432V15.5132H546.319C546.584 16.9825 547.311 18.3231 548.389 19.331C549.467 20.3389 550.838 20.959 552.292 21.097C553.746 21.235 555.204 20.8833 556.445 20.0954C557.686 19.3076 558.641 18.1266 559.166 16.7323C559.65 18.022 560.503 19.1321 561.614 19.9172C562.725 20.7022 564.042 21.1257 565.392 21.1319C566.742 21.1382 568.063 20.7271 569.181 19.9523C570.298 19.1776 571.162 18.0755 571.657 16.7903C572.088 17.9092 572.799 18.8924 573.719 19.6411C574.639 20.3899 575.735 20.878 576.898 21.0563C578.06 21.2346 579.248 21.097 580.342 20.6572C581.436 20.2173 582.398 19.4908 583.131 18.5505L581.14 17.1101C580.522 17.8487 579.682 18.3557 578.751 18.5508C577.82 18.7458 576.853 18.618 576.001 18.1873C575.149 17.7567 574.462 17.0479 574.049 16.173C573.635 15.2981 573.518 14.307 573.716 13.3565C573.915 12.406 574.417 11.5503 575.144 10.9247C575.871 10.2991 576.781 9.93931 577.731 9.90224C578.68 9.86517 579.614 10.1529 580.386 10.72C581.157 11.2871 581.722 12.1011 581.991 13.0334H577.895V13.0432V15.5132H584.488C584.547 15.1876 584.583 14.8582 584.595 14.5274C584.595 14.4595 584.601 14.3751 584.601 14.2689C584.601 14.1626 584.592 14.0542 584.587 13.9447ZM552.906 18.6129C552.069 18.6131 551.25 18.3595 550.553 17.8839C549.855 17.4084 549.312 16.7324 548.99 15.941C548.668 15.1496 548.582 14.2785 548.743 13.4373C548.905 12.5962 549.306 11.8228 549.896 11.2147C550.487 10.6066 551.24 10.1911 552.061 10.0204C552.882 9.84983 553.734 9.93181 554.51 10.256C555.285 10.5803 555.95 11.1322 556.419 11.8423C556.888 12.5524 557.142 13.3887 557.147 14.2459V14.2733C557.146 15.4237 556.699 16.5266 555.904 17.3402C555.109 18.1538 554.031 18.6115 552.906 18.6129Z" fill="#757575"/>
<path d="M625.737 3.5139C626.122 3.45446 626.933 3.51454 627.324 3.59351C628.31 3.79239 629.067 4.08123 629.645 4.90014C629.898 4.72365 630.123 4.57193 630.397 4.41133C632.58 3.12702 635.947 3.15661 636.995 5.80841C637.215 6.36298 637.235 6.68537 637.272 7.27016C637.471 6.62561 638.121 5.20898 638.688 4.80871C639.337 4.3506 639.906 4.13095 640.713 4.217C642.018 4.3562 642.334 5.03744 643.044 5.89235C643.594 4.98315 644.902 4.17107 646.027 4.2446C646.72 4.28993 647.149 4.68692 647.575 5.17073C647.714 5.08359 647.982 4.92826 648.142 4.89721C652.162 4.11733 657.36 4.01168 661.07 5.89632C661.199 5.84506 661.28 5.79153 661.397 5.72124C663.367 4.55519 665.952 3.88046 668.244 4.38229C669.509 4.67935 670.519 5.63317 670.14 6.95471C669.799 8.1459 668.76 9.00215 667.7 9.60832C669.559 10.1585 669.425 11.4666 668.4 12.775C668.916 12.6637 669.581 12.7162 670.11 12.7448C670.111 12.6971 670.114 12.6494 670.119 12.6019C670.139 12.4114 670.181 12.1976 670.216 12.0011C670.552 10.0668 670.912 8.08985 671.537 6.2219C671.607 6.00998 672.12 5.57727 672.321 5.42058C673.563 4.45237 675.125 3.76576 676.755 3.88706C679.057 4.04965 680.475 5.87678 680.212 8.04867C679.961 10.1209 678.823 11.5671 677.162 12.8384C678.43 13.8715 679.249 14.6044 680.147 15.9823C680.083 15.5836 680.008 15.1321 679.967 14.7352C679.72 11.9534 680.555 8.89647 682.373 6.70707C683.964 4.78996 686.565 3.81431 688.737 5.5607C688.727 5.07528 688.633 4.93803 688.486 4.48695C688.58 4.24576 689.261 4.11112 689.507 4.13786C690.212 4.21457 690.065 5.08169 690.009 5.54378C690.598 5.14747 691.298 5.02086 691.987 5.19045C692.329 5.27469 692.955 5.31209 693.218 5.54635C693.596 6.24271 691.776 7.30014 691.195 7.35285C690.771 7.39135 690.558 7.39818 690.14 7.34617C692.114 10.6948 690.897 16.8533 687.905 19.411C685.814 21.1981 683.521 21.2409 681.623 19.1909L681.287 18.7081C681.301 19.1607 681.325 19.7473 681.106 20.1525C679.798 22.5717 675.745 19.7853 674.708 18.5296C674.493 18.8663 674.238 19.1799 673.992 19.494C672.15 21.8413 670.277 21.1591 669.979 18.2921C669.602 18.5866 669.157 18.8649 668.738 19.103C667.312 19.9245 665.729 20.4605 664.082 20.6786C663.169 20.8037 662.951 20.7809 662.052 20.6436C661.469 20.5964 660.877 20.6129 660.308 20.4476C656.077 19.2187 657.46 14.8982 660.509 13.2127C659.069 12.6328 658.223 11.836 658.26 10.2652C657.649 10.3727 657.286 10.4363 656.668 10.4464C656.635 11.8479 656.489 13.2448 656.231 14.6246C655.867 16.5998 654.851 19.9484 653.096 21.2185C652.776 21.4346 652.185 21.5702 651.805 21.4837C650.287 21.1376 649.928 18.9675 649.749 17.7507C649.359 15.1035 649.842 12.5734 650.382 10.003C649.678 9.92144 649.161 9.86034 648.468 9.71612L648.464 9.9845C648.406 13.254 647.167 17.0385 644.699 19.3872C642.798 21.1959 640.252 21.6716 638.242 19.6608C636.681 22.4397 633.202 19.5754 631.72 18.2225C631.063 19.2591 629.085 21.7865 627.731 20.0311C626.751 18.7595 626.708 15.7586 626.944 14.1959C626.433 14.5935 625.93 14.925 625.35 15.2301C625.121 15.3502 624.691 15.4092 624.494 15.5685C624.606 16.0781 624.513 16.0844 624.368 16.5819C623.98 17.9083 622.975 20.3271 621.333 20.4933C619.015 20.7278 618.186 16.9634 618 15.3532C617.775 13.3226 617.906 11.3063 618.325 9.30555C618.546 8.24932 618.69 7.48164 619.411 6.62668C620.998 4.74515 623.277 3.80048 625.737 3.5139ZM634.138 12.5302C634.597 12.8576 634.879 13.1006 635.3 13.469C635.609 13.7643 635.878 14.0411 636.172 14.3514C636.101 13.4967 636.101 12.6379 636.172 11.7832C636.194 11.5344 636.409 10.2734 636.393 10.1683C635.879 11.0126 635.026 12.0253 634.138 12.5302Z" fill="#08080B"/>
<path d="M640.198 4.95624C640.987 4.90038 641.591 5.20685 642.039 5.84858C643.46 7.90006 642.85 10.8413 642.545 13.1384C642.503 13.4594 642.12 14.4313 642.332 14.5997C642.966 15.0918 643.128 13.9325 643.203 13.5956C643.7 11.3713 643.781 9.1154 643.473 6.86512C643.435 6.58483 643.935 5.89977 644.194 5.73028C645.218 5.06035 645.962 4.51448 646.926 5.60245C646.412 6.02886 645.937 6.32454 645.717 6.98216C645.27 8.31682 646.609 9.11091 647.722 9.46183C647.722 10.2215 647.695 10.6156 647.573 11.3552C647.349 13.691 646.435 15.9584 644.998 17.9105C643.421 20.1094 640.213 21.3376 638.407 18.6167C638.162 18.2484 638.066 17.3514 637.828 16.8998C637.48 16.2368 637.153 15.7943 637.043 15.0458C636.676 12.4212 637.036 9.74998 638.085 7.30121C638.481 6.3866 639.046 5.11002 640.198 4.95624Z" fill="#757575"/>
<path d="M665.978 4.99715C666.631 4.94619 667.251 4.95626 667.892 5.08317C668.723 5.24745 669.684 5.80059 669.376 6.76494C668.952 8.0923 667.231 9.14858 665.939 9.63789C665.302 9.87886 664.561 10.0137 663.938 10.3057C663.756 10.3833 663.694 10.6206 663.822 10.7613C663.897 10.8441 664.053 10.9598 664.171 10.9524C664.877 10.9086 665.535 10.5199 666.221 10.3648C666.828 10.2446 667.819 10.1915 668.235 10.7396C668.594 11.2125 668.106 11.8478 667.846 12.2151C667.158 13.1889 666.294 13.198 665.272 13.6344C664.931 13.7802 664.085 14.0537 664.512 14.5621C664.585 14.6487 664.749 14.7781 664.874 14.7687C665.83 14.6962 666.613 13.9732 667.504 13.6998C668.386 13.4532 669.161 13.4232 670.046 13.5C669.947 14.6618 669.811 16.1869 669.921 17.3401C669.628 17.596 669.379 17.7689 669.057 17.9843C668.859 18.1317 668.568 18.3053 668.365 18.4173C666.52 19.4349 664.343 20.2292 662.188 19.8269C661.977 19.7873 661.403 19.8522 661.105 19.8205C660.272 19.732 659.513 19.444 658.957 18.8152C657.502 17.0544 659.3 14.7632 660.964 13.8396C661.188 13.7154 661.634 13.4507 661.656 13.2032C661.706 12.6402 660.765 12.5 660.354 12.3086C660.059 12.1742 659.795 11.9861 659.576 11.7549C659.073 11.2179 659.004 10.6977 659.044 10.0127C660.075 9.73067 661.129 9.39288 661.896 8.6297C662.6 7.92983 662.464 7.03614 661.733 6.41024C663.114 5.64917 664.371 5.17173 665.978 4.99715Z" fill="#757575"/>
<path d="M686.066 5.40568C687.04 5.29262 687.975 5.83237 688.615 6.49069C688.566 7.07793 688.44 7.53275 688.068 8.01064C687.444 7.85989 687.576 7.79282 687.059 7.42303C686.995 7.37703 686.881 7.40737 686.804 7.42458C686.288 7.85306 687.541 8.66666 687.946 8.77016C688.37 8.87821 689.345 8.77027 689.469 8.31634C689.472 8.10954 689.355 8.00048 689.144 7.98278L689.115 7.98067L689.09 7.93556C689.182 7.78871 689.276 7.64333 689.373 7.49951C689.507 7.88285 689.74 8.28522 689.855 8.67349C690.837 11.9878 690.092 15.8772 687.752 18.4756C687.044 19.2028 686.194 19.7995 685.14 19.9163C682.293 20.2321 681.006 17.1321 680.783 14.8953C680.521 12.2648 681.207 9.35362 682.933 7.24987C683.729 6.28014 684.761 5.54539 686.066 5.40568Z" fill="#757575"/>
<path d="M685.832 10.6981C686.103 10.6796 686.391 10.7904 686.341 11.0849C686.29 11.3889 685.939 11.3444 685.757 11.6235C685.498 11.9878 685.362 12.3763 685.27 12.8041C685.204 13.106 685.19 13.2974 684.93 13.4986C683.855 13.762 684.817 11.6925 685.03 11.3888C685.285 11.0268 685.413 10.8732 685.832 10.6981Z" fill="#08080B"/>
<path d="M632.975 4.36696C633.705 4.27285 634.728 4.414 635.307 4.87309C637.989 7.00024 635.54 11.1745 632.994 12.3283C632.719 12.4531 632.152 12.6999 631.987 12.9159C631.836 13.8302 633.144 13.0817 633.465 12.9091C633.656 13.1944 634.202 13.5407 634.489 13.7882C635.151 14.3618 635.818 15.0512 636.305 15.7713C636.572 16.1664 636.72 17.0033 636.904 17.4562C637.084 17.9002 637.443 18.4058 637.539 18.8385C637.646 19.3153 637.258 19.9875 636.706 19.9962C635.595 20.1054 634.571 19.487 633.718 18.8985C633.398 18.6792 633.192 18.5154 632.903 18.2591C632.666 18.0486 632.352 17.7199 632.083 17.573C632.251 17.2714 632.428 16.9972 632.577 16.6841C632.783 16.2495 632.312 15.8543 631.994 16.233C631.743 16.533 631.582 16.9258 631.379 17.2622C630.854 18.1334 630.266 19.1379 629.359 19.6909C628.877 19.9794 628.385 19.7995 628.17 19.3018C627.552 17.8755 627.68 16.2058 627.718 14.693C627.763 14.3804 627.717 13.7011 627.825 13.4261C628.271 12.2859 628.939 11.9021 628.242 10.5964C628.315 10.1542 628.418 9.21172 628.675 8.89C629.513 7.84163 630.179 7.06709 629.944 5.62833C630.825 4.96606 631.854 4.48489 632.975 4.36696Z" fill="#757575"/>
<path d="M633.585 7.3273C633.821 7.2885 633.989 7.30438 634.14 7.50662C634.256 8.01693 633.368 8.10533 633.018 8.38317C632.503 8.79225 632.298 9.17062 631.956 9.69321C631.301 9.81781 631.307 9.32779 631.563 8.92075C632.063 8.1267 632.668 7.60737 633.585 7.3273Z" fill="#08080B"/>
<path d="M676.116 4.66454C677.474 4.57572 678.738 5.08487 679.227 6.384C679.998 8.43282 678.596 10.7936 676.927 12.0414C676.585 12.2971 676.21 12.5264 675.83 12.7252C675.543 12.8757 675.101 12.92 674.953 13.2331C674.877 13.365 674.974 13.6243 675.135 13.6579C675.522 13.7385 676.082 13.4044 676.413 13.2462C676.814 13.6055 677.271 13.9031 677.704 14.3033C678.944 15.4509 680.233 17.1293 680.514 18.797C680.563 19.1187 680.566 19.7196 680.305 19.9725C679.158 21.0793 676.828 19.3406 675.98 18.6632C675.678 18.4005 675.387 18.1283 675.104 17.8471C675.225 17.5585 675.425 17.2315 675.565 16.9324C675.833 16.5123 675.148 16.184 674.959 16.5175C673.795 18.5743 671.294 22.9175 670.689 17.6654C671.169 17.1759 671.61 16.7258 671.943 16.1283C672.359 15.3805 672.547 14.4491 671.985 13.7213C671.692 13.3418 671.308 13.1667 670.888 12.9485C671.229 10.5519 671.605 8.89583 672.233 6.5431C673.331 5.48063 674.542 4.80603 676.116 4.66454Z" fill="#757575"/>
<path d="M676.609 7.62015C677.12 7.54029 677.306 8.0552 676.871 8.2751C676.603 8.36861 676.379 8.47489 676.125 8.59326C675.552 8.85971 675.268 9.68789 674.894 9.98854C674.347 10.064 674.286 9.6637 674.505 9.29246C675.052 8.36602 675.608 7.96242 676.609 7.62015Z" fill="#08080B"/>
<path d="M626.093 4.32992C627.195 4.20955 628.407 4.46062 629.047 5.39699C628.919 5.5428 628.756 5.68281 628.653 5.84443C628.198 6.55439 628.254 7.66964 627.895 8.44132C627.465 9.36517 625.179 10.238 624.182 10.5138C623.802 10.6188 623.343 10.648 622.984 10.7939C622.896 10.8294 622.817 10.9063 622.781 10.9913C622.747 11.0731 622.757 11.1696 622.793 11.2495C623.059 11.8416 625.724 10.7497 626.242 10.6978C626.639 10.6581 627.049 10.7488 627.42 10.8781C627.302 11.4786 627.271 12.8263 626.872 13.2248C626.159 13.9363 625.14 14.5263 624.167 14.8447C623.782 14.9707 622.731 14.9562 622.677 15.445C622.749 15.7957 623.155 15.7893 623.437 15.7522C623.584 15.7363 623.637 15.703 623.737 15.7711C623.751 15.9221 623.656 16.1414 623.613 16.3176C623.348 17.3843 622.073 20.6574 620.461 19.5067C619.511 18.8287 618.993 16.7322 618.854 15.6009C618.589 13.4099 618.662 11.1352 619.219 8.99018C619.414 8.23983 619.535 7.68255 620.055 7.06233C620.525 6.50131 621.225 5.89815 621.89 5.55224C623.017 4.96617 624.829 4.47539 626.093 4.32992Z" fill="#757575"/>
<path d="M651.918 5.18398C654.826 4.95646 657.75 5.3712 660.465 6.39642C660.041 6.74092 660.082 6.79682 659.77 7.17934C659.143 7.94701 658.771 8.49928 658.425 9.41774C658.086 9.48804 655.995 9.75219 655.929 10.0659C655.803 10.6544 655.836 11.5299 655.772 12.1574C655.555 14.2788 655.006 17.1964 653.907 19.0596C653.722 19.3791 653.528 19.6828 653.296 19.9726C653.048 20.281 652.632 20.7256 652.201 20.7705C651.981 20.7934 651.763 20.705 651.598 20.5704C650.089 19.3378 650.377 14.1386 650.692 12.3726C650.778 11.889 651.32 9.72218 651.301 9.47535C651.038 9.20745 650.162 9.2237 649.778 9.16713C649.327 9.10092 648.891 9.01731 648.444 8.93162C648.405 8.35917 648.399 7.72738 648.34 7.16884C648.305 6.83643 648.058 6.16283 647.944 5.84026C649.308 5.36546 650.484 5.29348 651.918 5.18398Z" fill="#757575"/>
<path d="M661.132 6.89252C661.304 6.9492 661.456 7.14981 661.527 7.3079C661.609 7.49423 661.608 7.70467 661.525 7.89063C661.264 8.47609 660.283 8.84552 659.712 9.06245L659.337 9.20949C659.671 8.30349 660.44 7.55555 661.132 6.89252Z" fill="#757575"/>
<path d="M647.259 6.28369C647.452 6.5126 647.655 8.33918 647.684 8.70457L647.13 8.42866C645.925 7.76915 646.33 6.92487 647.259 6.28369Z" fill="#757575"/>
<path d="M670.77 13.7137C672.074 14.2734 671.587 15.3254 671.018 16.231L670.628 16.6791C670.632 15.6892 670.679 14.6998 670.77 13.7137Z" fill="#757575"/>
<path d="M692.049 5.75903C692.25 5.77064 692.418 5.81775 692.613 5.86501C691.988 6.63603 691.189 6.93694 690.194 6.81594C690.832 6.42236 691.29 6.31286 692.034 6.22008C692.098 6.21207 692.151 6.06966 692.167 6.01643C692.142 5.8843 692.134 5.8705 692.033 5.77688L692.049 5.75903Z" fill="#757575"/>
<path d="M689.937 6.35724C690.573 5.6556 691.126 5.56854 692.049 5.75909L692.033 5.77693C691.47 5.59532 690.425 6.10467 689.937 6.35724Z" fill="#757575"/>
<path d="M689.245 4.69904C689.335 4.7179 689.426 4.72556 689.463 4.79993C689.602 5.07577 689.418 5.8741 689.348 6.15494L689.298 6.15787C689.287 6.14189 689.262 4.86838 689.245 4.69904Z" fill="#757575"/>
<path d="M629.243 6.34546C629.305 6.54351 629.082 7.03472 628.999 7.21507C628.926 7.06461 629.167 6.50126 629.243 6.34546Z" fill="#787577"/>
<g clip-path="url(#clip0_7_212)">
<path d="M743 6.06256C743.112 6.02859 743.304 5.90785 743.414 5.85043C743.634 5.73632 743.858 5.63168 744.087 5.53684C744.688 5.28958 745.344 5.12774 745.968 4.93741C746.384 4.81033 746.804 4.68125 747.231 4.5885C747.602 4.50768 747.693 5.06529 747.769 5.31628C747.92 5.81816 748.068 6.32123 748.228 6.8208C748.634 8.09782 748.728 9.37653 748.636 10.703L748.664 10.7312C749.561 10.6858 750.72 10.7174 751.634 10.7172V14.4321C751.588 14.6274 751.566 14.8334 751.537 15.0319C751.48 15.4276 751.38 15.8264 751.266 16.2102C750.559 18.6077 748.956 20.6708 746.765 22.0053C745.684 22.6634 744.482 23.1202 743.224 23.3515C742.945 23.3993 742.664 23.4395 742.382 23.4722C742.295 23.4821 742.055 23.4961 741.994 23.5126H736.237C736.158 23.4823 736.103 23.4862 736.022 23.4856C735.715 23.4828 735.405 23.4193 735.103 23.3696C734.063 23.1958 733.057 22.8657 732.124 22.3911C729.656 21.1362 727.81 18.9891 726.993 16.4242C726.862 16.0139 726.769 15.6344 726.684 15.2137C726.65 15.0474 726.605 14.5686 726.564 14.4491L726.559 14.4351V10.7218C727.212 10.7168 727.864 10.7155 728.517 10.7177C728.762 10.7179 729.349 10.7057 729.568 10.7377C729.532 10.4527 729.529 10.1491 729.525 9.86181C729.509 8.42344 729.812 7.3683 730.202 6.00026C730.304 5.6436 730.384 5.17569 730.569 4.85832C730.599 4.80776 730.661 4.70956 730.725 4.6973C730.907 4.66255 733.137 5.32113 733.478 5.42965C733.722 5.50713 733.964 5.59652 734.203 5.6886C734.538 5.81828 734.872 5.98557 735.186 6.15759L735.73 6.47654C735.959 6.63057 736.244 6.80792 736.459 6.96983C737.491 7.74811 738.451 8.79058 739.084 9.8996C739.152 9.83307 739.576 9.14257 739.705 8.96823C740.424 8.00095 741.392 7.0487 742.44 6.41286C742.625 6.29422 742.812 6.17744 743 6.06256Z" fill="#08080B"/>
<path d="M729.568 10.7377C729.532 10.4527 729.529 10.1491 729.525 9.86183C729.509 8.42346 729.812 7.36831 730.202 6.00028C730.304 5.64362 730.384 5.1757 730.569 4.85834C730.599 4.80777 730.661 4.70957 730.725 4.69731C730.907 4.66257 733.137 5.32114 733.478 5.42966C733.722 5.50715 733.964 5.59654 734.203 5.68862C734.538 5.81829 734.872 5.98558 735.186 6.1576L735.73 6.47655C735.959 6.63059 736.244 6.80794 736.459 6.96984C737.491 7.74813 738.451 8.7906 739.084 9.89962C739.213 10.1023 739.338 10.3459 739.448 10.5607C740.025 11.8033 740.373 13.0004 740.46 14.3652C740.471 14.5478 740.428 14.8902 740.467 15.0529C740.264 15.3649 739.981 15.8574 739.787 16.1308C739.53 16.6764 739.283 17.2037 739.092 17.7758C738.721 16.5762 737.99 15.3116 737.164 14.3499C735.443 12.3191 732.947 11.0348 730.233 10.7837C730.023 10.7439 729.794 10.7666 729.568 10.7377Z" fill="#757575"/>
<path d="M729.568 10.7377C729.532 10.4527 729.529 10.1491 729.525 9.86182C729.509 8.42346 729.812 7.36831 730.202 6.00028C730.304 5.64362 730.384 5.1757 730.569 4.85834C730.599 4.80777 730.661 4.70957 730.725 4.69731C730.907 4.66257 733.137 5.32114 733.478 5.42966C733.722 5.50715 733.964 5.59654 734.203 5.68862C734.538 5.81829 734.872 5.98558 735.186 6.1576L735.73 6.47655C735.959 6.63059 736.244 6.80794 736.459 6.96984C737.491 7.74813 738.451 8.7906 739.084 9.89962C739.213 10.1023 739.338 10.3459 739.448 10.5607C740.025 11.8033 740.373 13.0004 740.46 14.3652C740.471 14.5478 740.428 14.8902 740.467 15.0529C740.264 15.3649 739.981 15.8574 739.787 16.1308C739.737 15.9474 739.845 15.143 739.836 14.8392C739.786 13.0951 739.328 11.4419 738.369 9.95109C737.314 8.29347 735.741 6.9983 733.875 6.2505C733.322 6.03185 732.76 5.87791 732.186 5.72271C731.821 5.62391 731.422 5.50101 731.056 5.41776C730.888 5.93723 730.756 6.47118 730.595 6.9923C730.213 8.23003 730.102 9.49586 730.233 10.7837C730.023 10.7439 729.794 10.7666 729.568 10.7377Z" fill="#08080B"/>
<path d="M743 6.06256C743.112 6.02859 743.304 5.90785 743.414 5.85043C743.634 5.73632 743.858 5.63168 744.087 5.53684C744.688 5.28958 745.344 5.12774 745.968 4.93741C746.384 4.81033 746.804 4.68125 747.231 4.5885C747.602 4.50768 747.693 5.06529 747.769 5.31628C747.921 5.81816 748.068 6.32123 748.228 6.8208C748.634 8.09782 748.728 9.37653 748.636 10.703C748.583 10.772 748.081 10.7729 747.964 10.7781C747.848 10.8095 747.67 10.7985 747.536 10.8184C747.15 10.8779 746.768 10.9537 746.389 11.0455C744.528 11.5138 742.842 12.4735 741.52 13.8157C741.19 14.1566 740.89 14.5059 740.605 14.8817C740.564 14.9368 740.514 15.0029 740.467 15.0529C740.428 14.8902 740.471 14.5478 740.46 14.3652C740.373 13.0004 740.025 11.8033 739.448 10.5607C739.338 10.3458 739.213 10.1023 739.084 9.8996C739.153 9.83307 739.576 9.14257 739.705 8.96823C740.424 8.00095 741.392 7.0487 742.44 6.41286C742.625 6.29422 742.812 6.17744 743 6.06256Z" fill="#757575"/>
<path d="M743 6.06256C743.112 6.02859 743.304 5.90785 743.414 5.85043C743.634 5.73632 743.858 5.63168 744.087 5.53684C744.688 5.28958 745.344 5.12774 745.968 4.93741C746.384 4.81033 746.804 4.68125 747.231 4.5885C747.602 4.50768 747.693 5.06529 747.769 5.31628C747.921 5.81816 748.068 6.32123 748.228 6.8208C748.634 8.09782 748.728 9.37653 748.636 10.703C748.583 10.772 748.081 10.7729 747.964 10.7781C747.962 10.6122 747.989 10.4117 748.002 10.2418C748.137 8.47427 747.573 6.93992 747.067 5.26916C746.926 5.34242 746.409 5.48059 746.23 5.53381C745.626 5.71316 745.037 5.86665 744.448 6.09468C742.745 6.7632 741.28 7.88983 740.227 9.33917C740.006 9.63817 739.812 9.93603 739.639 10.2627C739.586 10.3628 739.525 10.4769 739.448 10.5607C739.338 10.3458 739.213 10.1023 739.084 9.8996C739.153 9.83307 739.576 9.14257 739.705 8.96823C740.424 8.00095 741.392 7.0487 742.44 6.41286C742.625 6.29422 742.812 6.17744 743 6.06256Z" fill="#08080B"/>
<path d="M727.506 11.6678L729.102 11.6672C731.618 11.6527 734.035 12.6065 735.814 14.3157C737.415 15.8702 738.393 17.9172 738.576 20.0962C738.637 20.7968 738.604 21.8347 738.602 22.5614L737.075 22.5626C734.446 22.562 732.169 21.7048 730.296 19.918C728.647 18.3448 727.665 16.1821 727.519 13.9654C727.501 13.6814 727.507 13.3715 727.507 13.0841L727.506 11.6678Z" fill="#757575"/>
<path d="M748.667 11.6765C749.162 11.6377 750.15 11.6669 750.688 11.668C750.676 12.3733 750.721 13.2692 750.675 13.9533C750.545 15.9944 749.716 17.9369 748.319 19.4796C747.011 20.9259 745.256 21.9324 743.31 22.3521C742.72 22.4765 742.262 22.5185 741.664 22.5593L739.591 22.5622C739.589 21.3473 739.523 20.152 739.784 18.9561C740.115 17.4421 740.814 16.0607 741.85 14.8779C743.263 13.2588 745.226 12.1713 747.392 11.8073C747.77 11.7423 748.279 11.7087 748.667 11.6765Z" fill="#757575"/>
<path d="M738.979 1.48743H739.217C739.587 1.75611 739.917 2.15848 740.248 2.47559C741.013 3.20663 741.685 3.85657 742.263 4.7501C742.434 5.01753 742.593 5.29096 742.743 5.56984C742.826 5.72685 742.911 5.91539 743 6.06255C742.812 6.17743 742.625 6.29421 742.44 6.41286C741.392 7.04869 740.424 8.00094 739.705 8.96823C739.576 9.14256 739.152 9.83307 739.084 9.8996C738.451 8.79058 737.491 7.74811 736.459 6.96982C736.244 6.80792 735.959 6.63057 735.73 6.47653L735.186 6.15759C735.188 6.14138 735.191 6.12528 735.194 6.10938C735.217 6.0087 735.434 5.6046 735.488 5.49871C736.13 4.25851 737.024 3.34659 738.026 2.37458C738.242 2.16582 738.736 1.64269 738.979 1.48743Z" fill="#757575"/>
<path d="M738.979 1.48743H739.217C739.587 1.75611 739.917 2.15848 740.248 2.47559C741.013 3.20663 741.685 3.85657 742.263 4.7501C742.434 5.01753 742.593 5.29096 742.743 5.56984C742.826 5.72685 742.911 5.91539 743 6.06255C742.812 6.17743 742.625 6.29421 742.44 6.41286C742.195 5.92662 741.989 5.52634 741.69 5.07107C740.979 3.99273 740.027 3.15179 739.097 2.25102C737.617 3.67295 736.574 4.57677 735.73 6.47653L735.186 6.15759C735.188 6.14138 735.191 6.12528 735.194 6.10938C735.217 6.0087 735.434 5.6046 735.488 5.49871C736.13 4.25851 737.024 3.34659 738.026 2.37458C738.242 2.16582 738.736 1.64269 738.979 1.48743Z" fill="#08080B"/>
</g>
<path d="M763.909 11.127C763.836 10.9015 763.737 10.6995 763.613 10.5211C763.492 10.3402 763.346 10.1866 763.177 10.0602C763.007 9.9313 762.814 9.83341 762.596 9.7665C762.381 9.69959 762.144 9.66613 761.886 9.66613C761.448 9.66613 761.054 9.77641 760.702 9.99697C760.35 10.2175 760.072 10.5409 759.867 10.9672C759.664 11.391 759.563 11.9101 759.563 12.5247C759.563 13.1418 759.665 13.6635 759.87 14.0897C760.075 14.516 760.356 14.8394 760.713 15.0599C761.07 15.2805 761.476 15.3908 761.932 15.3908C762.354 15.3908 762.723 15.3065 763.036 15.138C763.353 14.9695 763.597 14.7316 763.769 14.4243C763.944 14.1145 764.031 13.7502 764.031 13.3314L764.335 13.3871H762.11V12.4392H765.166V13.3054C765.166 13.9447 765.027 14.4999 764.748 14.9707C764.473 15.4391 764.09 15.8009 763.602 16.0562C763.116 16.3114 762.559 16.439 761.932 16.439C761.228 16.439 760.611 16.2804 760.079 15.9632C759.55 15.646 759.138 15.1962 758.842 14.6138C758.546 14.029 758.398 13.3351 758.398 12.5322C758.398 11.925 758.484 11.3798 758.656 10.8966C758.828 10.4133 759.069 10.0032 759.381 9.66613C759.695 9.32662 760.063 9.06765 760.485 8.88922C760.911 8.70831 761.375 8.61786 761.879 8.61786C762.299 8.61786 762.69 8.67857 763.052 8.80001C763.416 8.92144 763.74 9.09367 764.023 9.31671C764.309 9.53975 764.546 9.80491 764.733 10.1122C764.921 10.417 765.047 10.7553 765.113 11.127H763.909Z" fill="#757575"/>
<path d="M768.261 16.4613C767.891 16.4613 767.557 16.3944 767.259 16.2606C766.96 16.1243 766.723 15.9273 766.549 15.6696C766.377 15.4118 766.291 15.0959 766.291 14.7216C766.291 14.3995 766.354 14.1343 766.48 13.9261C766.607 13.718 766.778 13.5532 766.993 13.4317C767.208 13.3103 767.448 13.2186 767.714 13.1567C767.98 13.0947 768.251 13.0476 768.526 13.0154C768.876 12.9758 769.159 12.9435 769.377 12.9188C769.594 12.8915 769.753 12.8481 769.851 12.7887C769.95 12.7292 769.999 12.6325 769.999 12.4987V12.4727C769.999 12.148 769.906 11.8965 769.718 11.7181C769.534 11.5396 769.258 11.4504 768.891 11.4504C768.509 11.4504 768.208 11.5335 767.987 11.6995C767.77 11.8631 767.619 12.0452 767.536 12.2459L766.469 12.008C766.596 11.6611 766.78 11.381 767.023 11.1679C767.269 10.9523 767.551 10.7962 767.87 10.6995C768.189 10.6004 768.524 10.5508 768.876 10.5508C769.109 10.5508 769.355 10.5781 769.616 10.6326C769.879 10.6847 770.125 10.7813 770.352 10.9226C770.583 11.0638 770.771 11.2658 770.918 11.5285C771.065 11.7887 771.138 12.127 771.138 12.5433V16.335H770.03V15.5543H769.984C769.911 15.6981 769.801 15.8393 769.654 15.9781C769.507 16.1169 769.319 16.2321 769.088 16.3238C768.858 16.4155 768.582 16.4613 768.261 16.4613ZM768.507 15.5692C768.821 15.5692 769.09 15.5085 769.312 15.387C769.537 15.2656 769.708 15.107 769.825 14.9112C769.944 14.713 770.003 14.5011 770.003 14.2756V13.5395C769.963 13.5792 769.884 13.6164 769.768 13.6511C769.654 13.6833 769.524 13.7118 769.377 13.7366C769.23 13.7589 769.087 13.7799 768.948 13.7998C768.809 13.8171 768.692 13.832 768.599 13.8444C768.378 13.8716 768.177 13.9175 767.995 13.9819C767.815 14.0463 767.671 14.1393 767.562 14.2607C767.456 14.3797 767.403 14.5383 767.403 14.7365C767.403 15.0116 767.507 15.2198 767.714 15.361C767.922 15.4998 768.186 15.5692 768.507 15.5692Z" fill="#757575"/>
<path d="M772.65 16.335V10.6252H773.747V11.5322H773.808C773.914 11.2249 774.101 10.9833 774.37 10.8073C774.64 10.6289 774.947 10.5397 775.288 10.5397C775.359 10.5397 775.443 10.5422 775.539 10.5471C775.637 10.5521 775.715 10.5583 775.77 10.5657V11.6289C775.725 11.6165 775.644 11.6028 775.527 11.588C775.411 11.5706 775.295 11.562 775.178 11.562C774.91 11.562 774.671 11.6177 774.461 11.7292C774.253 11.8383 774.089 11.9907 773.967 12.1865C773.846 12.3798 773.785 12.6003 773.785 12.8481V16.335H772.65Z" fill="#757575"/>
<path d="M778.727 16.4465C778.256 16.4465 777.836 16.3288 777.466 16.0933C777.099 15.8554 776.811 15.5171 776.601 15.0785C776.393 14.6374 776.289 14.1083 776.289 13.4912C776.289 12.8742 776.394 12.3463 776.605 11.9077C776.817 11.469 777.108 11.1332 777.478 10.9003C777.847 10.6673 778.266 10.5508 778.734 10.5508C779.096 10.5508 779.387 10.6103 779.607 10.7293C779.83 10.8458 780.002 10.9821 780.123 11.1382C780.248 11.2943 780.344 11.4318 780.412 11.5508H780.48V8.72194H781.615V16.335H780.507V15.4465H780.412C780.344 15.568 780.245 15.7067 780.116 15.8629C779.989 16.019 779.815 16.1553 779.592 16.2718C779.369 16.3882 779.081 16.4465 778.727 16.4465ZM778.977 15.4986C779.304 15.4986 779.579 15.4143 779.805 15.2458C780.032 15.0748 780.204 14.8381 780.321 14.5358C780.44 14.2334 780.499 13.8815 780.499 13.4801C780.499 13.0836 780.441 12.7366 780.325 12.4392C780.208 12.1418 780.037 11.9101 779.812 11.7441C779.587 11.5781 779.309 11.495 778.977 11.495C778.635 11.495 778.351 11.5818 778.123 11.7553C777.895 11.9287 777.723 12.1654 777.607 12.4653C777.493 12.7651 777.436 13.1034 777.436 13.4801C777.436 13.8617 777.494 14.2049 777.61 14.5098C777.727 14.8146 777.899 15.0562 778.127 15.2346C778.357 15.4106 778.64 15.4986 778.977 15.4986Z" fill="#757575"/>
<path d="M785.748 16.4502C785.174 16.4502 784.679 16.33 784.264 16.0896C783.852 15.8467 783.533 15.506 783.307 15.0674C783.085 14.6262 782.973 14.1095 782.973 13.5172C782.973 12.9324 783.085 12.4169 783.307 11.9709C783.533 11.5248 783.847 11.1766 784.249 10.9263C784.654 10.676 785.127 10.5508 785.669 10.5508C785.998 10.5508 786.316 10.6041 786.625 10.7107C786.934 10.8173 787.211 10.9845 787.457 11.2125C787.702 11.4405 787.896 11.7367 788.037 12.101C788.179 12.4628 788.25 12.9027 788.25 13.4206V13.8146H783.615V12.982H787.138C787.138 12.6895 787.077 12.4306 786.955 12.205C786.834 11.977 786.663 11.7974 786.443 11.666C786.225 11.5347 785.97 11.469 785.676 11.469C785.357 11.469 785.079 11.5458 784.841 11.6995C784.606 11.8507 784.424 12.0489 784.294 12.2943C784.168 12.5371 784.105 12.801 784.105 13.086V13.7366C784.105 14.1182 784.173 14.4429 784.31 14.7105C784.449 14.9781 784.642 15.1826 784.89 15.3238C785.138 15.4626 785.428 15.532 785.76 15.532C785.975 15.532 786.171 15.5023 786.348 15.4428C786.525 15.3808 786.678 15.2892 786.807 15.1677C786.937 15.0463 787.035 14.8964 787.104 14.7179L788.178 14.9075C788.092 15.2173 787.937 15.4886 787.715 15.7216C787.495 15.9521 787.217 16.1317 786.883 16.2606C786.552 16.387 786.173 16.4502 785.748 16.4502Z" fill="#757575"/>
<path d="M790.644 12.9448V16.335H789.509V10.6252H790.599V11.5545H790.671C790.805 11.2522 791.015 11.0093 791.301 10.8259C791.59 10.6425 791.953 10.5508 792.391 10.5508C792.788 10.5508 793.136 10.6326 793.434 10.7962C793.733 10.9573 793.965 11.1977 794.129 11.5173C794.294 11.837 794.376 12.2323 794.376 12.7032V16.335H793.241V12.837C793.241 12.4231 793.131 12.0997 792.911 11.8668C792.69 11.6313 792.388 11.5136 792.003 11.5136C791.74 11.5136 791.506 11.5694 791.301 11.6809C791.099 11.7924 790.938 11.956 790.819 12.1716C790.703 12.3847 790.644 12.6424 790.644 12.9448Z" fill="#757575"/>
<path d="M800.267 12.0192L799.239 12.1976C799.196 12.0687 799.127 11.9461 799.034 11.8296C798.943 11.7131 798.819 11.6177 798.662 11.5434C798.505 11.469 798.309 11.4318 798.073 11.4318C797.752 11.4318 797.484 11.5025 797.268 11.6437C797.053 11.7825 796.946 11.9622 796.946 12.1827C796.946 12.3736 797.018 12.5272 797.162 12.6437C797.306 12.7602 797.539 12.8556 797.861 12.9299L798.787 13.1381C799.323 13.2595 799.723 13.4466 799.986 13.6994C800.25 13.9522 800.381 14.2805 800.381 14.6845C800.381 15.0265 800.28 15.3313 800.078 15.5989C799.878 15.8641 799.598 16.0723 799.239 16.2234C798.882 16.3746 798.468 16.4502 797.997 16.4502C797.344 16.4502 796.812 16.3139 796.399 16.0413C795.987 15.7662 795.734 15.3759 795.64 14.8703L796.737 14.7068C796.805 14.9868 796.946 15.1987 797.158 15.3424C797.371 15.4837 797.648 15.5543 797.99 15.5543C798.362 15.5543 798.659 15.4787 798.882 15.3276C799.105 15.1739 799.216 14.9868 799.216 14.7663C799.216 14.5878 799.148 14.4379 799.011 14.3165C798.877 14.195 798.671 14.1033 798.392 14.0414L797.405 13.8295C796.861 13.7081 796.459 13.5148 796.198 13.2496C795.94 12.9844 795.811 12.6486 795.811 12.2422C795.811 11.9052 795.907 11.6103 796.099 11.3575C796.292 11.1047 796.557 10.9077 796.896 10.7665C797.236 10.6227 797.624 10.5508 798.062 10.5508C798.692 10.5508 799.188 10.6847 799.55 10.9523C799.912 11.2175 800.151 11.5731 800.267 12.0192Z" fill="#757575"/>
<path d="M854.766 4.0817V11.7294H856.243V4.0817C856.243 4.02428 856.255 3.96739 856.278 3.91428C856.3 3.86118 856.334 3.81291 856.376 3.77224C856.418 3.73158 856.468 3.69931 856.524 3.67729C856.579 3.65528 856.638 3.64394 856.698 3.64394H859.54V2.42456H851.475V3.63842H854.317C854.438 3.64024 854.553 3.68792 854.637 3.77101C854.721 3.85411 854.767 3.96584 854.766 4.0817Z" fill="#757575"/>
<path d="M864.837 8.29776L866.033 11.7294H867.571L864.454 2.82228C864.414 2.70657 864.336 2.60599 864.233 2.53465C864.13 2.46331 864.006 2.42481 863.879 2.42456H862.099C861.972 2.42472 861.849 2.46302 861.745 2.53409C861.642 2.60516 861.565 2.70545 861.524 2.82089L858.4 11.7294H859.925L861.12 8.29776H864.837ZM862.693 3.7917C862.714 3.73451 862.753 3.68496 862.804 3.64991C862.856 3.61487 862.917 3.59604 862.981 3.59604C863.044 3.59604 863.105 3.61487 863.157 3.64991C863.208 3.68496 863.247 3.73451 863.268 3.7917L864.41 7.0839H861.534L862.693 3.7917Z" fill="#757575"/>
<path d="M878.959 11.7294V2.42457H876.712C876.581 2.42404 876.454 2.4641 876.349 2.53877C876.244 2.61344 876.167 2.7187 876.13 2.83885L873.883 10.2656C873.864 10.3266 873.826 10.3803 873.774 10.4186C873.721 10.4568 873.657 10.4775 873.591 10.4775C873.525 10.4775 873.46 10.4568 873.408 10.4186C873.355 10.3803 873.317 10.3266 873.299 10.2656L871.052 2.83885C871.014 2.71983 870.939 2.61538 870.835 2.54082C870.732 2.46627 870.606 2.42552 870.477 2.42457H868.176V11.7294H869.646V3.96709C869.646 3.93241 869.66 3.89911 869.684 3.87311C869.708 3.84711 869.74 3.83011 869.776 3.82513C869.812 3.82016 869.848 3.82753 869.879 3.84594C869.909 3.86436 869.932 3.89261 869.943 3.92566L872.394 11.7294H874.771L877.215 3.92981C877.226 3.89665 877.249 3.86834 877.28 3.84995C877.31 3.83156 877.347 3.82429 877.383 3.82944C877.419 3.83459 877.451 3.85183 877.475 3.87807C877.499 3.90431 877.512 3.93782 877.513 3.97261V11.7294H878.959Z" fill="#757575"/>
<path d="M888.252 2.42456H886.782V7.86276C886.782 9.67042 886.247 10.6481 884.227 10.6481C882.207 10.6481 881.698 9.68147 881.698 7.86276V2.42456H880.227V8.27152C880.227 10.6081 881.521 11.8744 884.227 11.8744C886.932 11.8744 888.252 10.6081 888.252 8.27152V2.42456Z" fill="#757575"/>
<path d="M890.974 10.0654V2.42456H889.503V10.8553C889.503 10.9701 889.526 11.0839 889.572 11.19C889.618 11.2962 889.685 11.3926 889.769 11.4738C889.854 11.555 889.954 11.6194 890.065 11.6633C890.175 11.7071 890.294 11.7296 890.413 11.7294H895.796V10.5018H891.428C891.369 10.5019 891.309 10.4908 891.254 10.4689C891.199 10.447 891.149 10.4149 891.107 10.3744C891.064 10.3338 891.031 10.2856 891.008 10.2326C890.985 10.1796 890.974 10.1227 890.974 10.0654Z" fill="#757575"/>
<path d="M857.073 17.3817L854.311 16.7216C853.336 16.4716 852.964 16.0311 852.964 15.4414C852.964 14.5576 853.683 14.1351 854.998 14.1351C856.724 14.1351 857.595 14.8255 857.595 16.2065H859.107C859.107 14.2 857.705 12.9723 854.998 12.9723C852.717 12.9723 851.467 13.8437 851.467 15.4801C851.467 16.6014 852.085 17.4728 853.624 17.8553L856.442 18.5555C857.458 18.8054 857.911 19.3205 857.911 19.9668C857.911 20.9183 857.211 21.3933 855.611 21.3933C853.536 21.3933 852.52 20.6007 852.52 18.9076H851.027C851.027 21.2442 852.553 22.563 855.589 22.563C858.255 22.563 859.409 21.5743 859.409 19.8978C859.409 18.6439 858.64 17.7587 857.073 17.3762" fill="#757575"/>
<path d="M860.344 22.4235H867.256V21.2055H861.815V18.7958C861.815 18.7383 861.826 18.6815 861.849 18.6284C861.872 18.5754 861.906 18.5272 861.948 18.4867C861.991 18.4462 862.041 18.414 862.096 18.3922C862.151 18.3703 862.211 18.3592 862.27 18.3594H866.569V17.1704H862.27C862.21 17.1706 862.151 17.1594 862.096 17.1374C862.04 17.1155 861.99 17.0832 861.948 17.0426C861.905 17.0019 861.872 16.9535 861.849 16.9003C861.826 16.8472 861.814 16.7901 861.815 16.7326V14.3325H867.256V13.1187H860.344V22.4235Z" fill="#757575"/>
<path d="M872.464 14.2138C874.189 14.2138 875.267 15.1252 875.483 16.7092H876.967C876.679 14.3988 875.016 12.9806 872.459 12.9806C869.532 12.9806 867.774 15.052 867.774 17.7711C867.774 20.4902 869.532 22.5755 872.459 22.5755C875.016 22.5755 876.678 21.1503 876.967 18.8275H875.487C875.267 20.4115 874.193 21.3354 872.468 21.3354C870.406 21.3354 869.281 19.9226 869.281 17.7711C869.281 15.6196 870.406 14.2207 872.468 14.2207" fill="#757575"/>
<path d="M884.404 18.5568C884.404 20.3645 883.869 21.3422 881.849 21.3422C879.829 21.3422 879.32 20.3756 879.32 18.5568V13.1187H877.849V18.9656C877.849 21.3022 879.143 22.5685 881.849 22.5685C884.555 22.5685 885.874 21.3022 885.874 18.9656V13.1187H884.404V18.5568Z" fill="#757575"/>
<path d="M893.611 18.0017C893.526 18.0017 892.951 18.1122 892.951 18.0307C892.951 17.8443 894.723 17.8926 894.723 15.6527C894.723 13.5937 893.089 13.1187 890.842 13.1187H887.125V22.4235H888.592V18.833H893.277V22.4235H894.748V19.0982C894.748 18.5044 894.467 18.0017 893.608 18.0017M890.834 17.615H888.592V14.7703C888.592 14.6542 888.64 14.5428 888.725 14.4607C888.811 14.3786 888.926 14.3325 889.047 14.3325H890.834C892.305 14.3325 893.253 14.4513 893.253 15.9703C893.253 17.4894 892.33 17.615 890.834 17.615Z" fill="#757575"/>
<path d="M895.7 14.3325H897.415C897.536 14.3325 897.652 14.3786 897.737 14.4607C897.823 14.5428 897.871 14.6542 897.871 14.7703V20.7595C897.871 20.8169 897.859 20.8738 897.836 20.9268C897.813 20.9798 897.78 21.028 897.737 21.0685C897.695 21.1091 897.645 21.1412 897.589 21.163C897.534 21.1849 897.475 21.196 897.415 21.1958H895.7V22.4235H901.512V21.1958H899.797C899.737 21.196 899.678 21.1849 899.623 21.163C899.568 21.1412 899.517 21.1091 899.475 21.0685C899.433 21.028 899.399 20.9798 899.376 20.9268C899.353 20.8738 899.342 20.8169 899.342 20.7595V14.7703C899.342 14.6542 899.39 14.5428 899.475 14.4607C899.56 14.3786 899.676 14.3325 899.797 14.3325H901.512V13.1187H895.7V14.3325Z" fill="#757575"/>
<path d="M915.034 18.4284L918 13.1187H916.706C916.622 13.1186 916.54 13.1407 916.469 13.1823C916.398 13.2239 916.339 13.2836 916.301 13.3548L913.721 18.1481L911.147 13.3548C911.108 13.2836 911.05 13.2239 910.979 13.1823C910.908 13.1406 910.826 13.1186 910.743 13.1187H902.296V14.3325H905.138C905.198 14.3325 905.257 14.3438 905.313 14.3659C905.368 14.3879 905.418 14.4201 905.46 14.4608C905.502 14.5015 905.536 14.5497 905.558 14.6029C905.581 14.656 905.593 14.7129 905.593 14.7703V22.4235H907.063V14.7703C907.063 14.6542 907.111 14.5428 907.197 14.4607C907.282 14.3786 907.398 14.3325 907.519 14.3325H909.87C909.952 14.3327 910.033 14.3544 910.104 14.3952C910.174 14.4361 910.232 14.4946 910.271 14.5645L912.419 18.4312C912.439 18.4659 912.467 18.4961 912.5 18.5198C912.533 18.5436 912.571 18.5605 912.612 18.5693C912.819 18.619 913 18.6949 913 18.8966V22.4221H914.456V18.8979C914.456 18.6949 914.637 18.6218 914.844 18.5707C914.884 18.5617 914.922 18.5448 914.955 18.521C914.988 18.4972 915.015 18.4671 915.035 18.4326" fill="#757575"/>
<path d="M836.587 19.3799H846.023L848.938 10.76L841.306 5.43225L833.671 10.76L836.587 19.3799ZM834.778 12.1078C834.873 12.1575 834.978 12.2072 835.093 12.2542C835.218 12.3066 835.345 12.3527 835.474 12.3923C836.337 12.6519 837.343 12.6892 838.493 12.5055C838.652 12.4806 838.811 12.4503 838.975 12.4171C839.099 12.3923 839.225 12.3633 839.352 12.3329C839.478 12.3025 839.649 12.2597 839.802 12.2183L839.927 12.1824L840.141 12.1147L840.255 12.2638L840.35 12.3895L840.019 12.4889C839.875 12.5317 839.731 12.5704 839.588 12.6077C839.444 12.645 839.345 12.6684 839.227 12.6961C839.069 12.7334 838.916 12.7665 838.768 12.7955C836.685 13.2098 835.477 12.9557 835.016 12.8093L834.778 12.1078ZM835.253 13.5108C835.874 13.5951 837.099 13.6282 839.08 13.1532L839.519 13.0441L839.866 12.9488C840.01 12.9101 840.145 12.8687 840.289 12.8259L840.541 12.7485L840.608 12.7278L840.804 12.9861L840.486 13.0855L840.302 13.1421L840.257 13.1559L840.073 13.2139L839.92 13.2623L839.737 13.3189L839.511 13.3893L839.461 13.4059L839.317 13.4487C836.568 14.2883 835.443 14.0839 835.443 14.0839L835.253 13.5108ZM835.627 14.6156C835.897 14.6244 836.167 14.6156 836.436 14.5894C836.548 14.5783 836.665 14.5659 836.783 14.5507C836.678 14.6059 836.577 14.6612 836.479 14.7164C836.245 14.8471 836.021 14.9929 835.808 15.1528L835.627 14.6156ZM835.99 15.6858C835.99 15.6858 836.775 14.8849 839.513 14.0121C839.513 14.1336 839.513 14.2593 839.5 14.3877C837.606 15.1293 836.634 15.8433 836.184 16.2617L835.99 15.6858ZM836.422 16.9605C836.709 16.5821 837.524 15.6927 839.465 14.8531C839.454 14.9829 839.438 15.1155 839.419 15.2481C838.378 15.7466 837.583 16.3528 837.049 17.0433C836.898 17.2371 836.767 17.4448 836.659 17.6634L836.422 16.9605ZM837.599 18.7819H837.037L836.865 18.2696C836.906 18.1205 836.961 17.9753 837.03 17.836C837.133 17.6287 837.259 17.4321 837.404 17.2491C837.898 16.6194 838.603 16.1236 839.339 15.7383C839.186 16.531 838.907 17.3278 838.443 17.9741C838.219 18.2935 837.933 18.5679 837.599 18.7819ZM838.263 18.7819C838.349 18.7049 838.43 18.6238 838.506 18.5389C838.595 18.4414 838.679 18.3395 838.757 18.2337C839.28 17.5308 839.629 16.6194 839.802 15.5146C839.826 15.3613 839.846 15.2066 839.864 15.0465C839.877 14.9249 839.888 14.8006 839.897 14.675C839.905 14.5493 839.915 14.3808 839.921 14.2303C839.921 14.1875 839.921 14.1461 839.921 14.1033C839.921 14.0301 839.921 13.9569 839.921 13.8823L840.104 13.8257L840.257 13.7774C840.257 13.8906 840.257 14.0011 840.257 14.1088C840.257 14.2579 840.249 14.4029 840.242 14.5438C840.234 14.6846 840.227 14.7855 840.217 14.9015C840.206 15.0561 840.191 15.2066 840.174 15.3503C839.944 17.383 839.311 18.4063 839.024 18.7819H838.263ZM840.427 18.7819H839.8C840.075 18.2406 840.486 17.1248 840.628 15.1749C840.638 15.0368 840.647 14.8904 840.654 14.7426C840.654 14.6294 840.664 14.512 840.669 14.3933C840.673 14.2745 840.669 14.1171 840.677 13.9707C840.677 13.8865 840.677 13.8022 840.677 13.7166V13.6517L840.994 13.5523V15.0492C840.976 17.8194 840.429 18.7847 840.429 18.7847M841.012 18.7847C841.105 18.541 841.18 18.2914 841.237 18.0376C841.261 17.9313 841.284 17.8208 841.307 17.7089C841.329 17.8208 841.352 17.9313 841.376 18.0376C841.433 18.2912 841.508 18.5408 841.6 18.7847H841.012ZM842.184 18.7847C842.184 18.7847 841.635 17.818 841.609 15.0561C841.73 15.0962 841.852 15.139 841.977 15.1845C842.121 17.1414 842.53 18.2503 842.805 18.7916L842.184 18.7847ZM843.58 18.7847C843.292 18.4091 842.666 17.3844 842.43 15.353C842.555 15.4041 842.68 15.4594 842.807 15.5174C842.979 16.6221 843.328 17.5335 843.852 18.2365C843.996 18.4358 844.161 18.6209 844.343 18.7888L843.58 18.7847ZM844.635 18.4988C844.461 18.3408 844.304 18.1659 844.167 17.9768C843.696 17.3305 843.423 16.5337 843.271 15.7425C844.007 16.1264 844.709 16.6221 845.206 17.2518C845.455 17.5545 845.639 17.9013 845.748 18.2724L845.574 18.7847H845.013C844.879 18.7003 844.752 18.6047 844.635 18.4988ZM845.954 17.6703C845.904 17.5687 845.849 17.4696 845.788 17.3734C845.724 17.2702 845.649 17.1625 845.564 17.0502C845.028 16.3597 844.234 15.7549 843.193 15.255C843.05 15.1845 842.906 15.1169 842.749 15.0534C842.632 15.0036 842.513 14.9576 842.391 14.9153C842.247 14.86 842.103 14.8062 841.96 14.7551L841.836 14.7123L841.618 14.6405V14.2897C841.73 14.3242 841.839 14.3601 841.945 14.396L842.369 14.5452L842.717 14.6833C842.867 14.7422 843.011 14.8016 843.149 14.8614C845.088 15.701 845.909 16.589 846.192 16.9687L845.954 17.6703ZM846.428 16.2672C845.977 15.8529 845.006 15.1307 843.113 14.396C842.978 14.3435 842.837 14.2911 842.692 14.2386C842.581 14.1985 842.467 14.1571 842.351 14.1171C842.234 14.077 842.078 14.0245 841.935 13.979C841.853 13.9514 841.769 13.9251 841.684 13.8989L841.616 13.8782V13.5523L841.934 13.6517L842.118 13.7083L842.162 13.7221L842.346 13.7801L842.5 13.8285L842.684 13.8851L842.91 13.9555L842.959 13.9707L843.103 14.0149C845.834 14.8876 846.625 15.6886 846.625 15.6886L846.428 16.2672ZM846.803 15.1625C846.591 14.9983 846.366 14.8488 846.132 14.715C846.034 14.6598 845.932 14.6045 845.827 14.5493C845.946 14.5645 846.061 14.5769 846.175 14.588C846.444 14.6135 846.713 14.6223 846.983 14.6142L846.803 15.1625ZM847.164 14.0908C847.164 14.0908 846.036 14.2883 843.29 13.4487C843.366 13.352 843.446 13.2526 843.53 13.1532C845.511 13.6282 846.736 13.5951 847.357 13.5108L847.164 14.0908ZM847.596 12.8162C847.134 12.9626 845.926 13.2194 843.843 12.8024C843.932 12.7044 844.026 12.6063 844.121 12.5096C845.271 12.6933 846.277 12.656 847.14 12.395C847.38 12.3253 847.613 12.2328 847.834 12.1188L847.596 12.8162ZM847.761 10.6716L848.211 10.9864L848.037 11.4988C847.912 11.5962 847.779 11.6822 847.637 11.7556C847.427 11.8654 847.206 11.9538 846.977 12.0194C846.191 12.25 845.317 12.2542 844.486 12.1478C845.094 11.5954 845.803 11.1038 846.579 10.847C846.957 10.7137 847.359 10.6541 847.761 10.6716ZM847.219 10.296C847.111 10.3098 846.996 10.3291 846.874 10.3554C846.752 10.3816 846.621 10.4175 846.484 10.4617C845.632 10.7379 844.791 11.2751 843.974 12.0719C843.862 12.1824 843.75 12.297 843.639 12.4157C843.554 12.5078 843.469 12.5999 843.384 12.6919C843.287 12.8038 843.189 12.9198 843.097 13.0385L843.016 13.138C842.969 13.196 842.923 13.2554 842.873 13.3147L842.69 13.2581L842.535 13.2098C842.604 13.1177 842.673 13.0293 842.742 12.9446C842.835 12.8259 842.929 12.7126 843.021 12.6022C843.113 12.4917 843.18 12.4144 843.259 12.326C843.364 12.2072 843.468 12.094 843.569 11.9863C845.006 10.4672 846.133 9.99907 846.595 9.85821L847.219 10.296ZM845.975 9.42873C845.422 9.70492 844.411 10.3774 843.1 11.8799C843.006 11.9876 842.91 12.0995 842.812 12.2155L842.588 12.4917C842.5 12.6008 842.411 12.714 842.322 12.83C842.269 12.8963 842.217 12.9681 842.165 13.0344C842.152 13.051 842.138 13.0689 842.124 13.0896L841.807 12.9902L842.01 12.7278L842.124 12.5759L842.151 12.54L842.266 12.3895L842.359 12.2638L842.473 12.1147L842.617 11.9296L842.648 11.8896L842.735 11.775C844.433 9.54473 845.468 9.07383 845.468 9.07383L845.975 9.42873ZM844.25 9.14425C844.359 8.90666 844.452 8.66211 844.526 8.41235L845.002 8.74378C844.778 8.88917 844.565 9.04928 844.364 9.22297C844.279 9.29478 844.192 9.36935 844.105 9.44945C844.157 9.34587 844.205 9.24368 844.249 9.14425M844.047 8.08644C844.047 8.08644 843.903 9.1774 842.22 11.4284C842.148 11.3289 842.076 11.2254 842.001 11.1176C843.084 9.46049 843.43 8.32535 843.54 7.73292L844.047 8.08644ZM842.919 7.2993C842.919 7.76468 842.802 8.94678 841.746 10.7213C841.675 10.6094 841.602 10.4948 841.541 10.3774C842.078 9.38454 842.352 8.44411 842.361 7.58654C842.364 7.34302 842.343 7.09977 842.298 6.86016L842.919 7.2993ZM840.851 6.48592L841.306 6.1683L841.758 6.48454C841.89 6.82446 841.955 7.18515 841.948 7.54787V7.61554C841.932 8.40406 841.661 9.20364 841.306 9.93002C840.943 9.20364 840.677 8.40406 840.663 7.61554C840.648 7.2308 840.712 6.84703 840.851 6.48592ZM840.314 6.86154C840.269 7.08918 840.247 7.3204 840.249 7.55202V7.58792C840.257 8.4524 840.536 9.38316 841.068 10.3788C841.143 10.5169 841.221 10.655 841.304 10.7931C841.369 10.8981 841.435 11.0044 841.505 11.1121C841.576 11.2198 841.669 11.3607 841.758 11.4864L841.833 11.5913L841.964 11.7722L841.852 11.9214L841.756 12.047C841.687 11.9545 841.62 11.8647 841.557 11.7708C841.468 11.6493 841.385 11.5292 841.304 11.4118C841.224 11.2944 841.169 11.2074 841.104 11.108C841.019 10.9699 840.939 10.847 840.864 10.7199C839.807 8.9454 839.69 7.7633 839.691 7.29792L840.314 6.86154ZM839.07 7.72878C839.179 8.32121 839.526 9.45083 840.607 11.1135C840.684 11.2323 840.766 11.3552 840.851 11.4794C840.916 11.5747 840.984 11.6714 841.053 11.7694C841.122 11.8675 841.218 11.9987 841.304 12.1161L841.459 12.3232L841.501 12.3771L841.306 12.6436L841.109 12.384L840.995 12.2293L840.968 12.1934L840.86 12.0387L840.765 11.9144L840.651 11.7639L840.508 11.5803L840.476 11.5388C840.447 11.5002 840.419 11.4629 840.391 11.4242C838.703 9.17325 838.56 8.08644 838.56 8.08644L839.07 7.72878ZM838.089 8.41097C838.164 8.66073 838.256 8.90528 838.365 9.14287C838.41 9.2423 838.459 9.34449 838.509 9.44806C838.422 9.36797 838.337 9.2934 838.25 9.22159C838.049 9.04834 837.836 8.88825 837.612 8.7424L838.089 8.41097ZM837.142 9.07383C837.142 9.07383 838.177 9.54473 839.887 11.775C839.766 11.8109 839.641 11.8454 839.511 11.8785C838.199 10.3761 837.188 9.71045 836.636 9.42735L837.142 9.07383ZM836.013 9.86235C836.475 10.0004 837.609 10.4783 839.04 11.9918C838.907 12.0208 838.772 12.047 838.636 12.0719C837.819 11.2751 836.978 10.7351 836.126 10.4603C835.889 10.3835 835.644 10.3285 835.397 10.296L836.013 9.86235ZM834.853 10.6716C834.895 10.6716 834.941 10.6716 834.997 10.6716C835.349 10.6753 835.699 10.735 836.031 10.8484C836.807 11.1052 837.516 11.5954 838.124 12.1506C837.293 12.2555 836.42 12.2514 835.634 12.0222C835.248 11.9164 834.888 11.739 834.573 11.5002L834.4 10.9864L834.853 10.6716Z" fill="#757575"/>
<defs>
<clipPath id="clip0_7_212">
<rect width="25.0747" height="22.0251" fill="white" transform="translate(726.559 1.48743)"/>
</clipPath>
</defs>
</svg>
