<svg width="68" height="25" viewBox="0 0 68 25" fill="none" xmlns="http://www.w3.org/2000/svg">
<path d="M22.7179 10.9066H25.6987V9.52323H22.7179V8.55625H25.3782V7.20639H22.7179V6.35623H25.647V4.97284H22.7179H22.3884H20.9844V10.9066H22.3884H22.7179Z" fill="#757575"/>
<path d="M29.5444 10.9066V6.3894H31.399V4.97284H29.5444H27.8112H25.9652V6.3894H27.8112V10.9066H29.5444Z" fill="#757575"/>
<path d="M33.5178 8.5732H35.5112V10.9066H37.2443V4.97284H35.5112V7.18943H33.5178V4.97284H31.7847V10.9066H33.5178V8.5732Z" fill="#757575"/>
<path d="M42.883 9.52323H39.9022V8.55625H42.5625V7.20639H39.9022V6.35623H42.8313V4.97284H39.9022H39.5727H38.1691V10.9066H39.5727H39.9022H42.883V9.52323Z" fill="#757575"/>
<path d="M45.389 8.54028H45.4129L46.9835 10.9072H48.9506L47.1449 8.43552C47.2618 8.40421 47.376 8.36401 47.4862 8.3153C47.8023 8.1803 48.0736 7.96395 48.2699 7.69012C48.4575 7.42382 48.5514 7.11267 48.5517 6.75668C48.5519 6.40069 48.4596 6.08916 48.2746 5.8221C48.0843 5.55103 47.8206 5.33501 47.5121 5.1973C47.1884 5.04656 46.8129 4.97119 46.3855 4.97119H43.6559V10.9072H45.389V8.54028ZM46.1097 6.17332C46.3466 6.17332 46.5272 6.22897 46.6516 6.34027C46.7759 6.45156 46.838 6.59878 46.8377 6.78193C46.8413 6.86406 46.8266 6.94599 46.7945 7.02219C46.7624 7.09838 46.7136 7.16706 46.6516 7.22359C46.527 7.33488 46.3463 7.3904 46.1097 7.39015H45.3906V6.17332H46.1097Z" fill="#757575"/>
<path d="M51.0508 10.9066H54.032V9.52323H51.0508V8.55625H53.7114V7.20639H51.0508V6.35623H53.9799V4.97284H51.0508H50.7216H49.3176V10.9066H50.7216H51.0508Z" fill="#757575"/>
<path d="M58.2981 8.65649C58.3037 8.82376 58.2619 8.98934 58.177 9.13546C58.0982 9.26476 57.9823 9.36944 57.8432 9.43693C57.691 9.50863 57.5232 9.5443 57.3537 9.54094C57.1843 9.54303 57.0167 9.50743 56.8639 9.43693C56.7186 9.36987 56.5962 9.26422 56.5113 9.13244C56.4209 8.98664 56.3757 8.819 56.3812 8.64933V4.97284H54.6508V8.49708C54.6508 8.98597 54.7633 9.41935 54.9885 9.79719C55.2108 10.1723 55.5382 10.4798 55.9333 10.6847C56.3377 10.8987 56.8114 11.0056 57.3545 11.0054C57.8976 11.0051 58.3699 10.8982 58.7715 10.6847C59.1624 10.4802 59.486 10.1746 59.7056 9.80247C59.9282 9.42764 60.0395 8.99565 60.0395 8.5065V4.97284H58.2973L58.2981 8.65649Z" fill="#757575"/>
<path d="M66.1918 4.97284L64.1765 7.8214L62.1534 4.97284H60.8971V10.9066H62.6126V8.11006L63.6181 9.50665H64.7274L65.7325 8.11986V10.9066H67.4484V4.97284H66.1918Z" fill="#757575"/>
<path d="M24.2642 16.2459L22.241 13.3973H20.9844V19.3311H22.7003V16.5346L23.7058 17.9311H24.8151L25.8202 16.5444V19.3311H27.5361V13.3973H26.2795L24.2642 16.2459Z" fill="#757575"/>
<path d="M29.7152 12.2564L30.1482 13.0647L32.0808 12.3981L31.3618 11.1311L29.7152 12.2564Z" fill="#757575"/>
<path d="M30.1993 16.9807H32.86V15.6309H30.1993V14.7807H33.1284V13.3973H30.1993H29.8702H28.4662V19.3311H29.8702H30.1993H33.1805V17.9477H30.1993V16.9807Z" fill="#757575"/>
<path d="M39.5686 13.3973H37.5843L36.6098 14.9658L35.6168 13.3973H33.5545L35.5772 16.2749L33.4417 19.3311H35.4264L36.5455 17.5487L37.645 19.3311H39.6815L37.589 16.2531L39.5686 13.3973Z" fill="#757575"/>
<path d="M41.759 13.3973H40.0259V19.3311H41.759V13.3973Z" fill="#757575"/>
<path d="M46.3931 17.8485C46.1702 17.9291 45.9336 17.9686 45.6956 17.9649C45.4776 17.9671 45.2612 17.9287 45.0584 17.8519C44.8704 17.7804 44.7006 17.6709 44.5604 17.5308C44.4174 17.3858 44.3068 17.2142 44.2351 17.0266C44.1538 16.8118 44.114 16.5844 44.1176 16.3558C44.1144 16.1299 44.1543 15.9054 44.2351 15.6933C44.3068 15.5057 44.4174 15.3342 44.5604 15.1891C44.7 15.0493 44.8701 14.9411 45.0584 14.8722C45.4908 14.7224 45.9649 14.7283 46.3931 14.8888C46.5851 14.9674 46.7578 15.0838 46.9001 15.2306L48.0526 14.114C47.7478 13.8529 47.3946 13.6495 47.0114 13.5144C46.5897 13.3661 46.1434 13.2927 45.6944 13.2977C45.2442 13.2936 44.7972 13.3714 44.377 13.5268C43.9843 13.6728 43.6241 13.8892 43.3155 14.1645C43.0129 14.4363 42.7713 14.7649 42.6058 15.1299C42.4371 15.5173 42.3502 15.933 42.3502 16.353C42.3502 16.7729 42.4371 17.1887 42.6058 17.576C42.7723 17.9461 43.0157 18.2795 43.321 18.5558C43.6306 18.836 43.9941 19.0554 44.3911 19.2017C44.8128 19.3571 45.2612 19.4348 45.7128 19.4309C46.2269 19.4309 46.6747 19.3601 47.0561 19.2187C47.4334 19.0793 47.7824 18.8776 48.0874 18.6225L46.926 17.5059C46.7762 17.6558 46.5944 17.7727 46.3931 17.8485Z" fill="#757575"/>
<path d="M53.7043 14.1561C53.3987 13.8748 53.0378 13.655 52.6428 13.5095C51.7784 13.204 50.8292 13.204 49.9649 13.5095C49.57 13.6549 49.2091 13.8745 48.9033 14.1554C48.6042 14.4314 48.3669 14.7633 48.2058 15.1306C47.8749 15.9164 47.8764 16.7954 48.2101 17.5801C48.3725 17.9511 48.6126 18.2859 48.9155 18.5637C49.2239 18.8446 49.586 19.0653 49.9817 19.2137C50.8405 19.5233 51.7865 19.5248 52.6463 19.2179C53.0406 19.0714 53.4004 18.8504 53.7043 18.5678C54.0036 18.2887 54.241 17.9541 54.4022 17.5843C54.7312 16.7984 54.7312 15.9206 54.4022 15.1348C54.2415 14.7661 54.004 14.4331 53.7043 14.1561ZM52.6913 17.215C52.5714 17.4512 52.3813 17.6479 52.1451 17.7802C51.9084 17.9131 51.6283 17.9797 51.3046 17.9799C51.0811 17.9831 50.859 17.9447 50.6506 17.8669C50.4616 17.795 50.2915 17.684 50.1522 17.5417C50.01 17.3945 49.9022 17.2197 49.8359 17.0292C49.7606 16.8116 49.7239 16.5835 49.7274 16.3542C49.7274 16.0276 49.791 15.7429 49.9182 15.4999C50.0381 15.2655 50.2282 15.071 50.4641 14.9415C50.7007 14.8111 50.9809 14.7458 51.3046 14.7455C51.5283 14.7423 51.7505 14.7807 51.959 14.8586C52.1479 14.9306 52.318 15.0416 52.4574 15.1838C52.5988 15.33 52.7065 15.5032 52.7736 15.6921C52.8485 15.9055 52.885 16.1295 52.8818 16.3546C52.8813 16.6837 52.8178 16.9705 52.6913 17.215Z" fill="#757575"/>
<path d="M9.13488 24.9396L17.2685 15.1533C17.2942 15.1264 17.3087 15.0914 17.3096 15.0549C17.3104 15.0184 17.2974 14.9829 17.273 14.9549C17.2487 14.9269 17.2146 14.9083 17.177 14.9027C17.1395 14.8971 17.1012 14.9047 17.0691 14.9242L9.94523 18.6467C9.6147 18.8195 9.33876 19.0748 9.14649 19.3858C8.95422 19.6968 8.85274 20.0519 8.85275 20.4137V24.8443C8.85164 24.8763 8.86119 24.9079 8.88002 24.9344C8.89885 24.9608 8.92597 24.9809 8.95744 24.9915C8.98891 25.0021 9.02308 25.0028 9.05499 24.9935C9.08691 24.9842 9.11489 24.9653 9.13488 24.9396Z" fill="#757575"/>
<path d="M7.36516 18.6467L0.240528 14.9242C0.208439 14.9047 0.170073 14.8971 0.132558 14.9027C0.095043 14.9083 0.0609298 14.9269 0.0365563 14.9549C0.0121828 14.9829 -0.000793762 15.0184 3.76085e-05 15.0549C0.000868979 15.0914 0.0154515 15.1264 0.0410762 15.1533L8.1759 24.9396C8.19588 24.9653 8.22387 24.9842 8.25578 24.9935C8.28769 25.0028 8.32187 25.0021 8.35334 24.9915C8.38481 24.9809 8.41193 24.9608 8.43076 24.9344C8.44958 24.9079 8.45914 24.8763 8.45803 24.8443V20.4137C8.45804 20.0519 8.35652 19.6967 8.16417 19.3857C7.97183 19.0747 7.69579 18.8194 7.36516 18.6467Z" fill="#757575"/>
<path d="M2.50447 12.6055L0.139648 11.3699V12.7981L2.04169 13.7918L2.50447 12.6055Z" fill="#757575"/>
<path d="M17.1702 11.3699L14.8058 12.6055L15.2686 13.7918L17.1702 12.7981V11.3699Z" fill="#757575"/>
<path d="M11.3025 14.4353L8.85266 15.7154V17.1437L11.5502 15.7343L11.3025 14.4353Z" fill="#757575"/>
<path d="M8.458 15.7154L6.00815 14.4353L5.7605 15.7343L8.458 17.1437V15.7154Z" fill="#757575"/>
<path d="M15.562 10.5766C15.5621 10.6109 15.5526 10.6445 15.5343 10.6739C15.5161 10.7033 15.4899 10.7274 15.4585 10.7436L14.3147 11.3413L14.6674 12.2457L16.9566 11.0503L15.5627 10.3219L15.562 10.5766Z" fill="#757575"/>
<path d="M0.356689 11.0503L2.6451 12.2457L2.99776 11.3413L1.85434 10.7436C1.82296 10.7274 1.79674 10.7033 1.77851 10.6739C1.76029 10.6445 1.75074 10.6109 1.75089 10.5766V10.3219L0.356689 11.0503Z" fill="#757575"/>
<path d="M11.0388 13.0521L8.85266 14.1943V15.283L11.2273 14.0425L11.0388 13.0521Z" fill="#757575"/>
<path d="M8.45777 15.283V14.1943L6.27164 13.0521L6.08276 14.0425L8.45777 15.283Z" fill="#757575"/>
<path d="M15.1662 9.04388L13.7144 9.80247L14.1744 10.982L15.1662 10.4638V9.04388Z" fill="#757575"/>
<path d="M8.45758 13.7624V12.3428L6.59276 11.3683L6.34668 12.6594L8.45758 13.7624Z" fill="#757575"/>
<path d="M8.85266 12.3428V13.7624L10.9636 12.6594L10.7175 11.3683L8.85266 12.3428Z" fill="#757575"/>
<path d="M2.14502 10.4638L3.13719 10.982L3.59722 9.80247L2.14502 9.04388V10.4638Z" fill="#757575"/>
<path d="M2.36194 8.72376L3.73773 9.4424L4.02926 8.6955L3.6719 8.50708C3.64051 8.49092 3.61429 8.46684 3.59607 8.43742C3.57784 8.40801 3.56829 8.37438 3.56845 8.34014V8.0918L2.36194 8.72376Z" fill="#757575"/>
<path d="M13.743 8.34288C13.7432 8.37712 13.7337 8.41076 13.7154 8.44017C13.6972 8.46958 13.671 8.49366 13.6396 8.50982L13.2822 8.69825L13.5734 9.44515L14.9499 8.7235L13.743 8.09454V8.34288Z" fill="#757575"/>
<path d="M6.66809 10.9755L8.45807 11.9109V11.0113L6.82405 10.1578L6.66809 10.9755Z" fill="#757575"/>
<path d="M8.85266 11.9109L10.6426 10.9755L10.4867 10.1578L8.85266 11.0113V11.9109Z" fill="#757575"/>
<path d="M13.3479 6.81567L12.3075 7.35908L12.813 7.62287L12.8189 7.62627L12.8275 7.63116L12.8334 7.63531C12.8418 7.64109 12.8498 7.64752 12.8573 7.65453L12.86 7.65754V7.65943C12.862 7.66169 12.8643 7.66357 12.8659 7.66583L12.869 7.66885L12.8722 7.67337L12.8776 7.68015C12.8788 7.68157 12.8799 7.68308 12.8808 7.68468L12.8835 7.68882L12.8882 7.69598C12.8882 7.69598 12.8882 7.69787 12.8882 7.699V7.70163L12.8902 7.7054C12.8914 7.70759 12.8924 7.70986 12.8933 7.71219L12.8968 7.71972V7.72274L13.1359 8.33549L13.3416 8.22808L13.3479 6.81567Z" fill="#757575"/>
<path d="M8.85266 9.16421V10.5785L10.4114 9.76377L10.1661 8.4776L8.85266 9.16421Z" fill="#757575"/>
<path d="M7.14422 8.4776L6.89893 9.76377L8.4581 10.5785V9.16421L7.14422 8.4776Z" fill="#757575"/>
<path d="M3.96333 8.22995L4.16944 8.33735L4.40847 7.7246V7.72158C4.40968 7.71914 4.41073 7.71662 4.4116 7.71405L4.4167 7.70613V7.70237C4.4165 7.7015 4.4165 7.7006 4.4167 7.69973C4.4167 7.69973 4.4167 7.69784 4.4167 7.69671L4.42101 7.68955L4.42414 7.68541L4.42728 7.68088L4.43276 7.6741C4.43358 7.67257 4.43464 7.67117 4.4359 7.66996L4.43864 7.66619L4.44413 7.66091L4.44726 7.6579V7.65564C4.45506 7.64824 4.46344 7.64143 4.47234 7.63529L4.47744 7.6319L4.48645 7.62662L4.49193 7.62361L4.99742 7.35981L3.95667 6.81641L3.96333 8.22995Z" fill="#757575"/>
<path d="M11.7042 6.36666C11.7044 6.40086 11.6949 6.43447 11.6767 6.46388C11.6586 6.49329 11.6324 6.51739 11.6011 6.5336L8.85266 7.96938V8.73136L10.2014 8.02666C10.2318 8.00687 10.2673 7.99567 10.3039 7.99434C10.3406 7.99301 10.3769 8.00159 10.4087 8.01912L11.1219 8.40878L12.3045 7.79075L11.799 7.52696C11.7678 7.51057 11.7419 7.48642 11.7238 7.45705C11.7057 7.42768 11.6961 7.39416 11.6961 7.36002C11.6961 7.32588 11.7057 7.29236 11.7238 7.26299C11.7419 7.23362 11.7678 7.20947 11.799 7.19308L13.1313 6.49742L11.7042 5.74939V6.36666Z" fill="#757575"/>
<path d="M4.40759 16.2104L5.36253 15.7115L6.72774 8.55029L6.36097 8.7504L4.40759 16.2104Z" fill="#757575"/>
<path d="M11.9474 15.7122L12.9019 16.2112L10.949 8.75119L10.5818 8.55109L11.9474 15.7122Z" fill="#757575"/>
<path d="M4.18103 6.49554L5.51332 7.19119C5.54447 7.20759 5.57045 7.23173 5.58855 7.26111C5.60666 7.29048 5.61621 7.32399 5.61621 7.35814C5.61621 7.39228 5.60666 7.42579 5.58855 7.45517C5.57045 7.48454 5.54447 7.50869 5.51332 7.52508L5.00784 7.78887L6.19005 8.40689L6.90322 8.01724C6.93504 7.99971 6.97134 7.99112 7.00798 7.99246C7.04463 7.99379 7.08015 8.00499 7.11051 8.02477L8.45965 8.72947V7.96938L5.70925 6.5336C5.67786 6.51744 5.65164 6.49336 5.63342 6.46395C5.61519 6.43453 5.60564 6.4009 5.6058 6.36666V5.74939L4.18103 6.49554Z" fill="#757575"/>
<path d="M4.44002 14.532L4.57207 14.0281L2.7437 13.0728L2.55835 13.5488L4.44002 14.532Z" fill="#757575"/>
<path d="M4.18701 9.37341L5.59846 10.1105L5.73051 9.60668L4.37275 8.89746L4.18701 9.37341Z" fill="#757575"/>
<path d="M3.86145 10.2089L5.36694 10.9953L5.49899 10.4915L4.04719 9.73291L3.86145 10.2089Z" fill="#757575"/>
<path d="M4.69938 8.06201L4.51404 8.53797L5.83105 9.22608L5.96271 8.72224L4.69938 8.06201Z" fill="#757575"/>
<path d="M3.97786 16.3005L4.10992 15.7966L2.09345 14.743L1.90771 15.2189L3.97786 16.3005Z" fill="#757575"/>
<path d="M2.23169 14.3845L4.20779 15.4171L4.33985 14.9132L2.41743 13.9086L2.23169 14.3845Z" fill="#757575"/>
<path d="M3.20996 11.8791L4.90354 12.7639L5.03559 12.2601L3.39531 11.4031L3.20996 11.8791Z" fill="#757575"/>
<path d="M2.88403 12.7139L4.67166 13.6481L4.80371 13.1443L3.06938 12.238L2.88403 12.7139Z" fill="#757575"/>
<path d="M3.53552 11.0434L5.13506 11.8789L5.26711 11.375L3.72126 10.5674L3.53552 11.0434Z" fill="#757575"/>
<path d="M13.2026 15.7966L13.3343 16.3005L15.4048 15.2189L15.2191 14.743L13.2026 15.7966Z" fill="#757575"/>
<path d="M13.2647 9.73291L11.8129 10.4915L11.9449 10.9953L13.4504 10.2089L13.2647 9.73291Z" fill="#757575"/>
<path d="M12.94 8.89746L11.5823 9.60668L11.7143 10.1105L13.1254 9.37341L12.94 8.89746Z" fill="#757575"/>
<path d="M11.3491 8.7231L11.4812 9.22694L12.7982 8.53882L12.6128 8.06287L11.3491 8.7231Z" fill="#757575"/>
<path d="M14.7532 13.5488L14.5679 13.0728L12.7395 14.0281L12.8712 14.532L14.7532 13.5488Z" fill="#757575"/>
<path d="M14.8926 13.9086L12.9702 14.9132L13.1019 15.4171L15.0784 14.3845L14.8926 13.9086Z" fill="#757575"/>
<path d="M14.2415 12.238L12.5072 13.1443L12.6393 13.6481L14.4269 12.7139L14.2415 12.238Z" fill="#757575"/>
<path d="M13.5903 10.5674L12.0444 11.375L12.1765 11.8789L13.776 11.0434L13.5903 10.5674Z" fill="#757575"/>
<path d="M13.9158 11.4022L12.2759 12.2592L12.4079 12.763L14.1015 11.8782L13.9158 11.4022Z" fill="#757575"/>
<path d="M11.3076 4.8703L8.85266 6.15308V7.53609L9.88793 6.99532V5.88627L9.89302 5.88363L10.5842 5.52262V6.63129L11.3076 6.25332V4.8703Z" fill="#757575"/>
<path d="M6.00305 6.25332L6.72602 6.63129V5.52262L7.42273 5.88627V6.99532L8.458 7.53609V6.15308L6.00305 4.8703V6.25332Z" fill="#757575"/>
<path d="M8.44542 5.72123V4.69923L5.60803 3.2171V4.23873L8.44542 5.72123Z" fill="#757575"/>
<path d="M8.86646 4.69923V5.72123L11.7035 4.23873V3.2171L8.86646 4.69923Z" fill="#757575"/>
<path d="M8.85266 4.25758L11.3962 2.92845L8.85266 0V4.25758Z" fill="#757575"/>
<path d="M8.45744 4.25758V0L5.91394 2.92845L8.45744 4.25758Z" fill="#757575"/>
</svg>
